<svg width="1080" height="522" viewBox="0 0 1080 522" fill="none" xmlns="http://www.w3.org/2000/svg">
<path fill-rule="evenodd" clip-rule="evenodd" d="M1009.96 56C931.183 56 885.5 96 861 169C824.753 277 894.5 274.5 884 307C877.86 326.004 868.713 331.004 859.142 331.004C827.55 331.004 801 230.046 750.267 225.752C748.28 225.584 746.371 225.503 744.529 225.503C688 225.503 696.859 282.648 662.894 300.129C655.197 304.157 647.727 305.824 640.323 305.824C604.56 305.824 570.508 266.868 522.07 266.868C509.011 266.868 494.903 269.698 479.437 276.889C449.247 290.903 427.4 324.431 393.834 329.224C387.773 330.085 381.75 330.482 375.744 330.482C299.46 330.482 226.945 265.83 146.081 265.83C140.559 265.83 134.997 266.132 129.394 266.776C54.448 275.471 -35.0635 416.449 -5.04906 500H1079V73.5845C1062.84 64.1824 1044.19 58.3286 1023.59 56.5544C1018.95 56.1809 1014.4 56 1009.96 56Z" fill="#FFA381"/>
<path fill-rule="evenodd" clip-rule="evenodd" d="M1010.96 72C932.183 72 883.806 128.886 865.821 202.941C851.611 261.835 913.946 280.217 888.192 320.129C877.542 336.631 867.713 343.004 858.142 343.004C826.55 343.004 797.747 242.562 751.267 238.752C749.28 238.584 747.371 238.503 745.529 238.503C693.214 238.503 697.859 304.648 663.894 322.129C656.197 326.157 648.727 327.824 641.323 327.824C605.56 327.824 571.508 288.868 523.07 288.868C510.011 288.868 495.903 291.698 480.437 298.889C450.247 312.903 428.4 346.431 394.834 351.224C388.773 352.085 382.75 352.482 376.744 352.482C300.46 352.482 227.945 287.83 147.081 287.83C141.559 287.83 135.997 288.132 130.394 288.776C55.448 297.471 -34.0635 438.449 -4.04906 522H1080V89.5845C1063.84 80.1824 1045.19 74.3286 1024.59 72.5544C1019.95 72.1809 1015.4 72 1010.96 72Z" fill="black"/>
<path fill-rule="evenodd" clip-rule="evenodd" d="M327.954 223.333C295.905 223.333 295.678 173.131 327.954 173.131C360.225 173.131 360.225 223.333 327.954 223.333Z" fill="black"/>
<path fill-rule="evenodd" clip-rule="evenodd" d="M78.8482 101C15.8446 101 15.3977 2 78.8482 2C142.288 2 142.288 101 78.8482 101Z" fill="black"/>
<path fill-rule="evenodd" clip-rule="evenodd" d="M249.738 77.7639C237.214 77.7639 237.214 58.8195 249.738 58.8195C262.482 58.8195 262.482 77.7639 249.738 77.7639Z" fill="black"/>
<path fill-rule="evenodd" clip-rule="evenodd" d="M348.746 11.4585C340.66 11.4585 340.66 0.0918274 348.746 0.0918274C357.084 0.0918274 357.084 11.4585 348.746 11.4585Z" fill="black"/>
<path fill-rule="evenodd" clip-rule="evenodd" d="M135.639 250.803C128.691 250.803 128.691 240.383 135.639 240.383C142.588 240.383 142.588 250.803 135.639 250.803Z" fill="black"/>
<path fill-rule="evenodd" clip-rule="evenodd" d="M180.175 217.65C173.226 217.65 173.226 206.283 180.175 206.283C187.124 206.283 187.124 217.65 180.175 217.65Z" fill="black"/>
<path fill-rule="evenodd" clip-rule="evenodd" d="M637.514 220.983C614.082 220.983 614.082 257.925 637.514 257.925C660.718 257.925 660.939 220.983 637.514 220.983Z" fill="black"/>
<path fill-rule="evenodd" clip-rule="evenodd" d="M572.785 176C565.841 176 565.841 187.367 572.785 187.367C579.738 187.367 579.738 176 572.785 176Z" fill="black"/>
<path fill-rule="evenodd" clip-rule="evenodd" d="M526.602 113C519.657 113 519.657 123.419 526.602 123.419C533.555 123.419 533.555 113 526.602 113Z" fill="black"/>
<path fill-rule="evenodd" clip-rule="evenodd" d="M784.565 100.778C759.872 100.778 759.872 60.9943 784.565 60.9943C809.038 60.9943 809.252 100.778 784.565 100.778Z" fill="black"/>
<path fill-rule="evenodd" clip-rule="evenodd" d="M710.654 44.8916C698.706 44.8916 698.489 24.9999 710.654 24.9999C722.602 24.9999 722.602 44.8916 710.654 44.8916Z" fill="black"/>
<path fill-rule="evenodd" clip-rule="evenodd" d="M671.763 167.083C667.341 167.083 667.341 161.4 671.763 161.4C676.185 161.4 676.185 167.083 671.763 167.083Z" fill="black"/>
</svg>
