<svg width="1080" height="626" viewBox="0 0 1080 626" fill="none" xmlns="http://www.w3.org/2000/svg">
<path fill-rule="evenodd" clip-rule="evenodd" d="M70.043 0C148.817 0 194.5 40 219 113C255.247 221 187.5 342.5 198 375C204.14 394.004 213.287 394.004 222.858 394.004C254.45 394.004 279 334.046 329.733 329.752C331.72 329.584 333.629 329.503 335.471 329.503C392 329.503 383.141 386.648 417.106 404.129C424.803 408.157 432.273 409.824 439.677 409.824C475.44 409.824 509.492 370.868 557.93 370.868C570.989 370.868 585.097 373.698 600.563 380.889C630.753 394.903 652.6 428.431 686.166 433.224C692.227 434.085 698.25 434.482 704.256 434.482C780.54 434.482 853.055 369.83 933.919 369.83C939.441 369.83 945.003 370.132 950.606 370.776C1025.55 379.471 1115.06 520.449 1085.05 604H1V17.5845C17.1597 8.18236 35.8116 2.32865 56.4131 0.55444C61.0521 0.180923 65.5983 0 70.043 0Z" fill="#FFA381"/>
<path fill-rule="evenodd" clip-rule="evenodd" d="M69.043 22C147.817 22 196.194 78.8856 214.179 152.941C228.389 211.835 166.054 353.217 191.808 393.129C202.458 409.631 212.287 416.004 221.858 416.004C253.45 416.004 282.253 346.562 328.733 342.752C330.72 342.584 332.629 342.503 334.471 342.503C386.786 342.503 382.141 408.648 416.106 426.129C423.803 430.157 431.273 431.824 438.677 431.824C474.44 431.824 508.492 392.868 556.93 392.868C569.989 392.868 584.097 395.698 599.563 402.889C629.753 416.903 651.6 450.431 685.166 455.224C691.227 456.085 697.25 456.482 703.256 456.482C779.54 456.482 852.055 391.83 932.919 391.83C938.441 391.83 944.003 392.132 949.606 392.776C1024.55 401.471 1114.06 542.449 1084.05 626H0V39.5845C16.1597 30.1824 34.8116 24.3286 55.4131 22.5544C60.0521 22.1809 64.5983 22 69.043 22Z" fill="black"/>
<path fill-rule="evenodd" clip-rule="evenodd" d="M752.046 243.333C784.095 243.333 784.322 193.131 752.046 193.131C719.775 193.131 719.775 243.333 752.046 243.333Z" fill="black"/>
<path fill-rule="evenodd" clip-rule="evenodd" d="M1001.15 121C1064.16 121 1064.6 22 1001.15 22C937.712 22 937.712 121 1001.15 121Z" fill="black"/>
<path fill-rule="evenodd" clip-rule="evenodd" d="M830.262 181.764C842.786 181.764 842.786 162.819 830.262 162.819C817.518 162.819 817.518 181.764 830.262 181.764Z" fill="black"/>
<path fill-rule="evenodd" clip-rule="evenodd" d="M731.254 115.458C739.34 115.458 739.34 104.092 731.254 104.092C722.916 104.092 722.916 115.458 731.254 115.458Z" fill="black"/>
<path fill-rule="evenodd" clip-rule="evenodd" d="M944.361 270.803C951.309 270.803 951.309 260.383 944.361 260.383C937.412 260.383 937.412 270.803 944.361 270.803Z" fill="black"/>
<path fill-rule="evenodd" clip-rule="evenodd" d="M899.825 237.65C906.774 237.65 906.774 226.283 899.825 226.283C892.876 226.283 892.876 237.65 899.825 237.65Z" fill="black"/>
<path fill-rule="evenodd" clip-rule="evenodd" d="M442.486 324.984C465.918 324.984 465.918 361.925 442.486 361.925C419.282 361.925 419.061 324.984 442.486 324.984Z" fill="black"/>
<path fill-rule="evenodd" clip-rule="evenodd" d="M507.215 280C514.159 280 514.159 291.367 507.215 291.367C500.262 291.367 500.262 280 507.215 280Z" fill="black"/>
<path fill-rule="evenodd" clip-rule="evenodd" d="M553.398 217C560.343 217 560.343 227.419 553.398 227.419C546.445 227.419 546.445 217 553.398 217Z" fill="black"/>
<path fill-rule="evenodd" clip-rule="evenodd" d="M295.435 204.778C320.128 204.778 320.128 164.994 295.435 164.994C270.962 164.994 270.748 204.778 295.435 204.778Z" fill="black"/>
<path fill-rule="evenodd" clip-rule="evenodd" d="M369.346 148.892C381.294 148.892 381.511 129 369.346 129C357.398 129 357.398 148.892 369.346 148.892Z" fill="black"/>
<path fill-rule="evenodd" clip-rule="evenodd" d="M408.237 271.083C412.659 271.083 412.659 265.4 408.237 265.4C403.815 265.4 403.815 271.083 408.237 271.083Z" fill="black"/>
</svg>
