<svg width="1080" height="682" viewBox="0 0 1080 682" fill="none" xmlns="http://www.w3.org/2000/svg">
<path fill-rule="evenodd" clip-rule="evenodd" d="M513.945 0C518.74 8.37163 524.498 18.3298 532.892 30.6873C571.019 86.8763 631.684 154.826 582.528 225.366C531.694 298.102 436.498 287.141 351.134 301.091C195.748 326.395 206.303 435.995 83.2946 490.787C58.6566 501.774 35.2341 506.764 13.0664 506.764C-5.60812 506.764 1.34408 506.764 1.34408 506.764V0H513.945Z" fill="#FFA381"/>
<path fill-rule="evenodd" clip-rule="evenodd" d="M601.338 1.91058C599.837 18.1889 598.134 39.0782 597.777 53.3788C596.216 122.826 594.212 194.726 515.463 219.795C498.938 225.073 481.534 226.985 463.735 226.985C439.605 226.985 414.764 223.467 390.444 220.021C366.439 216.655 342.828 213.349 320.513 213.349C267.767 213.349 222.281 231.826 196.015 311.661C179.328 362.922 192.898 411.959 206.246 459.446C222.933 519.132 238.508 575.718 190.671 628.08C158.418 663.365 116.82 682 72.5491 682C56.3081 682 39.8468 679.563 23.3884 674.68C15.8504 672.424 8.49166 669.7 1.34396 666.549V663.495C8.76366 666.81 16.4201 669.666 24.2749 672.022C40.5131 676.847 56.6592 679.22 72.4235 679.22C116.059 679.22 156.809 661.028 188.675 626.309C235.391 574.826 220.042 519.132 203.575 460.329C190.233 412.404 176.437 362.696 193.57 310.777C220.137 229.387 266.267 210.553 319.827 210.553C342.485 210.553 366.481 213.925 390.89 217.356C415.151 220.685 439.861 224.16 463.813 224.16C481.373 224.16 498.52 222.299 514.797 217.137C591.547 192.725 593.326 121.723 595.104 53.1525C595.463 39.2718 597.183 18.2944 598.691 1.91058H601.338Z" fill="black"/>
<path fill-rule="evenodd" clip-rule="evenodd" d="M727.474 113.667C759.523 113.667 759.751 163.869 727.474 163.869C695.203 163.869 695.203 113.667 727.474 113.667Z" fill="black"/>
<path fill-rule="evenodd" clip-rule="evenodd" d="M962.58 221C1025.58 221 1026.03 320 962.58 320C899.14 320 899.14 221 962.58 221Z" fill="black"/>
<path fill-rule="evenodd" clip-rule="evenodd" d="M805.69 175.236C818.214 175.236 818.214 194.18 805.69 194.18C792.946 194.18 792.946 175.236 805.69 175.236Z" fill="black"/>
<path fill-rule="evenodd" clip-rule="evenodd" d="M706.682 241.542C714.768 241.542 714.768 252.908 706.682 252.908C698.344 252.908 698.344 241.542 706.682 241.542Z" fill="black"/>
<path fill-rule="evenodd" clip-rule="evenodd" d="M318.042 428.144C341.475 428.144 341.475 465.086 318.042 465.086C294.839 465.086 294.618 428.144 318.042 428.144Z" fill="black"/>
<path fill-rule="evenodd" clip-rule="evenodd" d="M348.412 377.942C355.356 377.942 355.356 389.308 348.412 389.308C341.459 389.308 341.459 377.942 348.412 377.942Z" fill="black"/>
<path fill-rule="evenodd" clip-rule="evenodd" d="M428.955 320.161C435.899 320.161 435.899 330.58 428.955 330.58C422.002 330.58 422.002 320.161 428.955 320.161Z" fill="black"/>
<path fill-rule="evenodd" clip-rule="evenodd" d="M919.788 86.1973C926.737 86.1973 926.737 96.6167 919.788 96.6167C912.84 96.6167 912.84 86.1973 919.788 86.1973Z" fill="black"/>
<path fill-rule="evenodd" clip-rule="evenodd" d="M875.253 119.35C882.202 119.35 882.202 130.717 875.253 130.717C868.304 130.717 868.304 119.35 875.253 119.35Z" fill="black"/>
<path fill-rule="evenodd" clip-rule="evenodd" d="M40.4091 564.545C65.1019 564.545 65.1019 604.328 40.4091 604.328C15.9359 604.328 15.7218 564.545 40.4091 564.545Z" fill="black"/>
<path fill-rule="evenodd" clip-rule="evenodd" d="M114.32 620.43C126.268 620.43 126.485 640.322 114.32 640.322C102.372 640.322 102.372 620.43 114.32 620.43Z" fill="black"/>
<path fill-rule="evenodd" clip-rule="evenodd" d="M250.889 498.239C257.732 498.239 257.732 509.606 250.889 509.606C243.835 509.606 243.835 498.239 250.889 498.239Z" fill="black"/>
<path fill-rule="evenodd" clip-rule="evenodd" d="M153.211 498.239C157.633 498.239 157.633 503.922 153.211 503.922C148.789 503.922 148.789 498.239 153.211 498.239Z" fill="black"/>
<path fill-rule="evenodd" clip-rule="evenodd" d="M534.484 1.36292C547.389 37.8435 550.498 73.8466 538.26 100.316C516.821 146.091 479.448 157.119 437.757 157.119C405.894 157.119 371.514 150.679 339.807 148.367C311.245 146.237 282.441 143.266 255.368 143.266C191.973 143.266 138.057 159.534 118.886 240.896C103.309 307.41 177.399 400.607 80.6109 431.972C70.9223 435.154 61.7352 436.669 53.0386 436.669C33.6862 436.669 16.1904 429.197 1.34416 416.05V1.36292H534.484Z" fill="black"/>
</svg>
