<svg width="1080" height="682" viewBox="0 0 1080 682" fill="none" xmlns="http://www.w3.org/2000/svg">
<path fill-rule="evenodd" clip-rule="evenodd" d="M566.055 0C561.26 8.37163 555.502 18.3298 547.108 30.6873C508.981 86.8763 448.316 154.826 497.472 225.366C548.306 298.102 643.502 287.141 728.866 301.091C884.252 326.395 873.697 435.995 996.705 490.787C1021.34 501.774 1044.77 506.764 1066.93 506.764C1085.61 506.764 1078.66 506.764 1078.66 506.764V0H566.055Z" fill="#FFA381"/>
<path fill-rule="evenodd" clip-rule="evenodd" d="M478.662 1.91052C480.163 18.1889 481.866 39.0782 482.223 53.3787C483.784 122.826 485.788 194.726 564.537 219.795C581.062 225.073 598.466 226.985 616.265 226.985C640.395 226.985 665.236 223.467 689.556 220.021C713.561 216.655 737.172 213.349 759.487 213.349C812.233 213.349 857.719 231.825 883.985 311.661C900.672 362.922 887.102 411.958 873.754 459.446C857.067 519.132 841.492 575.718 889.329 628.08C921.582 663.365 963.18 682 1007.45 682C1023.69 682 1040.15 679.563 1056.61 674.68C1064.15 672.423 1071.51 669.7 1078.66 666.549V663.495C1071.24 666.81 1063.58 669.666 1055.73 672.022C1039.49 676.847 1023.34 679.22 1007.58 679.22C963.941 679.22 923.191 661.028 891.325 626.309C844.609 574.826 859.958 519.132 876.425 460.329C889.767 412.404 903.563 362.696 886.43 310.777C859.863 229.387 813.733 210.553 760.173 210.553C737.515 210.553 713.519 213.925 689.11 217.356C664.849 220.685 640.139 224.16 616.187 224.16C598.627 224.16 581.48 222.299 565.203 217.137C488.453 192.725 486.674 121.723 484.896 53.1524C484.537 39.2718 482.817 18.2944 481.309 1.91052H478.662Z" fill="black"/>
<path fill-rule="evenodd" clip-rule="evenodd" d="M352.526 113.667C320.477 113.667 320.249 163.869 352.526 163.869C384.797 163.869 384.797 113.667 352.526 113.667Z" fill="black"/>
<path fill-rule="evenodd" clip-rule="evenodd" d="M117.42 221C54.4168 221 53.97 320 117.42 320C180.86 320 180.86 221 117.42 221Z" fill="black"/>
<path fill-rule="evenodd" clip-rule="evenodd" d="M274.31 175.236C261.786 175.236 261.786 194.181 274.31 194.181C287.054 194.181 287.054 175.236 274.31 175.236Z" fill="black"/>
<path fill-rule="evenodd" clip-rule="evenodd" d="M373.318 241.542C365.232 241.542 365.232 252.908 373.318 252.908C381.656 252.908 381.656 241.542 373.318 241.542Z" fill="black"/>
<path fill-rule="evenodd" clip-rule="evenodd" d="M761.958 428.144C738.525 428.144 738.525 465.086 761.958 465.086C785.161 465.086 785.382 428.144 761.958 428.144Z" fill="black"/>
<path fill-rule="evenodd" clip-rule="evenodd" d="M731.588 377.942C724.644 377.942 724.644 389.308 731.588 389.308C738.541 389.308 738.541 377.942 731.588 377.942Z" fill="black"/>
<path fill-rule="evenodd" clip-rule="evenodd" d="M651.045 320.161C644.101 320.161 644.101 330.58 651.045 330.58C657.998 330.58 657.998 320.161 651.045 320.161Z" fill="black"/>
<path fill-rule="evenodd" clip-rule="evenodd" d="M160.212 86.1973C153.263 86.1973 153.263 96.6167 160.212 96.6167C167.16 96.6167 167.16 86.1973 160.212 86.1973Z" fill="black"/>
<path fill-rule="evenodd" clip-rule="evenodd" d="M204.747 119.35C197.798 119.35 197.798 130.717 204.747 130.717C211.696 130.717 211.696 119.35 204.747 119.35Z" fill="black"/>
<path fill-rule="evenodd" clip-rule="evenodd" d="M1039.59 564.545C1014.9 564.545 1014.9 604.328 1039.59 604.328C1064.06 604.328 1064.28 564.545 1039.59 564.545Z" fill="black"/>
<path fill-rule="evenodd" clip-rule="evenodd" d="M965.68 620.43C953.732 620.43 953.515 640.322 965.68 640.322C977.628 640.322 977.628 620.43 965.68 620.43Z" fill="black"/>
<path fill-rule="evenodd" clip-rule="evenodd" d="M829.111 498.239C822.268 498.239 822.268 509.606 829.111 509.606C836.165 509.606 836.165 498.239 829.111 498.239Z" fill="black"/>
<path fill-rule="evenodd" clip-rule="evenodd" d="M926.789 498.239C922.367 498.239 922.367 503.922 926.789 503.922C931.211 503.922 931.211 498.239 926.789 498.239Z" fill="black"/>
<path fill-rule="evenodd" clip-rule="evenodd" d="M545.516 1.36292C532.611 37.8435 529.502 73.8466 541.74 100.316C563.179 146.091 600.552 157.119 642.243 157.119C674.106 157.119 708.486 150.679 740.193 148.367C768.755 146.237 797.559 143.266 824.632 143.266C888.027 143.266 941.943 159.534 961.114 240.896C976.691 307.41 902.601 400.607 999.389 431.972C1009.08 435.154 1018.26 436.669 1026.96 436.669C1046.31 436.669 1063.81 429.197 1078.66 416.05V1.36292H545.516Z" fill="black"/>
</svg>
