<svg width="80" height="80" viewBox="0 0 80 80" fill="none" xmlns="http://www.w3.org/2000/svg">
<path d="M0 0H80V80H20C8.95431 80 0 71.0457 0 60V0Z" fill="#B00020"/>
<path fill-rule="evenodd" clip-rule="evenodd" d="M37.9167 25.4167C37.3641 25.4167 36.8342 25.6362 36.4435 26.0269C36.0528 26.4176 35.8333 26.9475 35.8333 27.5H44.1667C44.1667 26.9475 43.9472 26.4176 43.5565 26.0269C43.1658 25.6362 42.6359 25.4167 42.0833 25.4167H37.9167ZM37.9167 21.25C36.2591 21.25 34.6694 21.9085 33.4972 23.0806C32.3251 24.2527 31.6667 25.8424 31.6667 27.5H23.3333C22.7808 27.5 22.2509 27.7195 21.8602 28.1102C21.4695 28.5009 21.25 29.0308 21.25 29.5833C21.25 30.1359 21.4695 30.6658 21.8602 31.0565C22.2509 31.4472 22.7808 31.6667 23.3333 31.6667H25.4167V52.5C25.4167 54.1576 26.0751 55.7473 27.2472 56.9194C28.4194 58.0915 30.0091 58.75 31.6667 58.75H48.3333C49.9909 58.75 51.5806 58.0915 52.7528 56.9194C53.9249 55.7473 54.5833 54.1576 54.5833 52.5V31.6667H56.6667C57.2192 31.6667 57.7491 31.4472 58.1398 31.0565C58.5305 30.6658 58.75 30.1359 58.75 29.5833C58.75 29.0308 58.5305 28.5009 58.1398 28.1102C57.7491 27.7195 57.2192 27.5 56.6667 27.5H48.3333C48.3333 25.8424 47.6749 24.2527 46.5028 23.0806C45.3306 21.9085 43.7409 21.25 42.0833 21.25H37.9167ZM37.9167 37.9167C37.9167 37.3641 37.6972 36.8342 37.3065 36.4435C36.9158 36.0528 36.3859 35.8333 35.8333 35.8333C35.2808 35.8333 34.7509 36.0528 34.3602 36.4435C33.9695 36.8342 33.75 37.3641 33.75 37.9167V48.3333C33.75 48.8859 33.9695 49.4158 34.3602 49.8065C34.7509 50.1972 35.2808 50.4167 35.8333 50.4167C36.3859 50.4167 36.9158 50.1972 37.3065 49.8065C37.6972 49.4158 37.9167 48.8859 37.9167 48.3333V37.9167ZM46.25 37.9167C46.25 37.3641 46.0305 36.8342 45.6398 36.4435C45.2491 36.0528 44.7192 35.8333 44.1667 35.8333C43.6141 35.8333 43.0842 36.0528 42.6935 36.4435C42.3028 36.8342 42.0833 37.3641 42.0833 37.9167V48.3333C42.0833 48.8859 42.3028 49.4158 42.6935 49.8065C43.0842 50.1972 43.6141 50.4167 44.1667 50.4167C44.7192 50.4167 45.2491 50.1972 45.6398 49.8065C46.0305 49.4158 46.25 48.8859 46.25 48.3333V37.9167Z" fill="white"/>
</svg>
