<svg width="101" height="101" viewBox="0 0 101 101" fill="none" xmlns="http://www.w3.org/2000/svg">
<rect x="0.5" y="0.5" width="100" height="100" rx="20" fill="#404040"/>
<path fill-rule="evenodd" clip-rule="evenodd" d="M67.1516 23.5972C68.1035 23.2029 69.1237 23 70.1541 23C71.1844 23 72.2047 23.2029 73.1566 23.5972C74.1085 23.9915 74.9734 24.5694 75.702 25.298C76.4305 26.0266 77.0085 26.8915 77.4028 27.8434C77.7971 28.7953 78 29.8156 78 30.8459C78 31.8762 77.7971 32.8965 77.4028 33.8484C77.0085 34.8003 76.4305 35.6652 75.702 36.3938L58.7671 53.3285C57.5613 54.5344 56.0287 55.3536 54.3588 55.6875L46.529 57.2547C45.7535 57.4099 44.9517 57.1673 44.3923 56.6081C43.8329 56.0489 43.59 55.2472 43.7449 54.4716L45.3096 46.6395C45.6447 44.9697 46.4664 43.4364 47.6713 42.2327L64.6062 25.298C65.3347 24.5695 66.1996 23.9915 67.1516 23.5972ZM70.1541 27.7312C69.745 27.7312 69.34 27.8118 68.9621 27.9683C68.5842 28.1248 68.2409 28.3542 67.9516 28.6435L64.8535 31.7416L69.2593 36.1454L72.3565 33.0483C72.6457 32.7591 72.8752 32.4157 73.0317 32.0378C73.1882 31.6599 73.2688 31.2549 73.2688 30.8459C73.2688 30.4368 73.1882 30.0318 73.0317 29.6539C72.8752 29.2761 72.6457 28.9327 72.3565 28.6435C72.0673 28.3542 71.7239 28.1248 71.346 27.9683C70.9681 27.8118 70.5631 27.7312 70.1541 27.7312ZM65.9139 39.4909L61.508 35.0871L51.0156 45.5794C50.4713 46.1229 50.1001 46.8153 49.9485 47.5695L49.0796 51.9191L53.4306 51.0483C54.1856 50.8973 54.877 50.5277 55.4217 49.983L65.9139 39.4909Z" fill="white"/>
<path fill-rule="evenodd" clip-rule="evenodd" d="M31.2796 33.645C30.3385 33.645 29.436 34.0189 28.7705 34.6843C28.1051 35.3498 27.7312 36.2523 27.7312 37.1934V69.7204C27.7312 70.6615 28.1051 71.564 28.7705 72.2295C29.436 72.895 30.3386 73.2688 31.2796 73.2688H63.8069C64.7479 73.2688 65.6505 72.895 66.316 72.2295C66.9814 71.564 67.3553 70.6615 67.3553 69.7204V60.8494C67.3553 59.5429 68.4144 58.4838 69.7209 58.4838C71.0274 58.4838 72.0865 59.5429 72.0865 60.8494V69.7204C72.0865 71.9163 71.2142 74.0222 69.6614 75.575C68.1087 77.1277 66.0028 78 63.8069 78H31.2796C29.0837 78 26.9778 77.1277 25.4251 75.575C23.8723 74.0222 23 71.9163 23 69.7204V37.1934C23 34.9975 23.8723 32.8916 25.4251 31.3389C26.9778 29.7861 29.0838 28.9138 31.2796 28.9138H40.1507C41.4572 28.9138 42.5163 29.9729 42.5163 31.2794C42.5163 32.5859 41.4572 33.645 40.1507 33.645H31.2796Z" fill="white"/>
</svg>
