<svg width="110" height="110" viewBox="0 0 110 110" fill="none" xmlns="http://www.w3.org/2000/svg">
<g filter="url(#filter0_d_355:209)">
<rect x="5" y="5" width="100" height="100" rx="25" fill="#F7F6F9"/>
<path d="M56.5804 33.6824L57.0789 33.7192L57.1159 33.2208L57.3471 30.1058L57.3841 29.6072L56.8855 29.5701C56.2608 29.5237 55.6347 29.5003 55.0082 29.5L54.508 29.4998V30V33.1244V33.6244L55.008 33.6244C55.5327 33.6244 56.0572 33.6438 56.5804 33.6824ZM59.3135 33.5461L59.2041 34.0337L59.6917 34.1434C60.7153 34.3735 61.7206 34.6786 62.6993 35.0562L62.8793 34.5897L63.3458 34.7697L64.4707 31.8547L64.6504 31.389L64.1851 31.2085C63.0176 30.7556 61.8157 30.3923 60.5953 30.1183L60.1074 30.0087L59.9979 30.4966L59.3135 33.5461ZM65.3535 35.7179L65.1067 36.1534L65.5424 36.3997C65.9219 36.6143 66.2947 36.8403 66.6603 37.0776V37.0785L66.8826 37.227C67.3192 37.5185 67.7449 37.8261 68.1589 38.149L68.5533 38.4566L68.8608 38.0621L70.7825 35.597L71.0899 35.2027L70.6956 34.8953C69.708 34.1252 68.6652 33.4286 67.5755 32.8112L67.1405 32.5648L66.894 32.9997L65.3535 35.7179ZM70.5057 39.5517L70.1439 39.8965L70.4885 40.2584C71.2119 41.0184 71.8783 41.8306 72.4823 42.6885L72.8911 42.4007L73.179 42.8095L75.735 41.0099L76.1453 40.721L75.855 40.3117C75.1322 39.293 74.3361 38.3218 73.4759 37.414L73.1311 37.05L72.768 37.3959L70.5057 39.5517ZM74.3223 44.7161L73.8764 44.9408L74.1004 45.387C74.3354 45.8552 74.5534 46.3317 74.7538 46.8157C74.954 47.3004 75.1363 47.7923 75.3004 48.2904L75.4569 48.7653L75.9317 48.6089L78.9003 47.6309L79.3752 47.4745L79.2187 46.9995C78.8267 45.8099 78.3473 44.6509 77.7843 43.532L77.5595 43.085L77.1127 43.3102L74.3223 44.7161ZM76.3722 54.4695L76.3837 54.9577H76.8721H76.8752V54.9579L76.8877 54.9576L80.0125 54.8795L80.5126 54.867L80.4998 54.3669C80.468 53.1176 80.3437 51.8685 80.1302 50.6386L80.0447 50.1464L79.5525 50.2314L76.4746 50.7625L75.9818 50.8476L76.0669 51.3403C76.2455 52.3745 76.3475 53.4204 76.3722 54.4695ZM76.7773 57.1734L76.2806 57.1119L76.2196 57.6087C76.1555 58.1304 76.0731 58.6464 75.9722 59.1662C75.8685 59.6817 75.7464 60.191 75.6061 60.6941L75.4716 61.1765L75.9543 61.3102L78.9666 62.1444L79.4482 62.2778L79.5819 61.7963C79.9169 60.589 80.1619 59.3585 80.315 58.115L80.3761 57.6191L79.8802 57.5577L76.7773 57.1734ZM73.0658 66.4281L72.7976 66.8507L73.2205 67.1184L75.861 68.79L76.2835 69.0575L76.5509 68.6348C77.2202 67.5769 77.8097 66.4744 78.3195 65.3275L78.5229 64.87L78.0652 64.6673L75.2091 63.4019L74.7531 63.1998L74.5499 63.6554C74.122 64.6151 73.6272 65.5433 73.0658 66.4281ZM71.8957 68.901L71.5152 68.5733L71.1891 68.9551C70.8513 69.3507 70.4947 69.7348 70.1221 70.1073L70.4757 70.4609L70.1221 70.8144L72.3314 73.0234L72.6851 73.3771L73.0387 73.0231C73.4812 72.58 73.9075 72.1209 74.3165 71.6467L74.6433 71.2678L74.2642 70.9412L71.8957 68.901Z" fill="black" stroke="black"/>
<path d="M55.0081 33.6244L55.508 33.6244V33.1244V30V29.5001L55.0082 29.5C50.8139 29.4989 46.684 30.5322 42.9846 32.5084C39.2851 34.4846 36.1303 37.3427 33.7996 40.8294C31.4689 44.3161 30.0343 48.3238 29.623 52.4974C29.2116 56.671 29.8361 60.8816 31.4412 64.7562C33.0464 68.6307 35.5825 72.0496 38.8249 74.7099C42.0674 77.3701 45.916 79.1897 50.0298 80.0073C54.1437 80.8249 58.3957 80.6152 62.4091 79.397C66.4226 78.1788 70.0735 75.9896 73.0385 73.0233L73.392 72.6697L73.0384 72.3162L70.8292 70.1073L70.4757 69.7538L70.1222 70.1073C67.6367 72.5922 64.5768 74.4258 61.2133 75.4459C57.8498 76.4659 54.2866 76.6408 50.8394 75.9551C47.3922 75.2695 44.1673 73.7443 41.4503 71.5148C38.7334 69.2854 36.6082 66.4203 35.2632 63.1735C33.9181 59.9267 33.3946 56.3984 33.739 52.901C34.0834 49.4036 35.2851 46.0451 37.2377 43.1229C39.1903 40.2008 41.8335 37.8052 44.9331 36.1484C48.0328 34.4916 51.4933 33.6246 55.0081 33.6244Z" fill="black" stroke="black"/>
<path d="M65.4155 62.584L65.4156 62.5839L65.4053 62.5781L55.508 56.9231V40.9352C55.508 40.3883 55.2907 39.8638 54.9039 39.477C54.5171 39.0903 53.9926 38.873 53.4456 38.873C52.8986 38.873 52.3741 39.0903 51.9873 39.477C51.6005 39.8638 51.3832 40.3883 51.3832 40.9352V58.1194L51.3832 58.1196C51.3833 58.4831 51.4795 58.8401 51.6621 59.1544C51.8446 59.4688 52.107 59.7293 52.4227 59.9096L63.3593 66.1583L63.3593 66.1584L63.3697 66.164C63.8434 66.4201 64.3986 66.4806 64.9164 66.3328C65.4342 66.185 65.8737 65.8405 66.1409 65.373C66.4081 64.9055 66.4818 64.352 66.3462 63.8308C66.2107 63.3096 65.8766 62.8622 65.4155 62.584Z" fill="black" stroke="black"/>
</g>
<defs>
<filter id="filter0_d_355:209" x="0" y="0" width="110" height="110" filterUnits="userSpaceOnUse" color-interpolation-filters="sRGB">
<feFlood flood-opacity="0" result="BackgroundImageFix"/>
<feColorMatrix in="SourceAlpha" type="matrix" values="0 0 0 0 0 0 0 0 0 0 0 0 0 0 0 0 0 0 127 0" result="hardAlpha"/>
<feOffset/>
<feGaussianBlur stdDeviation="2.5"/>
<feComposite in2="hardAlpha" operator="out"/>
<feColorMatrix type="matrix" values="0 0 0 0 0 0 0 0 0 0 0 0 0 0 0 0 0 0 0.15 0"/>
<feBlend mode="normal" in2="BackgroundImageFix" result="effect1_dropShadow_355:209"/>
<feBlend mode="normal" in="SourceGraphic" in2="effect1_dropShadow_355:209" result="shape"/>
</filter>
</defs>
</svg>
