<svg width="60" height="60" viewBox="0 0 60 60" fill="none" xmlns="http://www.w3.org/2000/svg">
<path d="M43.2846 5.46484C43.0177 5.19752 42.7008 4.98541 42.3519 4.84064C42.0026 4.6957 41.6282 4.62109 41.25 4.62109C40.8718 4.62109 40.4974 4.6957 40.1481 4.84064C39.7992 4.98541 39.4823 5.19752 39.2154 5.46484C39.2151 5.46514 39.2148 5.46544 39.2145 5.46573L16.7163 27.9639C16.4485 28.231 16.2361 28.5483 16.0912 28.8976C15.9463 29.2468 15.8717 29.6213 15.8717 29.9994C15.8717 30.3776 15.9463 30.7521 16.0912 31.1013C16.236 31.4502 16.4481 31.7672 16.7154 32.0341C16.7157 32.0344 16.716 32.0346 16.7163 32.0349L39.2154 54.5341C39.755 55.0737 40.4869 55.3768 41.25 55.3768C42.0131 55.3768 42.745 55.0737 43.2846 54.5341C43.8242 53.9944 44.1274 53.2626 44.1274 52.4994C44.1274 51.7363 43.8242 51.0045 43.2846 50.4648L43.2845 50.4648L22.8156 29.9994L43.2837 9.53495C43.2838 9.53482 43.284 9.5347 43.2841 9.53457C43.5516 9.26759 43.7639 8.95046 43.9088 8.60134C44.0537 8.25206 44.1284 7.87761 44.1284 7.49945C44.1284 7.12128 44.0537 6.74684 43.9088 6.39755C43.764 6.04866 43.5519 5.73172 43.2846 5.46484Z" fill="white" stroke="white" stroke-width="2"/>
</svg>
