<svg width="39" height="39" viewBox="0 0 39 39" fill="none" xmlns="http://www.w3.org/2000/svg">
<path fill-rule="evenodd" clip-rule="evenodd" d="M17.875 8.125C17.444 8.125 17.0307 8.29621 16.726 8.60095C16.4212 8.9057 16.25 9.31902 16.25 9.75H22.75C22.75 9.31902 22.5788 8.9057 22.274 8.60095C21.9693 8.29621 21.556 8.125 21.125 8.125H17.875ZM17.875 4.875C16.5821 4.875 15.3421 5.38861 14.4279 6.30285C13.5136 7.21709 13 8.45707 13 9.75H6.5C6.06902 9.75 5.6557 9.92121 5.35095 10.226C5.0462 10.5307 4.875 10.944 4.875 11.375C4.875 11.806 5.0462 12.2193 5.35095 12.524C5.6557 12.8288 6.06902 13 6.5 13H8.125V29.25C8.125 30.5429 8.63861 31.7829 9.55285 32.6971C10.4671 33.6114 11.7071 34.125 13 34.125H26C27.2929 34.125 28.5329 33.6114 29.4471 32.6971C30.3614 31.7829 30.875 30.5429 30.875 29.25V13H32.5C32.931 13 33.3443 12.8288 33.649 12.524C33.9538 12.2193 34.125 11.806 34.125 11.375C34.125 10.944 33.9538 10.5307 33.649 10.226C33.3443 9.92121 32.931 9.75 32.5 9.75H26C26 8.45707 25.4864 7.21709 24.5721 6.30285C23.6579 5.38861 22.4179 4.875 21.125 4.875H17.875ZM17.875 17.875C17.875 17.444 17.7038 17.0307 17.399 16.726C17.0943 16.4212 16.681 16.25 16.25 16.25C15.819 16.25 15.4057 16.4212 15.101 16.726C14.7962 17.0307 14.625 17.444 14.625 17.875V26C14.625 26.431 14.7962 26.8443 15.101 27.149C15.4057 27.4538 15.819 27.625 16.25 27.625C16.681 27.625 17.0943 27.4538 17.399 27.149C17.7038 26.8443 17.875 26.431 17.875 26V17.875ZM24.375 17.875C24.375 17.444 24.2038 17.0307 23.899 16.726C23.5943 16.4212 23.181 16.25 22.75 16.25C22.319 16.25 21.9057 16.4212 21.601 16.726C21.2962 17.0307 21.125 17.444 21.125 17.875V26C21.125 26.431 21.2962 26.8443 21.601 27.149C21.9057 27.4538 22.319 27.625 22.75 27.625C23.181 27.625 23.5943 27.4538 23.899 27.149C24.2038 26.8443 24.375 26.431 24.375 26V17.875Z" fill="white"/>
</svg>
