<svg width="60" height="60" viewBox="0 0 60 60" fill="none" xmlns="http://www.w3.org/2000/svg">
<path d="M25.9665 8.03332L25.812 8.34684V8.34932L20.526 19.0583L8.35544 20.8259C8.35543 20.8259 8.35542 20.8259 8.35541 20.8259C7.52427 20.9466 6.7435 21.2975 6.10141 21.8389C5.45932 22.3803 4.98155 23.0906 4.72215 23.8894L6.14881 24.3527L4.72215 23.8894C4.46275 24.6882 4.43207 25.5436 4.63359 26.359C4.83508 27.1742 5.26066 27.9168 5.86219 28.5027C5.86227 28.5028 5.86236 28.5029 5.86244 28.5029L14.6693 37.0843L12.5916 49.207L12.5914 49.2079C12.4502 50.0349 12.543 50.8848 12.8593 51.6618C13.1756 52.4389 13.7027 53.112 14.3813 53.6052C15.0599 54.0985 15.8629 54.3923 16.6996 54.4533C17.5363 54.5144 18.3734 54.3404 19.1164 53.9509L19.1179 53.9501L30.0058 48.2271L40.8878 53.95L40.888 53.9501C41.6311 54.3408 42.4688 54.5158 43.3062 54.4553C44.1436 54.3948 44.9475 54.1013 45.6268 53.6078C46.3061 53.1144 46.8338 52.4407 47.1502 51.663C47.4667 50.8853 47.5593 50.0346 47.4175 49.207L47.4174 49.2066L45.3368 37.087L54.1436 28.5029C54.1437 28.5028 54.1439 28.5027 54.144 28.5025C54.7454 27.9166 55.1709 27.1741 55.3724 26.359L53.9162 25.999L55.3724 26.359C55.5739 25.5436 55.5433 24.6882 55.2839 23.8894L53.8572 24.3527L55.2839 23.8894C55.0245 23.0906 54.5467 22.3803 53.9046 21.8389C53.2625 21.2975 52.4817 20.9466 51.6506 20.8259C51.6506 20.8259 51.6506 20.8259 51.6506 20.8259L39.4801 19.0583L34.0395 8.03332C34.0394 8.03307 34.0393 8.03282 34.0391 8.03257C33.6678 7.27931 33.093 6.64499 32.3799 6.20139C31.6665 5.75765 30.8431 5.52246 30.003 5.52246C29.1629 5.52246 28.3395 5.75764 27.6262 6.20139C26.9128 6.64514 26.3379 7.27973 25.9665 8.03332Z" fill="#FFC727" stroke="white" stroke-width="3"/>
</svg>
