<svg width="100" height="100" viewBox="0 0 100 100" fill="none" xmlns="http://www.w3.org/2000/svg">
<rect x="5" y="5" width="90" height="90" rx="45" fill="#DCDCDC"/>
<path d="M68.5625 62.3125C68.5625 63.1458 68.2708 63.8542 67.6875 64.4375L63.4375 68.6875C62.8542 69.2708 62.1458 69.5625 61.3125 69.5625C60.4792 69.5625 59.7708 69.2708 59.1875 68.6875L50 59.5L40.8125 68.6875C40.2292 69.2708 39.5208 69.5625 38.6875 69.5625C37.8542 69.5625 37.1458 69.2708 36.5625 68.6875L32.3125 64.4375C31.7292 63.8542 31.4375 63.1458 31.4375 62.3125C31.4375 61.4792 31.7292 60.7708 32.3125 60.1875L41.5 51L32.3125 41.8125C31.7292 41.2292 31.4375 40.5208 31.4375 39.6875C31.4375 38.8542 31.7292 38.1458 32.3125 37.5625L36.5625 33.3125C37.1458 32.7292 37.8542 32.4375 38.6875 32.4375C39.5208 32.4375 40.2292 32.7292 40.8125 33.3125L50 42.5L59.1875 33.3125C59.7708 32.7292 60.4792 32.4375 61.3125 32.4375C62.1458 32.4375 62.8542 32.7292 63.4375 33.3125L67.6875 37.5625C68.2708 38.1458 68.5625 38.8542 68.5625 39.6875C68.5625 40.5208 68.2708 41.2292 67.6875 41.8125L58.5 51L67.6875 60.1875C68.2708 60.7708 68.5625 61.4792 68.5625 62.3125Z" fill="#404042"/>
<rect x="5" y="5" width="90" height="90" rx="45" stroke="white" stroke-width="10"/>
</svg>
