<svg width="200" height="200" viewBox="0 0 200 200" fill="none" xmlns="http://www.w3.org/2000/svg">
<g opacity="0.5">
<path d="M115.25 158.333C114.005 158.338 112.775 158.063 111.65 157.529C110.525 156.996 109.534 156.217 108.75 155.25L68.4996 105.25C67.2739 103.759 66.6039 101.889 66.6039 99.9583C66.6039 98.0281 67.2739 96.1578 68.4996 94.6667L110.166 44.6667C111.581 42.9649 113.613 41.8947 115.817 41.6915C118.02 41.4883 120.214 42.1689 121.916 43.5834C123.618 44.9978 124.688 47.0304 124.891 49.234C125.095 51.4375 124.414 53.6315 123 55.3333L85.7496 100L121.75 144.667C122.769 145.89 123.416 147.379 123.615 148.959C123.814 150.539 123.556 152.142 122.872 153.58C122.189 155.018 121.107 156.229 119.756 157.072C118.406 157.914 116.842 158.352 115.25 158.333Z" fill="black"/>
</g>
</svg>
