<svg width="26" height="14" viewBox="0 0 26 14" fill="none" xmlns="http://www.w3.org/2000/svg">
<path d="M13.25 0C5.04875 0 0.75 6.04 0.75 7C0.75 7.9575 5.04875 14 13.25 14C21.45 14 25.75 7.9575 25.75 7C25.75 6.04 21.45 0 13.25 0ZM13.25 12.3837C10.1812 12.3837 7.69375 9.97375 7.69375 7C7.69375 4.02625 10.1812 1.61375 13.25 1.61375C16.3188 1.61375 18.805 4.02625 18.805 7C18.805 9.97375 16.3188 12.3837 13.25 12.3837ZM13.25 7C12.7413 6.44125 14.0787 4.3075 13.25 4.3075C11.715 4.3075 10.4712 5.51375 10.4712 7C10.4712 8.48625 11.715 9.6925 13.25 9.6925C14.7837 9.6925 16.0287 8.48625 16.0287 7C16.0287 6.31625 13.6825 7.47375 13.25 7Z" fill="white"/>
</svg>
