<svg width="110" height="110" viewBox="0 0 110 110" fill="none" xmlns="http://www.w3.org/2000/svg">
<g filter="url(#filter0_d_355:217)">
<rect x="5" y="5" width="100" height="100" rx="25" fill="#F7F6F9"/>
<path d="M68.125 47.5H47.5V38.125C47.5 36.1359 48.2902 34.2282 49.6967 32.8217C51.1032 31.4152 53.0109 30.625 55 30.625C56.9891 30.625 58.8968 31.4152 60.3033 32.8217C61.7098 34.2282 62.5 36.1359 62.5 38.125C62.5 38.6223 62.6975 39.0992 63.0492 39.4508C63.4008 39.8025 63.8777 40 64.375 40C64.8723 40 65.3492 39.8025 65.7008 39.4508C66.0525 39.0992 66.25 38.6223 66.25 38.125C66.25 35.1413 65.0647 32.2798 62.955 30.17C60.8452 28.0603 57.9837 26.875 55 26.875C52.0163 26.875 49.1548 28.0603 47.045 30.17C44.9353 32.2798 43.75 35.1413 43.75 38.125V47.5H41.875C39.8865 47.5022 37.9801 48.293 36.5741 49.6991C35.168 51.1051 34.3772 53.0115 34.375 55V75.625C34.3772 77.6135 35.168 79.5199 36.5741 80.9259C37.9801 82.332 39.8865 83.1228 41.875 83.125H68.125C70.1135 83.1228 72.0199 82.332 73.4259 80.9259C74.832 79.5199 75.6228 77.6135 75.625 75.625V55C75.6228 53.0115 74.832 51.1051 73.4259 49.6991C72.0199 48.293 70.1135 47.5022 68.125 47.5V47.5Z" fill="black"/>
</g>
<defs>
<filter id="filter0_d_355:217" x="0" y="0" width="110" height="110" filterUnits="userSpaceOnUse" color-interpolation-filters="sRGB">
<feFlood flood-opacity="0" result="BackgroundImageFix"/>
<feColorMatrix in="SourceAlpha" type="matrix" values="0 0 0 0 0 0 0 0 0 0 0 0 0 0 0 0 0 0 127 0" result="hardAlpha"/>
<feOffset/>
<feGaussianBlur stdDeviation="2.5"/>
<feComposite in2="hardAlpha" operator="out"/>
<feColorMatrix type="matrix" values="0 0 0 0 0 0 0 0 0 0 0 0 0 0 0 0 0 0 0.15 0"/>
<feBlend mode="normal" in2="BackgroundImageFix" result="effect1_dropShadow_355:217"/>
<feBlend mode="normal" in="SourceGraphic" in2="effect1_dropShadow_355:217" result="shape"/>
</filter>
</defs>
</svg>
