<svg width="50" height="50" viewBox="0 0 50 50" fill="none" xmlns="http://www.w3.org/2000/svg">
<path d="M18.8618 39.8737L18.862 39.8739C19.4087 40.3269 20.0948 40.5772 20.8042 40.5829C21.2777 40.6067 21.7504 40.5209 22.1855 40.3322C22.6295 40.1396 23.022 39.8452 23.3311 39.4728C23.3315 39.4723 23.3319 39.4718 23.3324 39.4712L33.7474 26.9732L33.7474 26.9732L33.7517 26.968C34.2052 26.4163 34.4531 25.7243 34.4531 25.0101C34.4531 24.2978 34.2065 23.6075 33.7552 23.0565L23.7051 10.5719C23.4515 10.2386 23.1328 9.96049 22.7681 9.75443C22.3982 9.54537 21.989 9.41504 21.5663 9.37161C21.1436 9.32819 20.7165 9.3726 20.3118 9.50206C19.9142 9.62925 19.5466 9.83584 19.2313 10.1092C18.9223 10.3611 18.6651 10.6706 18.4739 11.0206C18.2791 11.3772 18.1567 11.7687 18.1137 12.1727C18.0707 12.5767 18.108 12.9852 18.2234 13.3748C18.3386 13.7635 18.5293 14.1257 18.7846 14.4406C18.7851 14.4413 18.7857 14.4419 18.7862 14.4426L27.2693 24.9876L18.4619 35.5251L18.4609 35.5262C18.2013 35.8378 18.0057 36.1975 17.8853 36.5848C17.7649 36.9721 17.7221 37.3793 17.7594 37.7831C17.7966 38.187 17.9131 38.5795 18.1023 38.9382C18.2915 39.297 18.5495 39.6149 18.8618 39.8737Z" fill="black" stroke="black" stroke-width="2"/>
</svg>
