<svg width="80" height="4" viewBox="0 0 80 4" fill="none" xmlns="http://www.w3.org/2000/svg">
<path fill-rule="evenodd" clip-rule="evenodd" d="M0 2C0 0.895431 0.895431 0 2 0H4.375C5.47957 0 6.375 0.895431 6.375 2C6.375 3.10457 5.47957 4 4.375 4H2C0.895431 4 0 3.10457 0 2ZM7.125 2C7.125 0.895431 8.02043 0 9.125 0H13.875C14.9796 0 15.875 0.895431 15.875 2C15.875 3.10457 14.9796 4 13.875 4H9.125C8.02043 4 7.125 3.10457 7.125 2ZM16.625 2C16.625 0.895431 17.5204 0 18.625 0H23.375C24.4796 0 25.375 0.895431 25.375 2C25.375 3.10457 24.4796 4 23.375 4H18.625C17.5204 4 16.625 3.10457 16.625 2ZM26.125 2C26.125 0.895431 27.0204 0 28.125 0H32.875C33.9796 0 34.875 0.895431 34.875 2C34.875 3.10457 33.9796 4 32.875 4H28.125C27.0204 4 26.125 3.10457 26.125 2ZM35.625 2C35.625 0.895431 36.5204 0 37.625 0H42.375C43.4796 0 44.375 0.895431 44.375 2C44.375 3.10457 43.4796 4 42.375 4H37.625C36.5204 4 35.625 3.10457 35.625 2ZM45.125 2C45.125 0.895431 46.0204 0 47.125 0H51.875C52.9796 0 53.875 0.895431 53.875 2C53.875 3.10457 52.9796 4 51.875 4H47.125C46.0204 4 45.125 3.10457 45.125 2ZM54.625 2C54.625 0.895431 55.5204 0 56.625 0H61.375C62.4796 0 63.375 0.895431 63.375 2C63.375 3.10457 62.4796 4 61.375 4H56.625C55.5204 4 54.625 3.10457 54.625 2ZM64.125 2C64.125 0.895431 65.0204 0 66.125 0H70.875C71.9796 0 72.875 0.895431 72.875 2C72.875 3.10457 71.9796 4 70.875 4H66.125C65.0204 4 64.125 3.10457 64.125 2ZM73.625 2C73.625 0.895431 74.5204 0 75.625 0H78C79.1046 0 80 0.895431 80 2C80 3.10457 79.1046 4 78 4H75.625C74.5204 4 73.625 3.10457 73.625 2Z" fill="black" fill-opacity="0.25"/>
</svg>
