<svg width="200" height="200" viewBox="0 0 200 200" fill="none" xmlns="http://www.w3.org/2000/svg">
<g opacity="0.5">
<path d="M84.7504 158.333C85.9953 158.338 87.2254 158.063 88.3503 157.529C89.4751 156.996 90.4661 156.217 91.2504 155.25L131.5 105.25C132.726 103.759 133.396 101.889 133.396 99.9583C133.396 98.0281 132.726 96.1578 131.5 94.6667L89.8337 44.6667C88.4192 42.9649 86.3866 41.8947 84.1831 41.6915C81.9795 41.4883 79.7855 42.1689 78.0837 43.5834C76.3819 44.9978 75.3117 47.0304 75.1086 49.234C74.9054 51.4375 75.5859 53.6315 77.0004 55.3333L114.25 100L78.2504 144.667C77.2314 145.89 76.5841 147.379 76.3851 148.959C76.1861 150.539 76.4437 152.142 77.1275 153.58C77.8113 155.018 78.8926 156.229 80.2436 157.072C81.5945 157.914 83.1584 158.352 84.7504 158.333Z" fill="black"/>
</g>
</svg>
