<svg width="880" height="878" viewBox="0 0 880 878" fill="none" xmlns="http://www.w3.org/2000/svg">
<path d="M186.806 558.145C173.927 558.145 161.337 554.335 150.628 547.196C139.919 540.056 131.572 529.909 126.643 518.037C121.715 506.165 120.425 493.101 122.938 480.498C125.45 467.894 131.652 456.318 140.76 447.231C149.867 438.145 161.47 431.957 174.102 429.45C186.734 426.943 199.828 428.229 211.727 433.147C223.626 438.064 233.796 446.392 240.952 457.077C248.107 467.761 251.926 480.323 251.926 493.173C251.926 510.405 245.065 526.931 232.853 539.115C220.641 551.3 204.077 558.145 186.806 558.145ZM186.806 431.222C174.511 431.218 162.491 434.853 152.266 441.666C142.041 448.479 134.07 458.164 129.362 469.497C124.655 480.829 123.421 493.3 125.818 505.333C128.214 517.365 134.133 528.418 142.826 537.093C151.519 545.769 162.596 551.678 174.655 554.072C186.714 556.467 199.214 555.24 210.573 550.546C221.933 545.852 231.643 537.903 238.474 527.703C245.306 517.503 248.952 505.511 248.952 493.244C248.933 476.803 242.38 461.041 230.73 449.414C219.08 437.787 203.284 431.245 186.806 431.222Z" fill="#EBEBEB"/>
<path d="M183.533 567.329C182.547 567.329 181.562 567.224 180.576 567.154L180.822 564.274C181.755 564.274 182.706 564.414 183.656 564.45L183.533 567.329ZM193.882 567.066L193.6 564.204C194.55 564.116 195.483 563.993 196.434 563.87L196.821 566.732C195.853 566.873 194.885 566.978 193.882 567.066ZM170.333 565.573C169.365 565.363 168.414 565.117 167.446 564.871L168.203 562.079C169.118 562.325 170.051 562.553 170.966 562.764L170.333 565.573ZM206.994 564.643L206.202 561.851C207.117 561.605 207.962 561.324 208.93 561.025L209.827 563.782L206.994 564.643ZM157.714 561.482C156.798 561.096 155.954 560.692 155.003 560.27L156.235 557.654C157.098 558.075 157.995 558.462 158.84 558.83L157.714 561.482ZM219.472 559.902L218.205 557.303C219.067 556.881 219.965 556.46 220.739 556.003L222.112 558.549C221.197 559.006 220.317 559.462 219.419 559.902H219.472ZM145.974 555.195C145.147 554.651 144.32 554.089 143.528 553.439L145.288 551.086C146.045 551.648 146.837 552.193 147.629 552.702L145.974 555.195ZM230.859 553.018L229.099 550.682L231.352 548.926L233.112 551.174C232.32 551.824 231.598 552.438 230.806 553.018H230.859ZM135.52 546.907C134.798 546.222 134.094 545.537 133.408 544.817L135.52 542.816C136.189 543.5 136.858 544.168 137.544 544.817L135.52 546.907ZM240.803 544.22L238.709 542.236C239.36 541.551 239.994 540.849 240.627 540.129L242.792 542.025C242.123 542.781 241.472 543.5 240.786 544.22H240.803ZM126.72 536.915C126.139 536.125 125.576 535.318 124.96 534.492L127.371 532.894C127.899 533.667 128.445 534.457 129.008 535.212L126.72 536.915ZM249.04 533.825L246.629 532.245C247.139 531.454 247.65 530.647 248.142 529.839L250.624 531.314C250.114 532.069 249.586 532.964 249.04 533.825ZM119.874 525.572C119.434 524.676 119.029 523.816 118.624 522.885L121.282 521.726C121.669 522.604 122.056 523.482 122.461 524.307L119.874 525.572ZM255.394 522.06L252.736 520.936C253.106 520.058 253.458 519.18 253.792 518.284L256.502 519.303C256.062 520.233 255.693 521.147 255.306 522.06H255.394ZM115.245 513.104C114.981 512.156 114.752 511.208 114.523 510.242L117.339 509.575C117.55 510.505 117.779 511.418 118.043 512.331L115.245 513.104ZM259.442 509.381L256.626 508.749C256.837 507.836 257.013 506.905 257.189 505.975L260.04 506.484C259.776 507.485 259.582 508.416 259.354 509.381H259.442ZM112.869 500.039C112.775 499.056 112.705 498.073 112.658 497.089L115.456 496.949C115.456 497.897 115.526 498.845 115.667 499.794L112.869 500.039ZM261.149 496.194L258.262 496.088C258.262 495.14 258.262 494.192 258.262 493.244V492.945H261.166V493.226C261.131 494.245 261.114 495.193 261.061 496.194H261.149ZM115.632 486.992L112.746 486.747C112.746 485.763 112.939 484.78 113.062 483.814L115.931 484.165C115.826 485.113 115.72 486.044 115.632 486.992ZM257.506 483.041C257.365 482.111 257.224 481.162 257.048 480.249L259.899 479.723C260.075 480.688 260.234 481.654 260.374 482.638L257.506 483.041ZM117.92 474.419L115.122 473.664C115.391 472.716 115.673 471.768 115.966 470.82L118.73 471.698C118.395 472.593 118.131 473.506 117.92 474.419ZM254.566 470.609C254.25 469.696 253.933 468.853 253.598 467.922L256.309 466.904C256.661 467.817 256.995 468.748 257.312 469.678L254.566 470.609ZM122.355 462.444L119.68 461.214C120.102 460.319 120.542 459.458 121.018 458.563L123.57 459.915C123.2 460.758 122.76 461.601 122.355 462.461V462.444ZM249.427 458.932C248.97 458.106 248.494 457.281 248.002 456.473L250.483 454.981C250.994 455.823 251.486 456.737 251.962 457.544L249.427 458.932ZM128.902 451.486L126.562 449.73C127.142 448.94 127.741 448.15 128.322 447.377L130.592 449.133C130.046 449.958 129.466 450.713 128.902 451.486ZM242.282 448.343C241.683 447.605 241.097 446.885 240.522 446.183L242.704 444.269C243.355 445.006 243.989 445.762 244.605 446.517L242.282 448.343ZM137.28 441.846L135.274 439.756C135.995 439.071 136.717 438.404 137.456 437.754L139.374 439.914C138.706 440.546 138.002 441.178 137.28 441.846ZM233.323 439.194C232.602 438.562 231.862 437.965 231.123 437.438L232.883 435.173C233.658 435.787 234.414 436.402 235.171 437.052L233.323 439.194ZM147.259 433.926L145.658 431.52L148.157 429.922L149.67 432.398C148.896 432.82 148.086 433.329 147.294 433.856L147.259 433.926ZM222.939 431.819L220.458 430.432L221.813 427.885C222.693 428.36 223.573 428.834 224.4 429.343L222.939 431.819ZM158.541 427.763L157.397 425.111C158.294 424.725 159.157 424.356 160.125 424.005L161.181 426.691C160.283 427.043 159.403 427.394 158.541 427.763ZM211.341 426.305C210.443 425.971 209.581 425.673 208.63 425.374L209.528 422.617C210.461 422.934 211.411 423.25 212.326 423.583L211.341 426.305ZM170.72 423.794L170.069 420.984C171.019 420.756 171.987 420.563 172.973 420.37L173.501 423.214C172.48 423.39 171.618 423.583 170.72 423.794ZM199.003 423.004C198.07 422.846 197.138 422.705 196.187 422.582L196.557 419.72C197.542 419.843 198.528 420.001 199.496 420.159L199.003 423.004ZM183.392 422.056L183.251 419.176C184.237 419.176 185.222 419.176 186.226 419.088V421.985C185.275 421.985 184.325 422.003 183.374 422.056H183.392Z" fill="#EBEBEB"/>
<path d="M176.827 533.386H196.874V503.218H227.11V483.217H196.874V453.049H176.827V483.217H146.59V503.218H176.827V533.386Z" fill="#EBEBEB"/>
<path d="M733.621 227.209C722.771 241.682 708.93 253.659 693.035 262.329C677.177 253.649 663.372 241.672 652.555 227.209C638.264 208.349 638.968 178.813 659.402 172.422C682 165.398 693.106 199.306 693.106 199.306C693.106 199.306 704.37 165.152 726.827 172.422C747.12 179.112 747.894 208.349 733.621 227.209Z" fill="#EBEBEB"/>
<path d="M677.107 247.421L670.947 221.836L666.917 230.862H642.048V227.964H665.051L671.757 212.88L676.562 232.828L683.355 191.492L689.357 224.189L694.091 210.545L701.554 232.899L703.208 227.964H744.075V230.844H705.302L701.554 242.012L694.038 219.518L688.477 235.533L683.514 208.402L677.107 247.421Z" fill="white"/>
<path d="M693.106 274.464C680.226 274.464 667.636 270.653 656.927 263.514C646.218 256.375 637.872 246.227 632.943 234.355C628.014 222.483 626.724 209.42 629.237 196.816C631.75 184.213 637.952 172.636 647.059 163.549C656.166 154.463 667.769 148.275 680.401 145.768C693.034 143.261 706.127 144.548 718.026 149.465C729.925 154.383 740.096 162.71 747.251 173.395C754.407 184.08 758.226 196.641 758.226 209.492C758.226 226.723 751.365 243.249 739.153 255.434C726.94 267.618 710.377 274.464 693.106 274.464ZM693.106 147.54C680.811 147.54 668.792 151.177 658.57 157.992C648.347 164.808 640.379 174.494 635.674 185.827C630.969 197.16 629.738 209.631 632.137 221.662C634.536 233.693 640.456 244.744 649.15 253.418C657.843 262.092 668.92 267.999 680.978 270.392C693.037 272.785 705.536 271.557 716.895 266.863C728.253 262.168 737.962 254.219 744.793 244.019C751.623 233.82 755.269 221.829 755.269 209.562C755.264 193.111 748.715 177.334 737.059 165.698C725.403 154.062 709.594 147.519 693.106 147.505V147.54Z" fill="#EBEBEB"/>
<path d="M689.92 283.648C688.934 283.648 687.949 283.543 686.963 283.455L687.209 280.575C688.142 280.663 689.093 280.715 690.061 280.768L689.92 283.648ZM700.286 283.385L700.005 280.505C700.955 280.417 701.905 280.311 702.838 280.189L703.225 283.051C702.24 283.174 701.184 283.297 700.198 283.385H700.286ZM676.72 281.892C675.752 281.681 674.802 281.435 673.851 281.19L674.59 278.397C675.506 278.643 676.438 278.872 677.371 279.082L676.72 281.892ZM713.381 280.944L712.589 278.169C713.504 277.906 714.349 277.642 715.317 277.344L716.214 280.101C715.193 280.399 714.243 280.68 713.293 280.961L713.381 280.944ZM664.101 277.8C663.185 277.414 662.341 277.01 661.39 276.589L662.622 273.972L665.227 275.149L664.101 277.8ZM725.877 276.202L724.609 273.604C725.454 273.2 726.37 272.761 727.126 272.322L728.499 274.85C727.496 275.324 726.616 275.781 725.736 276.202H725.877ZM652.362 271.496C651.534 270.952 650.725 270.39 649.915 269.74L651.675 267.387C652.45 267.949 653.224 268.476 654.016 269.003L652.362 271.496ZM737.246 269.319L735.486 267.001C736.261 266.439 737 265.86 737.739 265.245L739.499 267.51C738.69 268.142 737.915 268.669 737.105 269.319H737.246ZM641.942 263.226C641.221 262.541 640.517 261.838 639.83 261.136L641.925 259.134C642.582 259.801 643.251 260.469 643.931 261.136L641.942 263.226ZM747.225 260.539L745.131 258.537C745.782 257.852 746.416 257.15 747.049 256.447L749.232 258.344C748.44 259.081 747.771 259.889 747.085 260.539H747.225ZM633.16 253.234C632.579 252.426 632.016 251.636 631.4 250.811L633.794 249.195C634.322 249.985 634.867 250.758 635.43 251.531L633.16 253.234ZM755.497 250.108L753.069 248.528C753.579 247.72 754.089 246.93 754.582 246.105L757.064 247.597C756.413 248.44 755.885 249.353 755.357 250.108H755.497ZM626.314 241.838C625.874 240.96 625.469 240.082 625.082 239.168L627.722 238.009C628.109 238.87 628.496 239.765 628.918 240.591L626.314 241.838ZM761.833 238.326L759.176 237.202C759.545 236.341 759.897 235.446 760.232 234.568L762.942 235.586C762.361 236.534 762.08 237.465 761.605 238.361L761.833 238.326ZM621.702 229.388C621.438 228.439 621.192 227.473 620.963 226.525L623.779 225.858C623.99 226.789 624.237 227.702 624.483 228.615L621.702 229.388ZM765.6 225.7L762.766 225.068C762.977 224.137 763.171 223.206 763.329 222.276L766.181 222.785C766.075 223.768 765.881 224.769 765.6 225.7ZM619.01 216.34C618.916 215.369 618.845 214.385 618.798 213.39L621.685 213.25C621.685 214.198 621.808 215.146 621.896 216.077L619.01 216.34ZM767.36 212.477L764.456 212.372C764.456 211.424 764.456 210.475 764.456 209.527V209.229H767.36V209.51C767.36 210.546 767.36 211.529 767.36 212.477ZM621.914 203.276L619.045 203.03C619.045 202.047 619.221 201.063 619.344 200.08L622.23 200.449C622.125 201.414 622.019 202.363 621.931 203.311L621.914 203.276ZM763.84 199.36C763.717 198.412 763.558 197.481 763.382 196.55L766.233 196.024C766.409 196.989 766.568 197.973 766.709 198.938L763.84 199.36ZM624.219 190.738L621.421 189.983C621.685 189.017 621.966 188.086 622.266 187.138L625.029 188.016C624.8 188.912 624.43 189.825 624.184 190.738H624.219ZM760.901 186.927C760.601 186.032 760.267 185.171 759.933 184.258L762.643 183.222C762.995 184.159 763.329 185.089 763.646 186.014L760.901 186.927ZM628.69 178.762L626.085 177.515C626.507 176.62 626.965 175.759 627.422 174.881L629.974 176.233C629.499 177.059 629.077 177.919 628.654 178.762H628.69ZM755.761 175.25C755.304 174.407 754.829 173.599 754.336 172.792L756.817 171.299C757.328 172.124 757.821 173.055 758.296 173.845L755.761 175.25ZM635.254 167.787L632.896 166.031C633.483 165.223 634.069 164.433 634.656 163.66L636.926 165.416C636.346 166.259 635.765 167.032 635.219 167.787H635.254ZM748.616 164.661C748.017 163.924 747.401 163.204 746.768 162.484L748.95 160.587C749.601 161.325 750.235 162.062 750.851 162.835L748.616 164.661ZM643.65 158.147L641.643 156.075C642.365 155.39 643.086 154.722 643.826 154.073L645.709 156.285C645.005 156.865 644.301 157.497 643.614 158.147H643.65ZM739.693 155.495C738.971 154.88 738.232 154.283 737.493 153.739L739.253 151.474C740.027 152.088 740.784 152.721 741.541 153.37L739.693 155.495ZM653.646 150.227L652.027 147.839C652.854 147.277 653.682 146.75 654.526 146.241L656.04 148.717C655.195 149.138 654.386 149.648 653.611 150.157L653.646 150.227ZM729.326 148.137C728.517 147.663 727.69 147.189 726.845 146.75L728.2 144.204C729.08 144.661 729.96 145.152 730.787 145.644L729.326 148.137ZM664.928 144.151L663.784 141.5C664.676 141.113 665.591 140.745 666.53 140.393L667.568 143.08C666.582 143.344 665.72 143.712 664.84 144.081L664.928 144.151ZM717.728 142.676C716.83 142.36 715.968 142.044 715.035 141.763L715.915 139.006C716.865 139.305 717.798 139.621 718.731 139.972L717.728 142.676ZM677.072 140.183L676.421 137.356C677.371 137.145 678.339 136.934 679.325 136.759L679.853 139.586C678.85 139.691 677.917 139.902 677.002 140.112L677.072 140.183ZM705.355 139.393C704.422 139.234 703.49 139.094 702.539 138.971L702.909 136.109C703.894 136.232 704.88 136.372 705.848 136.548L705.355 139.393ZM689.744 138.444L689.621 135.547C690.589 135.547 691.574 135.547 692.578 135.547V138.427C691.574 138.304 690.624 138.321 689.673 138.374L689.744 138.444Z" fill="#EBEBEB"/>
<path d="M259.446 200.404C271.429 156.881 245.78 111.907 202.158 99.9513C158.536 87.9957 113.459 113.586 101.477 157.109C89.494 200.632 115.143 245.606 158.765 257.561C202.387 269.517 247.463 243.927 259.446 200.404Z" fill="#EBEBEB"/>
<path d="M213.724 252.811C253.697 236.551 272.891 191.039 256.594 151.157C240.298 111.275 194.682 92.1245 154.709 108.384C114.736 124.643 95.5423 170.155 111.839 210.038C128.135 249.92 173.751 269.07 213.724 252.811Z" fill="#DBDBDB"/>
<path d="M184.219 253.638C224.655 253.638 257.435 220.933 257.435 180.589C257.435 140.244 224.655 107.539 184.219 107.539C143.783 107.539 111.003 140.244 111.003 180.589C111.003 220.933 143.783 253.638 184.219 253.638Z" fill="white"/>
<path opacity="0.5" d="M255.798 165.064C222.358 185.223 167.64 218.289 137.016 236.411C128.359 229.128 121.51 219.944 117.005 209.579L218.24 115.896C227.719 120.859 235.993 127.832 242.482 136.327C248.971 144.821 253.516 154.63 255.798 165.064Z" fill="#EBEBEB"/>
<path opacity="0.5" d="M257.4 183.133C257.135 191.262 255.499 199.288 252.56 206.874L161.234 249.966C157.253 248.663 153.395 247.011 149.706 245.032C177.285 229.122 227.691 200.184 257.4 183.133Z" fill="#EBEBEB"/>
<path d="M184.923 112.842H183.515V123.922H184.923V112.842Z" fill="#C7C7C7"/>
<path d="M150.878 121.544L149.658 122.246L155.211 131.842L156.43 131.139L150.878 121.544Z" fill="#C7C7C7"/>
<path d="M125.757 146.084L125.053 147.301L134.671 152.841L135.375 151.624L125.757 146.084Z" fill="#C7C7C7"/>
<path d="M127.424 179.885H116.318V181.289H127.424V179.885Z" fill="#C7C7C7"/>
<path d="M134.673 208.311L125.055 213.852L125.759 215.068L135.377 209.528L134.673 208.311Z" fill="#C7C7C7"/>
<path d="M155.209 229.303L149.663 238.902L150.883 239.604L156.429 230.004L155.209 229.303Z" fill="#C7C7C7"/>
<path d="M184.923 237.271H183.515V248.351H184.923V237.271Z" fill="#C7C7C7"/>
<path d="M213.231 229.315L212.012 230.018L217.565 239.613L218.784 238.911L213.231 229.315Z" fill="#C7C7C7"/>
<path d="M234.587 207.366L233.883 208.588L243.545 214.128L244.249 212.906L234.587 207.366Z" fill="#C7C7C7"/>
<path d="M252.138 179.885H241.032V181.289H252.138V179.885Z" fill="#C7C7C7"/>
<path d="M242.69 146.116L233.072 151.656L233.776 152.873L243.394 147.333L242.69 146.116Z" fill="#C7C7C7"/>
<path d="M217.565 121.555L212.016 131.152L213.236 131.854L218.785 122.257L217.565 121.555Z" fill="#C7C7C7"/>
<path d="M185.293 117.846L187.704 185.522L180.752 185.434L183.41 117.828L185.293 117.846Z" fill="#C7C7C7"/>
<path d="M227.533 156.987L181.914 186.048L178.587 179.955L226.635 155.336L227.533 156.987Z" fill="#A6A6A6"/>
<path d="M186.56 180.587C186.56 181.056 186.421 181.514 186.16 181.904C185.898 182.294 185.527 182.598 185.093 182.777C184.659 182.957 184.181 183.004 183.72 182.912C183.26 182.821 182.836 182.595 182.504 182.263C182.172 181.932 181.945 181.51 181.854 181.05C181.762 180.59 181.809 180.113 181.989 179.68C182.169 179.247 182.473 178.877 182.864 178.616C183.255 178.356 183.714 178.217 184.184 178.217C184.814 178.217 185.418 178.467 185.864 178.911C186.31 179.356 186.56 179.959 186.56 180.587Z" fill="#C7C7C7"/>
<path d="M145.358 574.318L122.267 574.792L110.546 575.002C106.621 575.002 102.678 575.002 98.7536 575.09H97.9792V574.318L97.8736 554.669V553.773H98.7536L122.056 553.879C129.835 553.879 137.597 554.072 145.358 554.16H145.851V554.634C145.851 557.953 145.693 561.271 145.622 564.555L145.358 574.318ZM145.358 574.318L145.112 564.379C145.112 561.113 144.918 557.882 144.883 554.669L145.358 555.143C137.597 555.231 129.835 555.424 122.056 555.424L98.7536 555.547L99.6336 554.669V574.318L98.8416 573.527C102.678 573.527 106.515 573.527 110.37 573.615L121.95 573.826L145.358 574.318Z" fill="#EBEBEB"/>
<path d="M119.363 599.094L96.272 599.568L84.5504 599.779C80.6256 599.779 76.6832 599.779 72.7584 599.867H71.984V599.094L71.8784 579.48V578.584H72.7584L96.0608 578.689C103.822 578.689 111.602 578.883 119.363 578.97H119.856V579.48C119.856 582.798 119.715 586.117 119.627 589.401L119.363 599.094ZM119.363 599.094L119.117 589.155C119.029 585.889 118.923 582.658 118.888 579.444L119.363 579.919C111.602 580.006 103.822 580.2 96.0608 580.2L72.7584 580.305L73.6384 579.444L73.5504 599.094L72.7584 598.304C76.5952 598.304 80.432 598.304 84.2864 598.304L95.8672 598.515L119.363 599.094Z" fill="#EBEBEB"/>
<path d="M595.936 355.572L572.827 356.063L561.105 356.256C557.198 356.344 553.256 356.256 549.331 356.362H548.557V355.572L548.469 335.923V335.045H549.349L572.651 335.168C580.413 335.168 588.192 335.361 595.953 335.449H596.446V335.923C596.446 339.259 596.306 342.578 596.218 345.861L595.936 355.572ZM595.936 355.572L595.69 345.651C595.69 342.385 595.496 339.136 595.461 335.923L595.936 336.415C588.174 336.415 580.395 336.678 572.633 336.695L549.331 336.801L550.211 335.923L550.105 355.572L549.331 354.799C553.168 354.799 557.005 354.799 560.841 354.799L572.422 354.992L595.936 355.572Z" fill="#EBEBEB"/>
<path d="M569.941 380.349L546.832 380.841L535.04 381.051C531.133 381.051 527.19 381.051 523.265 381.157H522.473V380.366V360.718V359.84H523.353L546.656 359.963C554.418 359.963 562.179 360.156 569.958 360.244H570.434V360.718C570.434 364.054 570.275 367.373 570.205 370.656L569.941 380.349ZM569.941 380.349L569.694 370.428C569.606 367.162 569.483 363.914 569.448 360.7L569.941 361.192C562.162 361.28 554.4 361.455 546.638 361.473L523.336 361.578L524.216 360.7L524.11 380.349L523.336 379.576C527.173 379.576 531.01 379.576 534.846 379.664L546.427 379.857L569.941 380.349Z" fill="#EBEBEB"/>
<path d="M544.034 355.572L520.942 356.063L509.221 356.256C505.296 356.344 501.371 356.256 497.429 356.362H496.654V355.572L496.549 335.923V335.045H497.429L520.731 335.168C528.51 335.168 536.272 335.361 544.034 335.449H544.527V335.923C544.527 339.259 544.368 342.578 544.298 345.861L544.034 355.572ZM544.034 355.572L543.787 345.651C543.787 342.385 543.594 339.136 543.558 335.923L544.034 336.415C536.272 336.415 528.51 336.678 520.731 336.695L497.429 336.801L498.309 335.923L498.221 355.572L497.429 354.799C501.283 354.799 505.102 354.799 508.957 354.799L520.538 354.992L544.034 355.572Z" fill="#EBEBEB"/>
<path d="M807.241 599.094L784.133 599.568L772.411 599.779C768.504 599.779 764.562 599.779 760.637 599.867H759.845V599.094L759.757 579.48V578.584H760.637L783.939 578.689C791.701 578.689 799.48 578.883 807.241 578.97H807.717V579.48C807.717 582.798 807.576 586.117 807.488 589.401L807.241 599.094ZM807.241 599.094L806.995 589.155C806.995 585.889 806.784 582.658 806.766 579.444L807.241 579.919C799.48 580.006 791.701 580.2 783.939 580.2L760.637 580.305L761.517 579.444L761.411 599.094L760.637 598.304C764.474 598.304 768.31 598.304 772.147 598.304L783.728 598.515L807.241 599.094Z" fill="#EBEBEB"/>
<path d="M781.246 118.512L758.137 118.986L746.416 119.197C742.509 119.197 738.566 119.197 734.642 119.285H733.92V118.494V98.8448V97.9492H734.818L758.12 98.0546C765.881 98.0546 773.643 98.2477 781.422 98.3355H781.897V98.8097C781.897 102.146 781.739 105.447 781.669 108.731L781.246 118.512ZM781.246 118.512L781 108.573C780.912 105.307 780.789 102.076 780.753 98.8623L781.246 99.3365C773.467 99.3365 765.705 99.6174 757.944 99.6174L734.642 99.7403L735.522 98.8623L735.416 118.512L734.642 117.722C738.478 117.722 742.298 117.722 746.152 117.827L757.733 118.02L781.246 118.512Z" fill="#EBEBEB"/>
<path d="M807.241 143.291L784.133 143.765L772.411 143.976C768.504 143.976 764.562 143.976 760.637 144.064H759.845V143.291L759.757 123.642V122.746H760.637L783.939 122.851C791.701 122.851 799.48 123.045 807.241 123.132H807.717V123.607C807.717 126.925 807.576 130.244 807.488 133.528L807.241 143.291ZM807.241 143.291L806.995 133.352C806.995 130.086 806.784 126.855 806.766 123.642L807.241 124.116C799.48 124.116 791.701 124.397 783.939 124.397L760.637 124.52L761.517 123.642L761.411 143.291L760.637 142.501C764.474 142.501 768.31 142.501 772.147 142.606L783.728 142.8L807.241 143.291Z" fill="#EBEBEB"/>
<path d="M145.358 118.512L122.267 118.986L110.546 119.197C106.621 119.197 102.678 119.197 98.7536 119.285H97.9792V118.494L97.8736 98.8624V97.9668H98.7536L122.056 98.0722C129.835 98.0722 137.597 98.2653 145.358 98.3531H145.851V98.8272C145.851 102.164 145.693 105.465 145.622 108.749L145.358 118.512ZM145.358 118.512L145.112 108.573C145.112 105.307 144.918 102.076 144.883 98.8624L145.358 99.3365C137.597 99.3365 129.835 99.6174 122.056 99.6174L98.7536 99.7404L99.6336 98.8624V118.512L98.7536 117.652C102.59 117.652 106.427 117.652 110.282 117.757L121.862 117.95L145.358 118.512Z" fill="#EBEBEB"/>
<path d="M440 804.302C632.47 804.302 788.498 786.282 788.498 764.054C788.498 741.826 632.47 723.807 440 723.807C247.53 723.807 91.5024 741.826 91.5024 764.054C91.5024 786.282 247.53 804.302 440 804.302Z" fill="#EBEBEB"/>
<path d="M192.931 386.705H170.72V362.876H146.89V340.786H170.72V316.939H192.861V340.786H216.744V362.876H192.931V386.705ZM173.941 383.562H189.781V359.733H213.664V343.929H189.781V320.083H173.941V343.929H150.04V359.733H173.941V383.562Z" fill="#FFC727"/>
<path d="M729.784 544.219H707.626V520.39H683.742V498.3H707.626V474.453H729.784V498.3H753.667V520.39H729.784V544.219ZM710.794 541.076H726.634V517.247H750.517V501.443H726.634V477.631H710.794V501.478H686.893V517.282H710.794V541.076Z" fill="#FFC727"/>
<path d="M613.431 138.003V160.093H589.547V183.94H567.406V160.093H543.506V138.003H567.406V114.174H589.547V138.003H613.431Z" fill="#FFC727"/>
<path d="M399.714 142.553C404.307 142.412 423.544 137.021 439.454 152.703C454.52 167.541 467.069 218.008 471.486 228.737C475.904 239.466 490.846 238.817 496.32 251.109C501.072 261.768 493.61 267.159 494.067 275.447C494.437 281.891 502.357 290.373 498.062 300.663C494.173 310.023 484.616 309.706 479.442 313.271C474.267 316.836 472.859 330.304 463.056 335.449C453.253 340.595 442.605 332.622 437.114 333.553C431.622 334.484 427.803 352.342 409.64 353.729C391.477 355.117 383.874 340.805 375.989 338.997C368.104 337.188 350.346 345.318 340.384 337.434C330.422 329.549 326.99 317.468 322.432 313.552C317.874 309.636 310.007 311.621 303.583 301.875C297.159 292.129 305.853 283.911 305.783 274.586C305.783 268.089 299.147 263.155 301.558 252.83C304.885 238.641 321.675 238.887 325.723 224.207C328.891 212.705 331.514 164.503 357.931 148.435C376.235 137.46 399.714 142.553 399.714 142.553Z" fill="#263238"/>
<path d="M470.519 226.139C471.977 228.337 473.953 230.146 476.274 231.407L482.909 235.498C487.395 237.931 491.47 241.054 494.983 244.752C496.617 246.517 497.821 248.635 498.499 250.941C499.177 253.248 499.31 255.679 498.89 258.045C498.325 260.445 497.393 262.743 496.127 264.858C494.655 267.181 493.534 269.708 492.8 272.357C492.554 275.273 493.285 278.188 494.877 280.645C496.091 282.998 497.394 285.211 498.485 287.493C500.685 291.989 501.864 296.958 500.245 301.541C499.534 303.818 498.078 305.791 496.109 307.143C494.004 308.473 491.661 309.385 489.21 309.83C486.711 310.409 484.141 310.743 481.554 311.182C478.917 311.404 476.408 312.413 474.355 314.079C476.544 312.708 479.075 311.978 481.659 311.972C484.247 311.744 486.851 311.638 489.474 311.252C492.167 310.915 494.767 310.056 497.13 308.723C499.555 307.232 501.413 304.977 502.41 302.314C504.645 297.046 503.131 291.04 500.914 286.317C499.822 283.894 498.52 281.593 497.394 279.293C496.125 277.371 495.508 275.093 495.634 272.796C496.514 268.476 500.544 264.016 501.459 258.502C501.941 255.741 501.75 252.905 500.901 250.234C500.053 247.562 498.572 245.134 496.584 243.154C492.742 239.492 488.339 236.463 483.543 234.181L476.503 230.669C474.202 229.61 472.161 228.064 470.519 226.139Z" fill="#263238"/>
<path d="M336.16 178.988C332.534 187.61 330.88 196.864 328.381 205.75C327.114 210.192 326.005 214.688 324.421 218.972C323.71 221.07 322.772 223.084 321.622 224.978C321.39 225.417 321.087 225.814 320.725 226.154C320.405 226.539 320.031 226.876 319.616 227.155C318.736 227.823 317.856 228.437 316.818 229.034C312.793 231.46 308.892 234.085 305.131 236.901C301.154 239.833 298.189 243.926 296.648 248.614C295.93 251.015 295.833 253.558 296.366 256.006C297.012 258.355 298.099 260.56 299.57 262.504C302.368 266.244 305.043 270.002 305.923 274.655C305.747 269.914 303.142 265.629 300.784 261.713C299.555 259.859 298.684 257.793 298.214 255.62C297.88 253.488 298.098 251.305 298.848 249.281C300.458 245.162 303.226 241.594 306.821 239.008C310.563 236.319 314.44 233.823 318.437 231.528C319.422 230.878 320.408 230.211 321.376 229.456C322.382 228.649 323.219 227.653 323.84 226.523C325.076 224.428 326.074 222.202 326.814 219.886C328.304 215.434 329.515 210.895 330.44 206.294L333.115 192.597C333.863 188.005 334.879 183.461 336.16 178.988Z" fill="#263238"/>
<path d="M317.61 311.199C319.986 313.517 320.795 316.906 322.045 319.979C323.294 323.052 324.456 326.195 325.829 329.268C327.163 332.403 328.827 335.387 330.792 338.171C332.807 341.113 335.506 343.523 338.659 345.195C345.576 348.198 352.933 346.53 359.181 344.335C362.366 343.211 365.429 341.929 368.562 340.823C371.611 339.564 374.917 339.046 378.206 339.313C374.906 338.465 371.439 338.501 368.157 339.418C364.866 340.191 361.698 341.174 358.494 342.087C352.264 343.843 345.47 344.95 339.926 342.438C337.191 340.974 334.835 338.894 333.045 336.363C331.101 333.761 329.37 331.007 327.87 328.127C326.286 325.23 324.861 322.244 323.365 319.347C322.59 317.854 321.798 316.379 320.936 314.94C320.164 313.431 319.019 312.143 317.61 311.199Z" fill="#263238"/>
<path d="M490.424 713.095H337.973L328.909 524.957H465.133L490.424 713.095Z" fill="#37474F"/>
<path d="M422.47 524.957L406.366 652.372L406.349 652.566L405.997 655.217L405.346 660.432L404.606 666.245L404.342 668.317L404.131 669.985L398.693 713.095H337.973L328.909 524.957H422.47Z" fill="#263238"/>
<path d="M459.466 713.095H455.435C455.224 711.427 455.03 709.777 454.819 708.108C449.398 664.208 444.136 620.308 439.56 576.408C439.138 572.387 438.715 568.348 438.31 564.327C438.31 563.695 439.331 563.572 439.419 564.204C439.789 566.908 440.176 569.613 440.528 572.317C447.04 619.202 453.235 666.158 459.466 713.095Z" fill="#263238"/>
<path d="M451.299 524.816C451.305 524.863 451.305 524.91 451.299 524.957C450.894 526.836 446.442 547.451 440.563 572.369C440.246 573.721 439.93 575.091 439.595 576.46C436.99 587.33 434.157 598.832 431.288 609.824C425.093 633.688 418.739 655.076 414.41 662.118C413.938 662.99 413.284 663.751 412.491 664.348C411.083 665.173 408.091 666.648 404.378 668.387L401.914 669.528L399.802 670.494C391.354 674.357 381.198 678.782 376.499 680.732V681.1L374.862 713.13H231.264L246.47 621.818L264.827 524.904L451.299 524.816Z" fill="#37474F"/>
<path d="M424.899 658.08C408.193 664.147 392.046 671.65 376.64 680.504C376.522 680.572 376.434 680.682 376.394 680.811C376.353 680.941 376.362 681.081 376.419 681.204C376.476 681.327 376.578 681.425 376.703 681.477C376.829 681.529 376.969 681.533 377.098 681.487C393.342 674.463 409.922 667.861 425.762 660.011C426.018 659.897 426.219 659.686 426.32 659.424C426.42 659.162 426.413 658.871 426.298 658.615C426.184 658.359 425.972 658.159 425.71 658.058C425.448 657.958 425.156 657.966 424.899 658.08Z" fill="#263238"/>
<path d="M429.792 547.029C429.792 546.467 428.771 546.344 428.771 547.029C428.894 566.345 427.662 583.203 426.043 601.202C425.286 609.543 418.563 655.638 404.043 652.337C401.614 651.775 400.365 649.387 399.995 645.734C399.538 641.327 401.192 635.953 401.914 631.581C403.533 621.923 404.818 612.265 405.645 602.466C407.344 584.297 407.149 566.001 405.064 547.872C405.043 547.764 404.985 547.667 404.9 547.597C404.815 547.527 404.708 547.489 404.598 547.489C404.487 547.489 404.381 547.527 404.296 547.597C404.21 547.667 404.152 547.764 404.131 547.872C404.131 573.088 403.48 598.252 399.714 623.24C397.954 635.233 391.829 653.303 404.413 655.164C416.997 657.025 425.533 626.769 427.082 618.481C431.446 595.284 431.622 570.419 429.792 547.029Z" fill="#263238"/>
<path d="M404.43 653.513C403.13 656.621 402.036 659.812 401.157 663.065C400.231 665.583 399.772 668.249 399.802 670.931C399.802 671.441 400.541 671.493 400.805 671.142C402.316 668.783 403.456 666.207 404.184 663.504C405.293 660.536 406.455 657.604 407.475 654.619C407.622 654.216 407.603 653.771 407.421 653.383C407.24 652.994 406.911 652.693 406.507 652.547C406.104 652.4 405.658 652.419 405.268 652.601C404.879 652.782 404.578 653.11 404.43 653.513Z" fill="#263238"/>
<path d="M297.018 663.103C295.574 679.785 293.867 696.467 292.072 713.096H290.506C292.266 696.414 294.272 679.732 296.437 663.085C296.49 662.716 297.053 662.716 297.018 663.103Z" fill="#263238"/>
<path d="M395.56 356.573C408.707 399.35 465.608 552.139 503.765 575.424C528.739 590.648 654.174 599.305 678.304 588.137C691.698 581.921 687.526 480.846 671.739 480.284C652.045 479.581 555.227 476.982 544.509 471.872C533.79 466.762 461.472 370.27 433.91 341.033C386.408 290.6 386.795 328.091 395.56 356.573Z" fill="#FFC4C0"/>
<path d="M641.731 472.697L623.85 596.32C623.85 596.32 521.981 599.305 494.208 576.635C454.626 544.36 397.866 381.052 391.424 355.502C376.165 294.92 410.168 305.034 436.92 334.43C454.291 353.57 522.632 451.485 547.941 469.519C555.122 474.699 641.731 472.697 641.731 472.697Z" fill="#EBEBEB"/>
<path d="M598.752 590.262C600.846 571.912 612.163 497.194 615.701 481.162C615.947 480.055 616.722 479.932 616.616 481.162C611.67 536.282 602.536 572.474 599.491 590.35C599.403 590.771 598.699 590.736 598.752 590.262Z" fill="#263238"/>
<path d="M465.186 479.055L482.205 595.829C482.205 595.829 291.456 598.639 244.094 595.32C244.094 595.32 282.726 376.996 333.643 321.823C359.11 294.236 389.013 296.308 408.074 315.589C412.896 320.471 470.431 396.365 476.485 425.321C481.765 450.889 465.186 479.055 465.186 479.055Z" fill="#FFC727"/>
<path d="M390.861 466.025C401.031 465.109 411.255 464.939 421.45 465.516C426.501 465.884 431.517 466.464 436.533 467.166C439.032 467.517 441.549 467.781 444.048 468.027C446.678 468.352 449.338 468.352 451.968 468.027C452.197 468.027 452.25 468.343 451.968 468.395C449.532 468.951 447.063 469.35 444.576 469.589C442.162 469.756 439.739 469.756 437.325 469.589C432.186 469.273 427.064 468.729 421.925 468.36C411.576 467.623 401.227 466.868 390.843 466.885C390.403 466.885 390.386 466.078 390.861 466.025Z" fill="#263238"/>
<path d="M367.84 479.388C375.941 477.035 384.167 475.136 392.48 473.699C396.634 472.997 400.805 472.54 405.011 472.189C407 472.031 409.024 471.89 411.03 471.785C413.037 471.68 415.466 471.785 417.666 471.785C417.894 471.785 417.965 472.119 417.666 472.154C415.589 472.347 413.53 472.891 411.47 473.225L405.24 474.173C401.104 474.823 396.968 475.525 392.797 476.14C384.49 477.351 376.218 478.651 367.946 480.161C367.418 480.108 367.347 479.476 367.84 479.388Z" fill="#263238"/>
<path d="M366.749 713.095H216.251C233.851 602.783 254.971 489.802 275.299 432.943C319.053 310.356 354.763 305.668 354.763 305.668V305.808C354.957 310.989 360.043 449.941 363.95 596.9C365.006 635.849 365.974 675.359 366.749 713.095Z" fill="#EBEBEB"/>
<path d="M341.898 647.263C341.898 642.978 340.947 622.678 340.56 618.587C340.56 618.113 340.384 617.165 339.997 617.165C334.382 617.165 314.899 619.149 295.275 619.149C281.243 618.886 267.238 617.795 253.334 615.883C252.683 616.076 252.683 638.377 252.331 649.159C251.627 671.653 252.666 697.098 257.47 701.839C266.446 710.619 290.365 709.864 297.95 709.794C305.536 709.723 332.27 709.706 338.554 695.939C341.229 689.775 341.968 658.378 341.898 647.263ZM338.378 670.091C338.061 681.188 337.709 691.162 333.432 697.01C329.771 701.944 319.44 706.914 295.662 706.896C278.485 706.896 263.982 703.753 260.022 699.187C255.27 693.726 254.742 678.028 254.742 668.651C254.742 655.709 254.742 645.366 254.742 632.442C287.954 640.133 324.491 636.34 338.342 633.548C338.395 634.093 338.694 661.398 338.43 670.091H338.378ZM338.466 631.459C295.328 636.99 268.629 632.372 254.795 629.703C254.795 625.558 254.795 622.327 254.795 618.166C260.726 619.658 280.685 622.029 295.645 622.029C309.566 622.029 330.018 620.097 338.694 619.061C338.448 622.468 338.624 629.878 338.518 631.441L338.466 631.459Z" fill="#DBDBDB"/>
<path d="M350.24 363.299C341.774 398.261 298.232 522.621 287.408 533.403C274.507 546.257 218.258 585.784 198.651 533.157C185.064 496.72 277.394 368.988 321.024 327.705C342.32 307.669 364.408 304.719 350.24 363.299Z" fill="#EBEBEB"/>
<path d="M335.35 427.007C332.71 431.871 329.806 436.594 326.955 441.336C327.624 439.58 328.275 437.824 328.909 436.068C331.654 428.499 334.189 420.843 336.987 413.24C337.093 412.994 336.706 412.906 336.6 413.134C333.661 419.719 330.546 426.252 327.677 432.889C324.808 439.527 322.397 445.919 319.792 452.504C314.67 465.762 309.478 479.002 304.726 492.4C301.914 499.804 299.505 507.354 297.51 515.018C297.51 515.228 297.774 515.386 297.88 515.176C301.03 508.836 303.512 502.164 306.046 495.561C308.581 488.958 311.115 482.426 313.579 475.824C316.043 469.221 318.666 462.39 321.27 455.7C322.573 452.328 323.928 448.992 325.248 445.638C329.29 439.783 332.728 433.535 335.509 426.989C335.544 426.989 335.386 426.919 335.35 427.007Z" fill="#263238"/>
<path d="M353.179 305.824C348.486 315.705 343.933 325.655 339.522 335.676C335.122 345.685 330.581 355.624 326.322 365.704L325.794 366.968L326.938 367.741L345.4 380.191L344.96 377.539C339.944 385.02 335.086 392.588 330.194 400.139L329.718 400.876L329.982 401.684C334.928 416.979 339.698 432.326 344.89 447.551C350.082 462.775 355.168 478.018 360.624 493.207C356.435 477.661 352.047 462.19 347.459 446.796C343.024 431.343 338.166 416.031 333.485 400.648L333.274 402.193C338.237 394.695 343.235 387.215 348.093 379.629L349.096 378.048L347.565 377.048L328.874 364.931L329.507 366.968C333.696 356.871 337.568 346.651 341.616 336.502C345.664 326.352 349.413 316.079 353.179 305.824Z" fill="#DBDBDB"/>
<path d="M500.597 713.094H446.248C443.027 675.112 439.718 635.409 436.445 596.373C431.781 540.585 427.17 486.149 422.875 439.966C419.038 396.989 412.257 354.323 402.582 312.27C402.336 311.198 402.178 310.514 402.142 310.426C402.107 310.338 402.142 310.426 402.142 310.426C404.316 311.776 406.259 313.466 407.898 315.43C407.952 315.493 408.011 315.552 408.074 315.606L408.654 316.256C408.811 316.411 408.958 316.575 409.094 316.747C418.44 326.985 434.069 347.916 447.973 369.427C461.384 390.148 473.211 411.378 476.133 423.986L476.291 424.689C476.379 425.093 476.45 425.479 476.52 425.865C477.095 429.208 477.418 432.589 477.488 435.98C477.618 449.835 474.027 463.471 467.086 475.472C467.041 475.575 466.988 475.675 466.928 475.771C466.47 476.543 466.189 476.947 466.189 476.947V477.14L484 598.796L500.597 713.094Z" fill="#EBEBEB"/>
<path d="M457.706 387.234C452.426 378.77 446.917 370.394 441.69 361.859C441.531 361.614 441.918 361.333 442.094 361.561C447.374 368.585 452.654 375.609 457.776 382.756C456.016 378.945 454.414 375.117 452.883 371.219C452.707 370.78 453.323 370.411 453.534 370.85C455.91 375.855 458.04 380.947 460.152 386.075C464.749 392.432 468.822 399.15 472.331 406.163C479.6 421.072 482.733 437.367 478.79 453.663C477.722 458.165 476.127 462.527 474.038 466.657C472.63 469.467 468.037 475.578 468.072 475.754C471.064 492.4 473.352 509.24 475.658 525.993C477.963 542.745 480.445 559.884 482.434 576.917C483.542 586.54 484.194 596.233 485.672 605.838C485.672 606.189 485.179 606.33 485.126 605.979C483.912 597.62 482.099 589.349 480.603 581.026C479.107 572.702 477.717 564.379 476.362 556.02C473.651 539.163 471.222 522.235 468.776 505.325C467.403 495.772 465.89 486.202 464.798 476.596C464.675 475.543 469.005 468.73 470.29 466.06C472.001 462.524 473.402 458.846 474.478 455.068C476.681 447.388 477.363 439.354 476.485 431.415C474.637 415.224 466.224 400.808 457.706 387.234Z" fill="#263238"/>
<path d="M402.582 312.27C408.191 320.769 413.899 329.192 419.707 337.538C425.55 345.862 431.253 354.291 437.202 362.526L437.325 360.56L423.034 375.503L421.854 376.732L423.104 377.944C429.123 383.756 435.248 389.463 441.355 395.188L440.845 393.713C438.627 409.201 436.251 424.654 434.28 440.177C432.309 455.7 430.214 471.205 428.507 486.763C431.464 471.381 434.157 455.981 436.744 440.545C439.331 425.11 441.742 409.657 444.206 394.222L444.347 393.344L443.696 392.729C437.659 386.935 431.622 381.122 425.498 375.433V377.874L439.578 362.667L440.458 361.719L439.701 360.7C433.699 352.5 427.381 344.475 421.326 336.344C415.272 328.214 408.936 320.242 402.582 312.27Z" fill="#DBDBDB"/>
<path d="M333.872 332.007C332.446 311.233 357.667 302.98 373.261 300.838C391.723 298.309 404.026 299.837 412.914 317.713C422.277 336.555 427.187 358.417 430.866 379.05C431.552 382.896 437.571 381.93 436.885 378.067C432.643 354.308 426.554 309.969 402.829 297.08C380.987 285.192 325.389 297.782 327.853 332.973C328.117 336.889 334.136 335.888 333.872 332.007Z" fill="#455A64"/>
<path d="M449.539 387.672C450.002 390.419 449.635 393.241 448.486 395.78C447.337 398.319 445.457 400.459 443.086 401.93C440.715 403.4 437.959 404.134 435.169 404.038C432.378 403.942 429.68 403.02 427.415 401.391C425.151 399.761 423.424 397.496 422.453 394.884C421.482 392.273 421.311 389.432 421.962 386.723C422.612 384.014 424.056 381.56 426.108 379.671C428.161 377.783 430.729 376.546 433.488 376.117C435.302 375.824 437.157 375.89 438.946 376.312C440.735 376.734 442.422 377.504 443.913 378.577C445.404 379.65 446.668 381.005 447.633 382.566C448.598 384.126 449.246 385.861 449.539 387.672Z" fill="#263238"/>
<path d="M444.03 388.567C444.284 390.209 444.045 391.89 443.342 393.396C442.64 394.903 441.506 396.168 440.084 397.032C438.661 397.897 437.014 398.321 435.35 398.253C433.686 398.184 432.08 397.625 430.734 396.647C429.388 395.668 428.363 394.314 427.787 392.755C427.212 391.196 427.112 389.501 427.501 387.886C427.89 386.27 428.749 384.806 429.972 383.677C431.194 382.548 432.724 381.806 434.368 381.544C435.465 381.366 436.587 381.408 437.668 381.665C438.75 381.923 439.769 382.392 440.667 383.045C441.566 383.698 442.326 384.523 442.903 385.47C443.48 386.418 443.863 387.471 444.03 388.567Z" fill="#EBEBEB"/>
<path d="M355.045 397.084C370.445 455.436 368.069 469.695 363.211 476.402C359.55 481.095 354.852 484.881 349.483 487.465L347.723 483.62L348.603 485.534L347.723 483.62C352.413 481.321 356.531 478.01 359.779 473.927C363.299 469.08 366.186 455.945 350.979 398.155L355.045 397.084Z" fill="#C7C7C7"/>
<path d="M340.209 487.161L342.699 491.647C343.222 492.588 344.411 492.929 345.355 492.407L354.808 487.183C355.752 486.662 356.093 485.476 355.57 484.534L353.08 480.049C352.558 479.107 351.369 478.767 350.425 479.288L340.972 484.512C340.028 485.033 339.687 486.22 340.209 487.161Z" fill="#263238"/>
<path d="M316.8 398.612C305.202 442.512 302.403 466.675 308 474.384C311.247 478.463 315.366 481.769 320.056 484.059L318.296 487.922C312.928 485.338 308.23 481.552 304.568 476.86C297.915 467.693 300.274 444.707 312.717 397.541L316.8 398.612Z" fill="#C7C7C7"/>
<path d="M314.738 480.491L312.251 484.978C311.729 485.92 312.071 487.106 313.016 487.627L322.472 492.844C323.417 493.365 324.605 493.023 325.127 492.081L327.614 487.594C328.136 486.652 327.794 485.466 326.85 484.946L317.393 479.728C316.449 479.207 315.26 479.549 314.738 480.491Z" fill="#263238"/>
<path d="M311.291 395.628C313.227 385.894 315.76 376.288 318.877 366.865C320.722 362.705 323.651 359.115 327.36 356.469C328.205 356.381 327.835 348.971 327.36 342.93C326.973 337.662 326.41 331.376 327.694 329.655C328.436 328.86 329.459 328.383 330.547 328.328C331.634 328.272 332.701 328.641 333.52 329.357C334.981 330.919 335.069 337.171 335.28 342.527C335.491 348.585 335.914 355.977 336.758 355.977C340.51 358.405 343.62 361.7 345.822 365.583C349.925 374.883 353.314 384.481 355.96 394.293C357.315 400.545 355.256 401.317 353.461 401.95C350.926 402.81 349.307 401.072 347.318 394.153C344.15 383.195 340.155 364.74 332.499 364.793C324.914 365.565 321.834 385.11 319.405 396.014C317.874 402.845 316.43 403.495 313.808 402.898C311.978 402.459 310.094 401.686 311.291 395.628Z" fill="#263238"/>
<path d="M403.832 306.932C403.832 306.932 405.592 340.77 399.326 341.332C380.336 343.088 359.216 317.029 358.054 312.903C357.755 311.849 359.286 285.579 360.536 265.157C361.328 252.022 362.014 241.311 362.014 241.311L410.538 269.055L404.29 304.404L403.832 306.932Z" fill="#FFC4C0"/>
<path d="M410.538 269.055L404.29 304.404C394.643 301.295 385.76 296.194 378.222 289.432C370.683 282.669 364.657 274.398 360.536 265.157C361.328 252.022 362.014 241.311 362.014 241.311L368.122 244.542L410.538 269.055Z" fill="#263238"/>
<path d="M460.486 212.758C470.606 274.955 434.403 288.02 420.957 290.18C408.76 292.147 366.96 297.292 350.451 236.464C333.942 175.636 359.726 151.298 387.411 145.327C415.096 139.357 450.366 150.56 460.486 212.758Z" fill="#FFC4C0"/>
<path d="M445.28 205.084C443.823 204.994 442.371 204.824 440.933 204.575C439.386 204.61 437.87 204.135 436.621 203.223C436.286 202.86 436.08 202.396 436.035 201.904C435.991 201.412 436.11 200.919 436.374 200.502C437.021 199.771 437.85 199.223 438.778 198.915C439.705 198.606 440.697 198.548 441.654 198.746C443.689 198.841 445.613 199.701 447.04 201.151C447.332 201.494 447.521 201.913 447.585 202.359C447.649 202.805 447.585 203.26 447.401 203.671C447.217 204.082 446.921 204.433 446.545 204.683C446.17 204.933 445.731 205.072 445.28 205.084Z" fill="#263238"/>
<path d="M403.04 210.491C404.501 210.175 405.786 209.648 407.194 209.209C408.73 208.963 410.141 208.216 411.206 207.085C411.472 206.666 411.589 206.171 411.542 205.679C411.494 205.186 411.283 204.723 410.942 204.363C410.169 203.744 409.243 203.344 408.261 203.205C407.28 203.066 406.279 203.193 405.363 203.573C403.385 204.044 401.653 205.233 400.506 206.909C400.27 207.308 400.156 207.766 400.175 208.229C400.194 208.691 400.346 209.138 400.614 209.516C400.882 209.894 401.253 210.187 401.683 210.36C402.113 210.533 402.585 210.579 403.04 210.491Z" fill="#263238"/>
<path d="M414.885 224.664C414.885 224.506 414.586 224.892 414.603 225.068C415.237 229.317 415.237 234.286 411.523 236.148C411.418 236.148 411.523 236.411 411.523 236.376C416.222 235.182 416.17 228.58 414.885 224.664Z" fill="#263238"/>
<path d="M410.555 220.641C403.638 220.905 404.677 234.689 411.101 234.478C417.525 234.267 416.363 220.413 410.555 220.641Z" fill="#263238"/>
<path d="M407.898 221.572C406.754 222.45 405.662 223.925 404.219 224.171C402.776 224.417 401.157 223.117 399.96 221.8C399.837 221.677 399.714 221.8 399.731 221.994C399.89 224.627 401.122 227.261 403.99 227.454C406.859 227.648 408.302 225.137 408.76 222.415C408.848 221.923 408.32 221.256 407.898 221.572Z" fill="#263238"/>
<path d="M438.451 221.485C438.451 221.31 438.803 221.661 438.803 221.837C438.962 226.121 439.859 231.002 443.837 232.161C443.96 232.161 443.96 232.425 443.837 232.407C439.032 232.074 437.906 225.559 438.451 221.485Z" fill="#263238"/>
<path d="M441.971 216.744C448.835 215.76 450.314 229.527 443.96 230.44C437.606 231.353 436.216 217.586 441.971 216.744Z" fill="#263238"/>
<path d="M444.946 217.34C446.125 217.955 447.339 219.096 448.659 219.096C449.979 219.096 451.123 217.34 451.933 215.9C452.021 215.742 452.144 215.9 452.162 216.023C452.531 218.657 451.95 221.484 449.469 222.257C446.987 223.029 445.262 220.887 444.347 218.341C444.189 217.885 444.47 217.094 444.946 217.34Z" fill="#263238"/>
<path d="M418.458 258.133C419.514 259.099 420.587 260.451 422.154 260.538C423.753 260.46 425.318 260.047 426.747 259.327C426.776 259.312 426.808 259.308 426.84 259.314C426.871 259.32 426.899 259.337 426.92 259.362C426.94 259.386 426.952 259.417 426.953 259.449C426.953 259.481 426.943 259.512 426.923 259.538C426.345 260.384 425.551 261.061 424.623 261.5C423.695 261.938 422.666 262.121 421.643 262.031C420.756 261.835 419.947 261.379 419.32 260.722C418.693 260.066 418.277 259.237 418.123 258.344C417.982 258.133 418.299 258.133 418.458 258.133Z" fill="#263238"/>
<path d="M435.019 241.169C435.019 241.169 436.462 247.473 436.779 250.494C436.779 250.775 436.075 250.968 435.019 251.126C435.019 251.126 435.019 251.126 434.914 251.126C432.366 251.826 429.673 251.812 427.133 251.084C424.593 250.355 422.304 248.942 420.517 246.999C420.27 246.718 420.622 246.385 420.922 246.543C425.001 248.828 429.71 249.74 434.35 249.142C434.491 248.299 431.517 238.43 431.992 238.36C434.371 238.348 436.741 238.667 439.032 239.308C436.41 226.085 431.675 213.389 429.264 200.184C429.257 200.091 429.281 199.998 429.332 199.92C429.384 199.842 429.46 199.783 429.549 199.753C429.638 199.723 429.734 199.723 429.822 199.753C429.911 199.784 429.987 199.843 430.038 199.921C435.934 212.88 439.296 228.017 442.358 241.608C442.675 243.294 436.269 241.573 435.019 241.169Z" fill="#263238"/>
<path d="M431.587 250.529C430.17 252.56 428.248 254.188 426.008 255.252C424.772 255.808 423.391 255.955 422.066 255.674C419.179 255.059 419.003 252.443 419.426 250.178C419.658 248.966 420.036 247.787 420.552 246.666C423.717 249.106 427.588 250.461 431.587 250.529Z" fill="#263238"/>
<path d="M426.008 255.252C424.772 255.808 423.391 255.955 422.066 255.674C419.179 255.059 419.003 252.443 419.426 250.178C422.488 250.371 425.621 252.302 426.008 255.252Z" fill="#FF99BA"/>
<path d="M350.451 238.816C354.515 236.872 358.003 233.908 360.573 230.214C363.143 226.52 364.707 222.223 365.112 217.744C376.167 212.973 385.748 205.348 392.867 195.654C392.445 196.953 389.347 206.313 387.587 211.019C427.645 203.749 440.176 173.247 440.176 173.247C453.112 186.224 455.664 194.512 457.512 198.639C457.512 198.639 457.934 174.055 445.368 157.672C441.143 151.985 435.341 147.659 428.678 145.228C422.016 142.797 414.785 142.367 407.88 143.992C398.451 140.743 388.271 140.343 378.616 142.842C368.96 145.341 360.258 150.628 353.602 158.04C327.466 186.136 350.451 238.816 350.451 238.816Z" fill="#263238"/>
<path d="M418.07 204.645C411.625 208.124 404.697 210.627 397.514 212.073C397.514 212.073 397.426 212.073 397.514 212.073C408.776 209.057 418.976 202.978 426.976 194.513C430.373 190.893 433.295 186.857 435.67 182.502C438.458 177.837 440.294 172.669 441.074 167.295C441.09 167.226 441.13 167.164 441.186 167.121C441.241 167.077 441.311 167.053 441.382 167.053C441.453 167.053 441.522 167.077 441.578 167.121C441.634 167.164 441.673 167.226 441.69 167.295C441.504 172.708 440.403 178.051 438.434 183.099C436.253 187.956 433.206 192.377 429.44 196.146C426.065 199.5 422.231 202.362 418.053 204.645" fill="#263238"/>
<path d="M407.07 247.597C403.382 247.681 399.744 246.731 396.569 244.855C393.395 242.978 390.813 240.25 389.115 236.982C387.418 233.713 386.674 230.035 386.969 226.366C387.263 222.696 388.584 219.183 390.78 216.225C392.977 213.268 395.962 210.985 399.394 209.636C402.827 208.287 406.571 207.926 410.199 208.595C413.827 209.264 417.194 210.935 419.918 213.419C422.641 215.902 424.611 219.099 425.603 222.644C427.004 227.669 426.349 233.043 423.782 237.587C421.215 242.131 416.945 245.472 411.91 246.877C410.332 247.312 408.707 247.554 407.07 247.597ZM406.226 210.896C404.802 210.927 403.389 211.14 402.019 211.529C397.843 212.702 394.272 215.42 392.034 219.128C389.795 222.836 389.057 227.256 389.97 231.488C390.883 235.72 393.379 239.445 396.948 241.906C400.517 244.367 404.893 245.378 409.183 244.733C413.473 244.088 417.356 241.836 420.04 238.435C422.725 235.035 424.01 230.741 423.633 226.429C423.256 222.116 421.246 218.109 418.012 215.224C414.778 212.338 410.563 210.791 406.226 210.896Z" fill="#FFC727"/>
<path d="M451.827 241.099C444.294 241.275 437.272 233.724 435.829 223.539C435.063 218.695 435.839 213.733 438.046 209.351C438.885 207.421 440.207 205.739 441.884 204.464C443.561 203.19 445.538 202.366 447.625 202.072C449.712 201.778 451.84 202.023 453.806 202.784C455.771 203.545 457.508 204.796 458.85 206.418C462.187 210.028 464.304 214.591 464.904 219.465C466.418 230.194 461.138 239.852 453.112 240.976C452.688 241.053 452.258 241.094 451.827 241.099ZM448.994 204.574C448.659 204.557 448.325 204.557 447.99 204.574C446.337 204.889 444.782 205.593 443.456 206.628C442.131 207.664 441.072 209.001 440.37 210.527C438.429 214.422 437.759 218.824 438.451 223.118C439.754 232.424 446.16 239.255 452.742 238.325C459.325 237.394 463.602 229.071 462.299 219.781C461.779 215.467 459.935 211.419 457.019 208.192C456.01 207.061 454.774 206.155 453.392 205.532C452.009 204.909 450.511 204.582 448.994 204.574Z" fill="#FFC727"/>
<path d="M425.269 225.013L423.298 223.257C425.92 220.36 432.291 216.076 437.765 220.483L436.11 222.538C431.2 218.569 425.498 224.768 425.269 225.013Z" fill="#FFC727"/>
<path d="M338.994 242.327L336.512 241.449C336.917 240.29 340.648 230.088 346.333 228.332C351.613 226.699 387.112 225.049 388.573 224.996L388.696 227.612C378.541 228.069 351.19 229.579 347.09 230.843C343.358 231.932 339.979 239.447 338.994 242.327Z" fill="#FFC727"/>
<path d="M361.134 239.642C361.134 239.642 345.928 221.046 337.357 226.612C328.786 232.179 341.264 259.888 352 262.926C353.351 263.42 354.789 263.637 356.226 263.562C357.663 263.487 359.071 263.123 360.363 262.492C361.655 261.86 362.806 260.974 363.747 259.887C364.687 258.8 365.397 257.534 365.834 256.166L361.134 239.642Z" fill="#FFC4C0"/>
<path d="M341.141 234.445C341.103 234.445 341.068 234.46 341.041 234.486C341.015 234.513 341 234.549 341 234.586C341 234.623 341.015 234.659 341.041 234.685C341.068 234.711 341.103 234.726 341.141 234.726C348.691 237.15 353.074 243.664 356.312 250.53C353.918 247.984 350.838 246.72 347.389 249.582C347.213 249.74 347.389 250.021 347.618 249.968C348.877 249.462 350.264 249.358 351.585 249.673C352.907 249.988 354.097 250.705 354.992 251.724C356.485 253.435 357.789 255.301 358.882 257.291C359.269 257.923 360.43 257.484 360.131 256.747V256.571C359.515 247.176 351.261 234.638 341.141 234.445Z" fill="#263238"/>
<path d="M357.738 259.712C357.775 260.015 357.75 260.321 357.663 260.613C357.576 260.905 357.43 261.176 357.233 261.409C357.036 261.642 356.793 261.832 356.52 261.967C356.246 262.102 355.948 262.179 355.643 262.194C355.338 262.208 355.033 262.16 354.748 262.052C354.462 261.943 354.203 261.777 353.985 261.564C353.767 261.351 353.595 261.095 353.481 260.813C353.366 260.531 353.312 260.228 353.32 259.923C353.335 259.365 353.561 258.834 353.953 258.435C354.344 258.037 354.872 257.801 355.431 257.774C355.989 257.747 356.538 257.932 356.965 258.292C357.393 258.651 357.669 259.159 357.738 259.712Z" fill="white"/>
<path d="M351.366 256.2C351.376 256.382 351.349 256.564 351.288 256.736C351.226 256.908 351.132 257.066 351.009 257.201C350.886 257.336 350.738 257.446 350.573 257.525C350.408 257.603 350.229 257.648 350.046 257.657C349.864 257.666 349.681 257.639 349.509 257.578C349.337 257.517 349.178 257.423 349.043 257.3C348.907 257.178 348.797 257.03 348.718 256.866C348.64 256.701 348.595 256.522 348.586 256.34C348.567 255.972 348.696 255.612 348.943 255.339C349.191 255.065 349.537 254.901 349.906 254.883C350.274 254.864 350.635 254.992 350.909 255.239C351.183 255.486 351.348 255.832 351.366 256.2Z" fill="white"/>
<path d="M403.85 308.636L393.29 336.24L358.512 302.227L349.061 313.535C349.061 313.535 383.486 367.971 383.645 365.478L394.504 341.649L411.154 357.769L409.042 316.556L403.85 308.636Z" fill="#FFC727"/>
<path d="M411.312 337.329C410.749 330.534 410.344 323.685 409.552 316.924C409.552 316.679 409.13 316.573 409.077 316.924C407.845 323.509 410.186 349.481 410.274 355.715C409.587 355.012 394.856 341.544 394.715 341.772C392.339 345.565 384.366 362.844 383.821 364.495C378.382 355.855 355.326 321.789 348.92 313.571C348.887 313.517 348.835 313.479 348.774 313.464C348.713 313.449 348.648 313.459 348.594 313.491C348.541 313.524 348.502 313.577 348.487 313.638C348.473 313.698 348.483 313.763 348.515 313.816C353.355 322.965 383.17 367.919 383.574 367.778C387.789 359.585 391.578 351.18 394.926 342.597C397.426 345.547 412.315 360.772 412.35 359.771C412.403 352.277 412.056 344.786 411.312 337.329Z" fill="#263238"/>
<path d="M406.314 397.91C406.314 397.91 392.709 379.999 405.698 371.728C418.686 363.457 429.229 383.318 429.229 383.318L406.314 397.91Z" fill="#455A64"/>
<path d="M513.92 515.773L515.803 537.67L516.472 544.905L510.118 541.305L491.04 530.312L405.874 397.137L428.754 382.545L513.92 515.773Z" fill="#455A64"/>
<path d="M515.856 537.705L516.49 544.922L510.154 541.322L515.856 537.705Z" fill="#37474F"/>
<path d="M430.221 380.636L403.47 397.666L406.859 402.965L433.61 385.936L430.221 380.636Z" fill="#263238"/>
<path d="M433.95 386.515L407.199 403.545L410.588 408.844L437.339 391.815L433.95 386.515Z" fill="#263238"/>
<path d="M410.59 408.815L419.214 403.318L445.28 454.541L441.989 456.367L410.59 408.815Z" fill="#263238"/>
<path d="M357.28 444.919C370.357 442.338 410.08 553.879 390.984 558.602C306.222 579.674 236.826 566.399 220.387 558.602C198.827 548.295 197.032 520.673 206.043 507.924C221.76 485.816 337.005 448.94 357.28 444.919Z" fill="#FFC4C0"/>
<path d="M520.062 439C519.851 451.871 488.083 448.676 488.083 448.676C492.669 451.824 496.002 456.479 497.499 461.828C499.699 471.363 485.69 478.984 485.69 478.984C489.752 483.242 492.437 488.62 493.398 494.419C494.578 503.761 481.536 513.454 481.536 513.454C483.117 519.419 482.492 525.753 479.776 531.295C471.909 545.8 384.12 559.813 373.19 561.797L352.07 447.657C352.07 447.657 421.045 408.744 440.07 410.044C456.069 411.009 520.379 419.28 520.062 439Z" fill="#FFC4C0"/>
<path d="M487.837 448.254C471.082 442.986 453.094 441.774 435.741 440.773C435.661 440.773 435.585 440.805 435.529 440.861C435.473 440.917 435.442 440.993 435.442 441.072C435.442 441.151 435.473 441.227 435.529 441.283C435.585 441.339 435.661 441.37 435.741 441.37C453.024 442.161 470.501 447.586 487.714 449.079C487.815 449.08 487.914 449.044 487.991 448.978C488.068 448.912 488.119 448.82 488.134 448.72C488.149 448.619 488.127 448.517 488.073 448.431C488.018 448.346 487.934 448.283 487.837 448.254Z" fill="#263238"/>
<path d="M485.25 477.632C481.329 476.81 477.317 476.503 473.317 476.719C469.069 476.719 464.828 476.754 460.592 476.825C452.097 477.035 443.614 477.463 435.142 478.106C434.773 478.106 434.72 478.703 435.142 478.703C443.59 478.51 452.056 478.44 460.522 478.598C464.763 478.598 468.987 478.791 473.229 478.932C477.211 479.324 481.225 479.277 485.197 478.791C485.319 478.755 485.427 478.681 485.506 478.581C485.584 478.48 485.629 478.358 485.635 478.23C485.641 478.103 485.607 477.977 485.538 477.87C485.469 477.763 485.368 477.68 485.25 477.632Z" fill="#263238"/>
<path d="M481.166 513.401C477.893 512.348 473.792 512.997 470.395 513.156L458.779 513.63C451.053 513.893 443.326 514.156 435.582 514.156C435.195 514.156 435.16 514.753 435.582 514.753C443.45 514.753 451.317 514.946 459.166 514.911C463.038 514.911 466.893 514.911 470.765 514.806C474.038 514.806 478.157 515.069 481.325 513.788C481.369 513.762 481.402 513.721 481.418 513.673C481.435 513.625 481.433 513.573 481.414 513.526C481.395 513.479 481.359 513.44 481.313 513.417C481.268 513.394 481.216 513.389 481.166 513.401Z" fill="#263238"/>
<path d="M344.397 446.395L382.36 572.071C382.36 572.071 244.094 578.797 214.438 557.286C193.829 542.325 195.536 514.176 204.846 504.483C225.174 483.323 344.397 446.395 344.397 446.395Z" fill="#EBEBEB"/>
<path d="M345.928 567.189C339.962 549.629 318.155 477.282 314.494 461.32C314.248 460.214 314.882 459.792 315.304 460.898C334.453 512.858 341.704 549.489 346.614 566.926C346.72 567.4 346.086 567.663 345.928 567.189Z" fill="#263238"/>
<path d="M344.432 445.093C343.675 444.935 330.352 448.377 326.093 449.624C317.774 452.094 309.514 454.775 301.312 457.666C284.98 463.407 268.954 469.983 253.299 477.368L250.958 478.492C245.238 479.862 239.659 481.829 234.098 483.655C233.939 483.655 234.098 483.953 234.098 483.901C238.55 482.426 243.074 481.267 247.597 480.073C245.098 481.284 242.581 482.514 240.117 483.795C235.734 486.061 231.458 488.502 227.11 490.819C227.094 490.826 227.08 490.836 227.068 490.849C227.056 490.862 227.047 490.877 227.042 490.894C227.036 490.91 227.034 490.928 227.036 490.945C227.038 490.963 227.044 490.979 227.052 490.994C227.061 491.009 227.073 491.022 227.087 491.033C227.102 491.043 227.118 491.05 227.135 491.053C227.152 491.056 227.17 491.056 227.187 491.052C227.204 491.048 227.22 491.041 227.234 491.03C234.538 487.255 242.123 483.901 249.621 480.494C257.118 477.087 264.933 473.769 272.677 470.643C287.936 464.479 303.494 458.966 319.246 454.119C323.682 452.767 328.046 451.467 332.587 450.203C334.77 449.589 343.851 446.516 344.238 446.48C344.45 446.805 344.61 447.161 344.714 447.534C344.819 447.903 345.242 447.903 345.154 447.534C345.009 446.695 344.767 445.876 344.432 445.093Z" fill="#263238"/>
<path d="M363.158 572.632C359.146 572.351 344.344 573.071 340.384 573.071C332.394 573.071 324.421 573.071 316.43 572.931C300.379 572.509 284.398 571.351 268.418 569.823C264 569.401 259.618 568.927 255.147 568.453C250.677 567.979 245.872 567.628 241.331 566.803C241.155 566.803 241.085 567.049 241.331 567.084C245.309 567.663 249.216 568.594 253.176 569.279C257.136 569.963 261.114 570.56 265.109 571.122C273.099 572.246 281.125 573.036 289.168 573.703C305.219 575.02 321.376 575.459 337.48 575.161C342.021 575.073 358.97 574.371 363.37 573.405C363.81 573.387 363.616 572.667 363.158 572.632Z" fill="#263238"/>
<path d="M628.971 597.34L483.771 607.841L538.05 417.104L683.25 406.604L628.971 597.34Z" fill="white"/>
<path d="M638.898 596.619L493.715 607.12L547.994 416.384L693.176 405.883L638.898 596.619Z" fill="#37474F"/>
<path d="M563.411 415.295C563.044 416.937 562.354 418.49 561.381 419.864C560.408 421.239 559.172 422.407 557.744 423.302C556.424 424.145 555.984 422.371 557.234 421.546C559.064 420.342 560.43 418.552 561.106 416.471C561.194 416.138 561.299 415.751 561.352 415.418C561.664 414.268 561.664 413.056 561.352 411.906C561.202 411.411 560.885 410.983 560.455 410.694C560.413 410.673 560.377 410.643 560.349 410.606C560.349 410.606 560.191 410.606 560.173 410.606C560.079 410.619 559.985 410.619 559.891 410.606C559.543 410.565 559.19 410.62 558.871 410.764C558.255 411.031 557.712 411.44 557.287 411.958C556.763 412.576 556.325 413.261 555.984 413.995C555.775 414.353 555.587 414.722 555.421 415.102V415.365C555.356 415.486 555.309 415.616 555.28 415.751C555.28 415.751 555.175 415.909 555.192 415.997L553.133 416.155C553.553 414.842 554.144 413.591 554.893 412.433C555.438 411.435 556.192 410.567 557.103 409.885C558.014 409.203 559.061 408.725 560.173 408.482C561.002 408.392 561.833 408.627 562.49 409.139C563.147 409.65 563.579 410.397 563.693 411.221C563.942 412.581 563.845 413.982 563.411 415.295Z" fill="#FFC727"/>
<path d="M574.781 414.416C574.024 417.726 571.987 420.604 569.114 422.423C567.776 423.266 567.354 421.492 568.603 420.667C570.434 419.467 571.795 417.675 572.458 415.593C572.57 415.248 572.659 414.896 572.722 414.539C573.033 413.389 573.033 412.177 572.722 411.027C572.565 410.53 572.242 410.103 571.806 409.816C571.777 409.821 571.748 409.821 571.718 409.816C571.718 409.816 571.56 409.816 571.525 409.816H571.261C570.912 409.774 570.559 409.829 570.24 409.974C569.624 410.24 569.081 410.649 568.656 411.168C568.121 411.777 567.682 412.464 567.354 413.205C567.145 413.568 566.957 413.943 566.79 414.328V414.574C566.715 414.693 566.662 414.823 566.632 414.96C566.632 415.048 566.544 415.136 566.632 415.206L564.573 415.364C564.985 414.049 565.577 412.796 566.333 411.642C566.876 410.643 567.629 409.773 568.541 409.092C569.452 408.41 570.5 407.932 571.613 407.691C572.441 407.605 573.269 407.843 573.926 408.353C574.582 408.864 575.014 409.608 575.133 410.43C575.336 411.768 575.215 413.134 574.781 414.416Z" fill="#FFC727"/>
<path d="M586.08 413.643C585.32 416.961 583.277 419.845 580.395 421.667C579.075 422.492 578.635 420.719 579.885 419.911C581.72 418.712 583.087 416.921 583.757 414.837C583.757 414.503 583.968 414.134 584.021 413.801C584.319 412.649 584.319 411.44 584.021 410.289C583.877 409.79 583.558 409.36 583.123 409.077H583.018C583.018 409.077 582.877 409.077 582.842 409.077H582.56C582.219 409.025 581.87 409.074 581.557 409.218C580.936 409.483 580.387 409.893 579.955 410.412C579.432 411.03 578.994 411.715 578.653 412.449C578.442 412.8 578.283 413.186 578.09 413.572V413.818C578.028 413.941 577.98 414.071 577.949 414.204C577.949 414.292 577.861 414.38 577.949 414.45L575.89 414.608C576.301 413.292 576.893 412.039 577.65 410.886C578.194 409.89 578.948 409.023 579.859 408.344C580.77 407.665 581.818 407.19 582.93 406.953C583.756 406.858 584.588 407.089 585.245 407.598C585.903 408.106 586.335 408.852 586.45 409.674C586.645 411.007 586.518 412.368 586.08 413.643Z" fill="#FFC727"/>
<path d="M597.502 412.818C597.132 414.462 596.442 416.016 595.469 417.393C594.497 418.77 593.262 419.942 591.835 420.843C590.515 421.686 590.075 419.895 591.325 419.087C593.151 417.879 594.516 416.091 595.197 414.012C595.285 413.661 595.39 413.292 595.443 412.959C595.752 411.808 595.752 410.597 595.443 409.447C595.289 408.954 594.973 408.527 594.546 408.235H594.44C594.44 408.235 594.282 408.235 594.264 408.235H593.982C593.634 408.177 593.276 408.232 592.962 408.393C592.343 408.646 591.798 409.051 591.378 409.57C590.854 410.188 590.416 410.873 590.075 411.607C589.866 411.97 589.678 412.346 589.512 412.73V412.976C589.452 413.1 589.405 413.23 589.371 413.363C589.371 413.45 589.266 413.538 589.283 413.626L587.224 413.766C587.644 412.454 588.235 411.202 588.984 410.044C589.529 409.049 590.283 408.182 591.194 407.503C592.106 406.825 593.152 406.35 594.264 406.111C595.091 406.016 595.922 406.247 596.58 406.756C597.238 407.265 597.67 408.01 597.784 408.832C598.018 410.164 597.921 411.533 597.502 412.818Z" fill="#FFC727"/>
<path d="M608.96 411.992C608.201 415.306 606.165 418.188 603.293 420.017C601.955 420.86 601.533 419.069 602.782 418.261C604.609 417.057 605.969 415.266 606.637 413.186C606.75 412.842 606.838 412.49 606.901 412.133C607.213 410.983 607.213 409.771 606.901 408.621C606.744 408.12 606.421 407.686 605.986 407.392C605.957 407.397 605.927 407.397 605.898 407.392C605.898 407.392 605.739 407.392 605.704 407.392H605.44C605.092 407.341 604.736 407.396 604.419 407.55C603.804 407.809 603.261 408.213 602.835 408.726C602.303 409.344 601.865 410.036 601.533 410.781C601.321 411.137 601.132 411.506 600.97 411.887V412.133C600.898 412.253 600.844 412.383 600.811 412.519C600.811 412.607 600.723 412.695 600.811 412.782L598.752 412.923C599.164 411.607 599.756 410.355 600.512 409.2C601.059 408.206 601.813 407.34 602.724 406.661C603.635 405.983 604.681 405.507 605.792 405.267C606.618 405.177 607.447 405.41 608.104 405.918C608.76 406.426 609.194 407.168 609.312 407.989C609.518 409.332 609.397 410.705 608.96 411.992Z" fill="#FFC727"/>
<path d="M620.242 411.185C619.476 414.496 617.433 417.373 614.557 419.192C613.237 420.035 612.797 418.244 614.047 417.436C615.878 416.233 617.244 414.443 617.918 412.362C618.006 412.028 618.13 411.642 618.182 411.308C618.486 410.157 618.486 408.948 618.182 407.797C618.034 407.296 617.717 406.862 617.285 406.567H617.179C617.179 406.567 617.039 406.567 617.003 406.567C616.91 406.58 616.815 406.58 616.722 406.567C616.379 406.521 616.03 406.576 615.719 406.725C615.094 406.985 614.543 407.395 614.117 407.919C613.594 408.537 613.156 409.222 612.815 409.956C612.603 410.29 612.445 410.676 612.251 411.063V411.326C612.189 411.442 612.142 411.566 612.111 411.695C612.087 411.781 612.087 411.872 612.111 411.958L610.051 412.098C610.466 410.789 611.058 409.543 611.811 408.394C612.358 407.397 613.112 406.529 614.022 405.847C614.933 405.166 615.98 404.687 617.091 404.443C617.918 404.348 618.749 404.579 619.407 405.088C620.065 405.597 620.497 406.342 620.611 407.164C620.812 408.515 620.686 409.894 620.242 411.185Z" fill="#FFC727"/>
<path d="M631.594 410.359C631.226 412.001 630.536 413.554 629.564 414.929C628.591 416.303 627.355 417.471 625.927 418.366C624.607 419.209 624.167 417.435 625.416 416.61C627.247 415.406 628.612 413.616 629.288 411.536C629.376 411.202 629.482 410.816 629.535 410.482C629.846 409.332 629.846 408.12 629.535 406.97C629.384 406.475 629.067 406.047 628.637 405.759C628.596 405.737 628.56 405.707 628.531 405.671C628.531 405.671 628.373 405.671 628.355 405.671C628.262 405.683 628.167 405.683 628.074 405.671C627.725 405.629 627.372 405.684 627.053 405.829C626.437 406.095 625.894 406.504 625.469 407.023C624.94 407.636 624.501 408.322 624.167 409.06C623.958 409.417 623.77 409.787 623.603 410.166V410.429C623.54 410.554 623.487 410.683 623.445 410.816C623.445 410.816 623.357 410.974 623.445 411.061L621.386 411.219C621.805 409.907 622.397 408.655 623.146 407.497C623.691 406.5 624.445 405.631 625.356 404.95C626.267 404.268 627.313 403.789 628.426 403.546C629.254 403.456 630.086 403.692 630.743 404.203C631.4 404.715 631.832 405.462 631.946 406.285C632.172 407.651 632.051 409.052 631.594 410.359Z" fill="#FFC727"/>
<path d="M642.963 409.533C642.207 412.844 640.17 415.722 637.296 417.54C635.958 418.383 635.536 416.61 636.786 415.784C638.613 414.589 639.974 412.804 640.64 410.727C640.753 410.383 640.841 410.031 640.904 409.674C641.208 408.523 641.208 407.313 640.904 406.162C640.748 405.665 640.424 405.237 639.989 404.95C639.96 404.956 639.93 404.956 639.901 404.95C639.901 404.95 639.742 404.95 639.707 404.95H639.443C639.095 404.909 638.742 404.964 638.422 405.108C637.807 405.375 637.263 405.784 636.838 406.302C636.303 406.912 635.864 407.598 635.536 408.339C635.327 408.703 635.139 409.078 634.973 409.463V409.709C634.898 409.827 634.844 409.958 634.814 410.095C634.814 410.183 634.726 410.271 634.814 410.341L632.755 410.499C633.167 409.183 633.76 407.931 634.515 406.777C635.059 405.778 635.812 404.908 636.723 404.226C637.634 403.544 638.682 403.067 639.795 402.826C640.623 402.74 641.452 402.978 642.108 403.488C642.764 403.999 643.197 404.743 643.315 405.565C643.515 406.897 643.395 408.257 642.963 409.533Z" fill="#FFC727"/>
<path d="M654.333 408.709C653.573 412.027 651.529 414.911 648.648 416.733C647.328 417.559 646.888 415.785 648.138 414.978C649.973 413.779 651.34 411.987 652.01 409.903C652.098 409.569 652.221 409.201 652.274 408.867C652.572 407.715 652.572 406.507 652.274 405.355C652.13 404.857 651.811 404.427 651.376 404.144H651.271C651.271 404.144 651.13 404.144 651.094 404.144H650.813C650.472 404.091 650.123 404.14 649.81 404.284C649.188 404.55 648.639 404.959 648.208 405.478C647.685 406.096 647.247 406.781 646.906 407.515C646.694 407.866 646.536 408.252 646.342 408.639V408.885C646.283 409.008 646.236 409.138 646.202 409.271C646.202 409.359 646.202 409.446 646.202 409.517L644.142 409.675C644.554 408.359 645.146 407.106 645.902 405.952C646.447 404.956 647.201 404.089 648.112 403.41C649.023 402.731 650.071 402.257 651.182 402.019C652.009 401.924 652.841 402.156 653.498 402.664C654.156 403.173 654.588 403.918 654.703 404.741C654.898 406.074 654.771 407.434 654.333 408.709Z" fill="#FFC727"/>
<path d="M665.685 407.883C665.315 409.526 664.624 411.081 663.652 412.458C662.679 413.835 661.444 415.007 660.018 415.907C658.698 416.75 658.258 414.959 659.507 414.151C661.33 412.939 662.693 411.152 663.379 409.077C663.467 408.726 663.573 408.357 663.626 408.023C663.935 406.873 663.935 405.662 663.626 404.511C663.471 404.018 663.155 403.592 662.728 403.3H662.622C662.622 403.3 662.464 403.3 662.446 403.3H662.165C661.816 403.241 661.458 403.297 661.144 403.458C660.525 403.711 659.981 404.116 659.56 404.634C659.031 405.248 658.592 405.934 658.258 406.671C658.049 407.035 657.861 407.41 657.694 407.795V408.041C657.63 408.164 657.577 408.294 657.536 408.427C657.536 408.515 657.448 408.603 657.536 408.69L655.477 408.831C655.896 407.518 656.488 406.266 657.237 405.108C657.782 404.113 658.536 403.247 659.447 402.568C660.358 401.889 661.405 401.414 662.517 401.175C663.344 401.08 664.175 401.312 664.833 401.82C665.491 402.329 665.923 403.074 666.037 403.897C666.248 405.234 666.127 406.603 665.685 407.883Z" fill="#FFC727"/>
<path d="M677.055 407.059C676.295 410.372 674.259 413.255 671.387 415.083C670.05 415.926 669.627 414.135 670.877 413.327C672.704 412.123 674.064 410.333 674.731 408.253C674.844 407.908 674.932 407.556 674.995 407.199C675.299 406.048 675.299 404.838 674.995 403.687C674.839 403.186 674.516 402.753 674.08 402.458C674.051 402.463 674.021 402.463 673.992 402.458C673.992 402.458 673.834 402.458 673.799 402.458H673.535C673.186 402.408 672.831 402.463 672.514 402.616C671.899 402.876 671.355 403.279 670.93 403.793C670.399 404.415 669.954 405.106 669.61 405.847C669.403 406.203 669.221 406.573 669.064 406.953V407.199C668.992 407.319 668.939 407.449 668.906 407.585C668.906 407.673 668.818 407.761 668.906 407.849L666.847 407.989C667.259 406.674 667.851 405.421 668.607 404.267C669.153 403.272 669.907 402.406 670.818 401.728C671.729 401.049 672.776 400.574 673.887 400.334C674.713 400.243 675.541 400.476 676.198 400.984C676.855 401.492 677.288 402.235 677.407 403.055C677.612 404.399 677.492 405.772 677.055 407.059Z" fill="#FFC727"/>
<path d="M688.424 406.252C687.658 409.563 685.616 412.439 682.739 414.259C681.419 415.102 680.979 413.311 682.229 412.503C684.06 411.3 685.426 409.51 686.101 407.428C686.189 407.095 686.294 406.708 686.365 406.375C686.668 405.224 686.668 404.014 686.365 402.863C686.217 402.362 685.9 401.928 685.467 401.634H685.362C685.362 401.634 685.221 401.634 685.186 401.634C685.092 401.646 684.998 401.646 684.904 401.634C684.561 401.587 684.212 401.642 683.901 401.792C683.276 402.051 682.726 402.462 682.299 402.986C681.776 403.604 681.338 404.289 680.997 405.023C680.786 405.356 680.627 405.743 680.434 406.129V406.392C680.371 406.509 680.324 406.633 680.293 406.761C680.269 406.847 680.269 406.938 680.293 407.024L678.234 407.165C678.652 405.851 679.244 404.6 679.994 403.442C680.544 402.451 681.299 401.587 682.209 400.909C683.12 400.231 684.164 399.754 685.274 399.509C686.1 399.414 686.932 399.646 687.59 400.154C688.247 400.663 688.68 401.408 688.794 402.231C688.995 403.581 688.868 404.96 688.424 406.252Z" fill="#FFC727"/>
<path d="M686.03 448.764C693.722 464.445 712.835 483.884 714.542 496.685C715.073 499.839 714.57 503.081 713.109 505.928C711.647 508.774 709.305 511.075 706.429 512.489C706.429 512.489 719.4 518.758 719.013 530.681C718.802 536.827 708.805 541.884 708.805 541.884C708.805 541.884 718.96 547.363 717.974 557.952C717.165 566.381 707.274 570.244 707.274 570.244C707.274 570.244 714.56 579.99 711.04 588.26C703.806 605.153 630.925 605.996 619.362 579.34C613.958 566.925 631.77 567.68 631.77 567.68C631.77 567.68 606.426 560.428 605.862 545.431C605.299 530.435 628.39 532.823 628.39 532.823C628.39 532.823 603.891 525.571 604.877 509.995C605.915 493.77 628.602 500.092 628.602 500.092C628.602 500.092 612.269 489.31 615.771 477.545C621.544 458.123 652.502 482.11 668.571 478.142L677.107 451.679L686.03 448.764Z" fill="#FFC4C0"/>
<path d="M700.902 471.504C694.936 456.016 714.014 436.595 710.424 420.984C705.584 399.912 681.912 420.879 676.984 451.714L677.336 476.298L700.902 471.504Z" fill="#FFC4C0"/>
<path d="M705.76 571.034C705.989 571.034 706.077 571.35 705.76 571.403C681.859 577.513 653.717 576.916 630.643 567.891C629.886 567.593 630.045 566.24 630.942 566.416C656.638 571.157 679.73 573.422 705.76 571.034Z" fill="#263238"/>
<path d="M709.157 542.041C709.438 542.041 709.491 542.48 709.157 542.55C684.517 548.714 652.837 547.169 627.458 533.543C626.578 533.086 626.278 531.787 627.317 532.261C644.899 540.022 685.714 544.359 709.157 542.041Z" fill="#263238"/>
<path d="M627 498.546C651.834 510.662 678.04 513.629 705.443 512.804C705.795 512.804 705.778 513.296 705.443 513.383C692.155 517.422 674.661 516.14 661.126 513.98C648.528 512.222 636.611 507.203 626.56 499.424C626.173 499.108 626.56 498.3 627 498.546Z" fill="#263238"/>
<path d="M85.1136 713.095L173.835 712.673L262.557 712.515L440 712.217L617.443 712.515L706.165 712.673L794.886 713.095L706.165 713.534L617.443 713.674L440 713.973L262.557 713.674L173.835 713.516L85.1136 713.095Z" fill="#263238"/>
<path d="M193.97 638.553H115.79V755.573H193.97V638.553Z" fill="#FFC727"/>
<path d="M203.421 607.119H106.357V638.534H203.421V607.119Z" fill="#455A64"/>
<path d="M180.91 672.215H128.867V724.14H180.91V672.215Z" fill="white"/>
<path opacity="0.1" d="M115.79 638.553V647.666L159.808 664.261V755.555H180.91V638.553H115.79Z" fill="black"/>
<path d="M91.52 752.884C91.52 751.596 91.7746 750.32 92.2693 749.13C92.7639 747.94 93.4889 746.86 94.4027 745.95C95.3165 745.039 96.4012 744.318 97.5948 743.827C98.7883 743.335 100.067 743.084 101.358 743.086H120.93C122.222 743.084 123.501 743.335 124.696 743.826C125.89 744.318 126.976 745.039 127.892 745.948C128.807 746.858 129.533 747.939 130.03 749.129C130.527 750.319 130.783 751.595 130.786 752.884C130.781 755.489 129.741 757.986 127.893 759.826C126.045 761.666 123.541 762.7 120.93 762.7H101.429C100.132 762.707 98.8457 762.458 97.6449 761.968C96.4442 761.478 95.3522 760.756 94.4316 759.844C93.5111 758.933 92.78 757.848 92.2803 756.654C91.7807 755.459 91.5223 754.178 91.52 752.884Z" fill="#455A64"/>
<path d="M91.52 752.884C91.52 751.596 91.7746 750.32 92.2692 749.13C92.7639 747.94 93.4889 746.86 94.4027 745.95C95.3165 745.039 96.4012 744.318 97.5948 743.827C98.7883 743.335 100.067 743.084 101.358 743.086H111.126V762.735H101.429C100.129 762.742 98.8398 762.492 97.6368 762C96.4337 761.508 95.3402 760.783 94.4192 759.867C93.4981 758.952 92.7678 757.863 92.2702 756.665C91.7726 755.466 91.5177 754.181 91.52 752.884Z" fill="#FFC727"/>
<path d="M225.28 752.884C225.278 754.173 225.021 755.449 224.524 756.639C224.028 757.829 223.301 758.91 222.386 759.819C221.471 760.729 220.385 761.45 219.19 761.941C217.996 762.433 216.716 762.684 215.424 762.682H196.011C194.719 762.684 193.439 762.433 192.245 761.941C191.05 761.45 189.964 760.729 189.049 759.819C188.134 758.91 187.407 757.829 186.911 756.639C186.414 755.449 186.158 754.173 186.155 752.884C186.155 750.276 187.194 747.775 189.042 745.931C190.89 744.087 193.397 743.051 196.011 743.051H215.494C218.096 743.069 220.585 744.114 222.418 745.956C224.251 747.798 225.28 750.288 225.28 752.884Z" fill="#455A64"/>
<path d="M225.28 752.884C225.278 754.173 225.021 755.449 224.524 756.639C224.028 757.829 223.301 758.91 222.386 759.819C221.471 760.729 220.385 761.45 219.19 761.941C217.996 762.433 216.716 762.684 215.424 762.682H205.744V743.051H215.494C218.096 743.069 220.585 744.114 222.418 745.956C224.251 747.798 225.28 750.288 225.28 752.884Z" fill="#FFC727"/>
<path d="M247.474 756.835C246.561 757.747 245.478 758.471 244.285 758.964C243.092 759.458 241.813 759.712 240.522 759.712C239.23 759.712 237.951 759.458 236.758 758.964C235.565 758.471 234.482 757.747 233.57 756.835L219.771 743.085C217.929 741.245 216.894 738.75 216.894 736.149C216.894 733.548 217.929 731.054 219.771 729.213C221.622 727.373 224.128 726.34 226.741 726.34C229.354 726.34 231.86 727.373 233.71 729.213L247.491 742.963C249.327 744.808 250.355 747.303 250.352 749.902C250.349 752.502 249.314 754.994 247.474 756.835Z" fill="#455A64"/>
<path d="M247.474 756.836C246.561 757.748 245.478 758.472 244.285 758.966C243.092 759.459 241.813 759.714 240.522 759.714C239.23 759.714 237.951 759.459 236.758 758.966C235.565 758.472 234.482 757.748 233.57 756.836L226.67 749.952L240.592 736.062L247.491 742.946C249.332 744.792 250.364 747.291 250.361 749.895C250.357 752.498 249.319 754.995 247.474 756.836Z" fill="#FFC727"/>
<path d="M158.294 772.534C158.297 771.245 158.554 769.969 159.05 768.779C159.547 767.589 160.273 766.509 161.189 765.599C162.104 764.689 163.19 763.968 164.384 763.477C165.579 762.986 166.858 762.734 168.15 762.736H187.634C188.926 762.734 190.205 762.986 191.4 763.477C192.595 763.968 193.68 764.689 194.596 765.599C195.511 766.509 196.237 767.589 196.734 768.779C197.231 769.969 197.487 771.245 197.49 772.534C197.485 775.139 196.445 777.636 194.597 779.476C192.749 781.316 190.245 782.35 187.634 782.35H168.15C165.54 782.35 163.035 781.316 161.187 779.476C159.34 777.636 158.299 775.139 158.294 772.534Z" fill="#455A64"/>
<path d="M158.294 772.534C158.297 771.245 158.553 769.969 159.05 768.779C159.547 767.589 160.273 766.509 161.188 765.599C162.104 764.689 163.189 763.968 164.384 763.477C165.579 762.986 166.858 762.734 168.15 762.736H177.901V782.385H168.15C166.855 782.385 165.572 782.13 164.375 781.635C163.178 781.14 162.09 780.414 161.175 779.499C160.259 778.584 159.534 777.498 159.04 776.303C158.545 775.108 158.292 773.827 158.294 772.534Z" fill="#FFC727"/>
<path d="M561.722 751.023L561.229 757.906C561.229 758.011 561.229 758.134 561.229 758.257C560.859 760.434 558.378 762.243 554.664 763.367C550.71 764.465 546.599 764.892 542.502 764.631L540.742 764.508C540.144 764.508 539.528 764.403 538.982 764.315C529.584 763.103 522.65 759.24 522.931 755.219L523.406 748.354C523.125 752.375 530.059 756.238 539.458 757.449L541.218 757.625C541.816 757.625 542.432 757.73 542.978 757.748C547.074 758.018 551.187 757.59 555.139 756.483C558.853 755.377 561.317 753.586 561.704 751.391C561.704 751.251 561.704 751.163 561.722 751.023Z" fill="#DBDBDB"/>
<path d="M529.936 742.893C533.878 741.795 537.978 741.368 542.062 741.629L539.37 757.432C539.95 757.432 540.566 757.573 541.13 757.608C541.693 757.643 542.326 757.713 542.89 757.748L545.582 741.945C555.262 743.174 562.32 747.213 561.598 751.375C561.246 753.569 558.765 755.36 555.051 756.502C551.097 757.6 546.986 758.027 542.89 757.766C542.291 757.766 541.675 757.766 541.13 757.626C540.584 757.485 539.915 757.52 539.37 757.45C529.69 756.221 522.632 752.182 523.354 748.021C523.723 745.826 526.24 744.017 529.936 742.893Z" fill="white"/>
<path d="M542.08 741.629L543.84 741.752L545.6 741.945L542.907 757.748C542.309 757.748 541.693 757.748 541.147 757.608C540.602 757.467 539.933 757.502 539.387 757.432L542.08 741.629Z" fill="#DBDBDB"/>
<path d="M560.63 763.703V770.586C560.622 770.703 560.622 770.821 560.63 770.937C560.824 773.132 563.165 775.152 566.755 776.556C570.608 777.967 574.672 778.721 578.776 778.786H580.536C581.134 778.786 581.75 778.786 582.296 778.786C591.765 778.33 598.998 775.029 599.034 770.99V764.107C599.034 768.128 591.765 771.429 582.296 771.903H580.536C579.95 771.936 579.362 771.936 578.776 771.903C574.673 771.843 570.61 771.095 566.755 769.691C563.13 768.286 560.824 766.284 560.63 764.072C560.621 763.949 560.621 763.826 560.63 763.703Z" fill="#DBDBDB"/>
<path d="M592.979 758.119C589.132 756.708 585.074 755.954 580.976 755.889L582.402 771.868C581.803 771.868 581.187 771.868 580.642 771.868H578.882L577.456 755.889C567.706 756.345 560.349 759.822 560.736 764.001C560.93 766.231 563.253 768.215 566.861 769.638C570.714 771.049 574.778 771.802 578.882 771.868H580.642C581.24 771.868 581.856 771.868 582.402 771.868C592.135 771.411 599.509 767.934 599.122 763.755C598.928 761.525 596.64 759.541 592.979 758.119Z" fill="white"/>
<path d="M580.976 755.889H579.216C578.618 755.889 578.031 755.889 577.456 755.889L578.882 771.868H580.642C581.24 771.868 581.856 771.868 582.402 771.868L580.976 755.889Z" fill="#DBDBDB"/>
<path d="M509.221 761.49C505.015 763.862 500.303 765.199 495.475 765.388C491.346 765.67 487.206 765.04 483.349 763.544C482.926 763.368 482.486 763.14 482.064 762.929C481.642 762.719 481.254 762.473 480.885 762.227C479.834 761.634 478.933 760.808 478.252 759.812C477.572 758.817 477.13 757.678 476.96 756.485L476.326 750.217C476.508 751.424 476.968 752.572 477.671 753.572C478.373 754.571 479.299 755.394 480.374 755.976C480.726 756.198 481.114 756.427 481.536 756.661C481.946 756.89 482.369 757.096 482.803 757.275C486.66 758.772 490.801 759.401 494.93 759.119C499.753 758.933 504.464 757.61 508.675 755.256C512.952 752.693 514.958 749.444 514.642 746.477L515.275 752.745C515.504 755.695 513.498 758.944 509.221 761.49Z" fill="#DBDBDB"/>
<path d="M482.733 757.275L483.085 760.927L508.64 745.632L508.024 739.363L480.251 755.975C480.586 756.203 480.99 756.432 481.413 756.66C481.835 756.888 482.24 757.081 482.733 757.275Z" fill="#FFC727"/>
<path d="M508.059 739.363C508.499 739.556 508.939 739.75 509.362 739.978C509.784 740.206 510.154 740.417 510.523 740.663L482.733 757.274C482.275 757.081 481.87 756.887 481.448 756.659C481.026 756.431 480.621 756.203 480.286 755.974L508.059 739.363Z" fill="#DBDBDB"/>
<path d="M510.523 740.664L511.157 746.915L483.349 763.527L482.733 757.276L510.523 740.664Z" fill="#DBDBDB"/>
<path d="M495.933 737.52C500.061 737.244 504.2 737.874 508.059 739.364L480.286 755.976C480.621 756.204 481.026 756.433 481.448 756.661C481.87 756.889 482.275 757.082 482.733 757.276L510.523 740.664C516.578 744.562 515.803 750.901 508.587 755.239C504.383 757.596 499.678 758.926 494.859 759.119C490.731 759.397 486.591 758.767 482.733 757.276C482.275 757.082 481.87 756.889 481.448 756.661C481.026 756.433 480.621 756.204 480.286 755.976C474.232 752.06 475.006 745.738 482.222 741.401C486.422 739.047 491.12 737.717 495.933 737.52Z" fill="white"/>
<path d="M610.808 756.431C615.008 758.802 619.714 760.138 624.536 760.329C628.671 760.614 632.817 759.984 636.68 758.486C637.102 758.31 637.542 758.082 637.965 757.871C638.387 757.66 638.774 757.414 639.126 757.169C640.197 756.586 641.117 755.765 641.816 754.769C642.515 753.773 642.974 752.629 643.157 751.427L643.79 745.158C643.606 746.364 643.145 747.512 642.442 748.511C641.74 749.51 640.816 750.334 639.742 750.918C639.39 751.14 639.003 751.368 638.581 751.602C638.171 751.832 637.748 752.037 637.314 752.217C633.451 753.716 629.304 754.345 625.17 754.061C620.351 753.881 615.644 752.557 611.442 750.198C607.165 747.634 605.158 744.385 605.458 741.418L604.824 747.687C604.525 750.654 606.531 753.885 610.808 756.431Z" fill="#DBDBDB"/>
<path d="M637.296 752.218L636.926 755.87L611.336 740.576L611.97 734.324L639.742 750.918C639.368 751.168 638.981 751.397 638.581 751.603C638.158 751.832 637.736 752.025 637.296 752.218Z" fill="#FFC727"/>
<path d="M611.97 734.324C611.53 734.5 611.09 734.711 610.667 734.921C610.245 735.132 609.875 735.36 609.488 735.606L637.296 752.217C637.736 752.024 638.158 751.831 638.581 751.602C638.981 751.396 639.369 751.168 639.742 750.918L611.97 734.324Z" fill="#DBDBDB"/>
<path d="M609.505 735.605L608.872 741.857L636.68 758.469L637.296 752.217L609.505 735.605Z" fill="#DBDBDB"/>
<path d="M624.078 732.48C619.955 732.187 615.818 732.817 611.97 734.324L639.742 750.917C639.368 751.167 638.981 751.396 638.581 751.602C638.158 751.83 637.736 752.024 637.296 752.217L609.488 735.606C603.451 739.521 604.208 745.843 611.442 750.18C615.646 752.537 620.351 753.867 625.17 754.06C629.299 754.355 633.442 753.725 637.296 752.217C637.736 752.024 638.158 751.83 638.581 751.602C638.981 751.396 639.368 751.167 639.742 750.917C645.797 747.002 645.022 740.68 637.806 736.343C633.604 733.984 628.897 732.66 624.078 732.48Z" fill="white"/>
<path d="M493.75 732.955L493.662 740.242C493.639 740.718 493.438 741.169 493.099 741.506C491.832 742.946 488.594 744.087 484.387 744.737C480.14 745.353 475.842 745.547 471.557 745.316L469.797 745.193L468.037 745.018C460.187 744.157 455.066 742.015 455.083 739.75L455.189 732.498C455.189 734.746 460.31 736.888 468.142 737.766C468.688 737.854 469.304 737.906 469.902 737.941L471.662 738.082C475.948 738.329 480.247 738.135 484.493 737.502C488.682 736.835 491.938 735.747 493.293 734.254C493.608 733.896 493.772 733.43 493.75 732.955Z" fill="#DBDBDB"/>
<path d="M469.92 737.924L469.814 745.193L468.054 745.017L468.142 737.748L469.92 737.924Z" fill="#DBDBDB"/>
<path d="M477.33 727.389L479.09 727.512C479.688 727.512 480.275 727.564 480.85 727.67L471.698 738.03L469.938 737.924L468.178 737.749L477.33 727.389Z" fill="#DBDBDB"/>
<path d="M480.832 727.67L480.726 734.939L471.574 745.317L471.68 738.03L480.832 727.67Z" fill="#DBDBDB"/>
<path d="M464.535 727.95C468.769 727.323 473.057 727.135 477.33 727.388L468.161 737.748L469.921 737.924L471.681 738.029L480.833 727.669C490.108 728.688 495.599 731.532 493.153 734.236C491.886 735.676 488.647 736.8 484.353 737.467C480.119 738.094 475.831 738.282 471.558 738.029L469.798 737.924L468.038 737.748C458.745 736.73 453.271 733.903 455.718 731.181C457.073 729.741 460.311 728.617 464.535 727.95Z" fill="white"/>
<path d="M541.323 733.517L541.429 740.787C541.432 741.024 541.484 741.259 541.58 741.476C541.677 741.694 541.817 741.889 541.992 742.051C543.259 743.491 546.498 744.632 550.704 745.299C554.945 745.915 559.237 746.109 563.517 745.879L565.277 745.738C565.84 745.738 566.438 745.65 567.037 745.563C574.886 744.702 580.008 742.56 579.973 740.295V733.025C579.973 735.291 574.851 737.433 567.019 738.293L565.259 738.469L563.499 738.592C559.22 738.857 554.924 738.663 550.686 738.012C546.48 737.362 543.242 736.256 541.974 734.781C541.784 734.628 541.627 734.436 541.515 734.218C541.403 734 541.337 733.761 541.323 733.517Z" fill="#DBDBDB"/>
<path d="M565.189 738.469L565.277 745.738C565.858 745.738 566.456 745.633 567.037 745.58L566.931 738.311L565.189 738.469Z" fill="#DBDBDB"/>
<path d="M557.761 727.932L556.001 728.055L554.241 728.213L563.394 738.59L565.154 738.467L566.914 738.309L557.761 727.932Z" fill="#DBDBDB"/>
<path d="M554.259 728.213L554.347 735.5L563.517 745.86L563.411 738.59L554.259 728.213Z" fill="#DBDBDB"/>
<path d="M570.539 728.493C566.31 727.876 562.029 727.687 557.762 727.932L566.914 738.309L565.154 738.467L563.394 738.59L554.242 728.213C544.949 729.249 539.475 732.076 541.922 734.78C543.189 736.219 546.427 737.361 550.634 738.011C554.873 738.643 559.167 738.837 563.446 738.59L565.206 738.467L566.966 738.309C576.277 737.291 581.75 734.446 579.286 731.742C578.019 730.302 574.763 729.161 570.539 728.493Z" fill="white"/>
<path d="M496.954 769.375L497.042 776.662C497.045 776.899 497.096 777.134 497.193 777.351C497.29 777.569 497.43 777.764 497.605 777.926C498.872 779.366 502.11 780.489 506.317 781.157C510.558 781.772 514.85 781.966 519.13 781.736L520.89 781.613L522.65 781.438C530.499 780.577 535.621 778.417 535.603 776.17L535.498 768.918C535.498 771.166 530.376 773.308 522.544 774.186L520.784 774.361L519.024 774.484C514.739 774.75 510.437 774.555 506.194 773.905C501.987 773.255 498.749 772.149 497.482 770.674C497.141 770.327 496.951 769.86 496.954 769.375Z" fill="#DBDBDB"/>
<path d="M520.802 774.396L520.907 781.683L522.667 781.508L522.562 774.238L520.802 774.396Z" fill="#DBDBDB"/>
<path d="M513.374 763.861L511.614 763.984L509.854 764.16L519.006 774.52L520.766 774.397L522.526 774.239L513.374 763.861Z" fill="#DBDBDB"/>
<path d="M509.872 764.088L509.96 771.357L519.13 781.717L519.024 774.448L509.872 764.088Z" fill="#DBDBDB"/>
<path d="M526.24 764.371C522.006 763.738 517.718 763.544 513.445 763.792L522.597 774.169L520.837 774.327L519.077 774.45L509.925 764.09C500.65 765.109 495.158 767.936 497.605 770.657C498.872 772.079 502.11 773.221 506.317 773.888C510.558 774.505 514.851 774.694 519.13 774.45L520.89 774.327L522.65 774.169C531.96 773.151 537.434 770.306 534.97 767.602C533.632 766.162 530.376 765.038 526.24 764.371Z" fill="white"/>
<path d="M681.578 610.736H742.562C746.52 610.736 750.316 612.305 753.115 615.098C755.914 617.89 757.486 621.678 757.486 625.627V759.54C757.486 761.016 756.899 762.432 755.852 763.476C754.806 764.52 753.387 765.106 751.907 765.106H672.32C670.84 765.106 669.421 764.52 668.375 763.476C667.329 762.432 666.741 761.016 666.741 759.54V625.61C666.745 621.679 668.308 617.909 671.087 615.122C673.867 612.336 677.638 610.76 681.578 610.736Z" fill="#FFC727"/>
<path d="M738.373 591.137H685.784V615.176H738.373V591.137Z" fill="#FFC727"/>
<path d="M757.487 661.01H666.67V722.101H757.487V661.01Z" fill="#EBEBEB"/>
<path d="M757.487 709.617H666.67V715.148H757.487V709.617Z" fill="#455A64"/>
<path d="M757.487 667.98H666.67V673.512H757.487V667.98Z" fill="#455A64"/>
<path d="M742.034 574.316H682.123V596.583H742.034V574.316Z" fill="#455A64"/>
<path d="M745.166 596.564H678.973V603.149H745.166V596.564Z" fill="#37474F"/>
<path d="M686.91 577.424H686.136C685.592 577.424 685.15 577.864 685.15 578.407V592.49C685.15 593.033 685.592 593.473 686.136 593.473H686.91C687.455 593.473 687.896 593.033 687.896 592.49V578.407C687.896 577.864 687.455 577.424 686.91 577.424Z" fill="#37474F"/>
<path d="M692.014 577.424H691.24C690.696 577.424 690.254 577.864 690.254 578.407V592.49C690.254 593.033 690.696 593.473 691.24 593.473H692.014C692.559 593.473 693 593.033 693 592.49V578.407C693 577.864 692.559 577.424 692.014 577.424Z" fill="#37474F"/>
<path d="M696.344 577.424H697.136C697.393 577.424 697.639 577.526 697.821 577.707C698.002 577.888 698.104 578.134 698.104 578.39V592.437C698.104 592.698 698 592.948 697.815 593.132C697.631 593.317 697.38 593.42 697.118 593.42H696.326C696.065 593.42 695.814 593.317 695.63 593.132C695.445 592.948 695.341 592.698 695.341 592.437V578.39C695.343 578.261 695.371 578.133 695.423 578.015C695.474 577.896 695.549 577.789 695.642 577.7C695.735 577.61 695.845 577.539 695.966 577.492C696.086 577.445 696.215 577.422 696.344 577.424Z" fill="#37474F"/>
<path d="M702.24 577.424H701.466C700.921 577.424 700.48 577.864 700.48 578.407V592.49C700.48 593.033 700.921 593.473 701.466 593.473H702.24C702.784 593.473 703.226 593.033 703.226 592.49V578.407C703.226 577.864 702.784 577.424 702.24 577.424Z" fill="#37474F"/>
<path d="M707.362 577.424H706.587C706.043 577.424 705.602 577.864 705.602 578.407V592.49C705.602 593.033 706.043 593.473 706.587 593.473H707.362C707.906 593.473 708.347 593.033 708.347 592.49V578.407C708.347 577.864 707.906 577.424 707.362 577.424Z" fill="#37474F"/>
<path d="M711.674 577.424H712.466C712.727 577.424 712.978 577.527 713.163 577.712C713.347 577.896 713.451 578.146 713.451 578.407V592.455C713.451 592.715 713.347 592.965 713.163 593.15C712.978 593.334 712.727 593.438 712.466 593.438H711.674C711.417 593.438 711.171 593.336 710.989 593.155C710.808 592.974 710.706 592.728 710.706 592.472V578.425C710.703 578.296 710.726 578.167 710.774 578.047C710.821 577.927 710.892 577.817 710.982 577.724C711.072 577.631 711.179 577.557 711.298 577.505C711.416 577.454 711.544 577.426 711.674 577.424Z" fill="#37474F"/>
<path d="M717.57 577.424H716.795C716.251 577.424 715.81 577.864 715.81 578.407V592.49C715.81 593.033 716.251 593.473 716.795 593.473H717.57C718.114 593.473 718.555 593.033 718.555 592.49V578.407C718.555 577.864 718.114 577.424 717.57 577.424Z" fill="#37474F"/>
<path d="M722.691 577.424H721.917C721.373 577.424 720.931 577.864 720.931 578.407V592.49C720.931 593.033 721.373 593.473 721.917 593.473H722.691C723.236 593.473 723.677 593.033 723.677 592.49V578.407C723.677 577.864 723.236 577.424 722.691 577.424Z" fill="#37474F"/>
<path d="M727.021 577.424H727.813C728.074 577.424 728.325 577.527 728.51 577.712C728.695 577.896 728.798 578.146 728.798 578.407V592.455C728.798 592.715 728.695 592.965 728.51 593.15C728.325 593.334 728.074 593.438 727.813 593.438H727.021C726.764 593.438 726.518 593.336 726.336 593.155C726.155 592.974 726.053 592.728 726.053 592.472V578.425C726.051 578.296 726.074 578.167 726.121 578.047C726.169 577.927 726.239 577.817 726.329 577.724C726.419 577.631 726.526 577.557 726.645 577.505C726.764 577.454 726.891 577.426 727.021 577.424Z" fill="#37474F"/>
<path d="M732.899 577.424H732.125C731.58 577.424 731.139 577.864 731.139 578.407V592.49C731.139 593.033 731.58 593.473 732.125 593.473H732.899C733.443 593.473 733.885 593.033 733.885 592.49V578.407C733.885 577.864 733.443 577.424 732.899 577.424Z" fill="#37474F"/>
<path d="M738.021 577.424H737.246C736.702 577.424 736.261 577.864 736.261 578.407V592.49C736.261 593.033 736.702 593.473 737.246 593.473H738.021C738.565 593.473 739.006 593.033 739.006 592.49V578.407C739.006 577.864 738.565 577.424 738.021 577.424Z" fill="#37474F"/>
<path d="M303.391 801.863L303.897 750.959L297.157 750.892L296.65 801.796L303.391 801.863Z" fill="#FFC727"/>
<path opacity="0.1" d="M303.391 801.863L303.897 750.959L297.157 750.892L296.65 801.796L303.391 801.863Z" fill="black"/>
<path d="M257.691 792.415L258.001 761.248L251.261 761.181L250.95 792.348L257.691 792.415Z" fill="#FFC727"/>
<path opacity="0.1" d="M257.691 792.415L258.001 761.248L251.261 761.181L250.95 792.348L257.691 792.415Z" fill="black"/>
<path d="M296.836 785.458L297.001 768.918L257.931 768.53L257.766 785.07L296.836 785.458Z" fill="#FFC727"/>
<path opacity="0.2" d="M290.506 785.388L292.811 768.865L296.982 768.918L296.806 785.441L290.506 785.388Z" fill="black"/>
<path d="M446.899 777.908C453.675 777.75 460.451 777.715 467.245 777.68H487.573L507.901 778.013L518.056 778.277C521.453 778.4 524.832 778.487 528.229 778.663C524.832 778.751 521.453 778.768 518.056 778.839H507.883H487.555L467.227 778.505C460.451 778.312 453.675 778.136 446.899 777.908Z" fill="#263238"/>
<path d="M442.057 796.027L442.42 759.592L303.827 758.216L303.464 794.651L442.057 796.027Z" fill="#FFC727"/>
<path opacity="0.6" d="M442.057 796.027L442.42 759.592L303.827 758.216L303.464 794.651L442.057 796.027Z" fill="white"/>
<path d="M442.108 791.236L442.375 764.389L310.347 763.078L310.079 789.926L442.108 791.236Z" fill="#FFC727"/>
<path d="M428.023 767.619L428.091 760.842L427.281 760.834L427.214 767.611L428.023 767.619Z" fill="#263238"/>
<path d="M425.322 767.637L425.39 760.859L424.58 760.851L424.513 767.629L425.322 767.637Z" fill="#263238"/>
<path d="M422.586 767.602L422.654 760.824L421.844 760.816L421.777 767.594L422.586 767.602Z" fill="#263238"/>
<path d="M419.868 767.586L419.935 760.809L419.126 760.801L419.058 767.578L419.868 767.586Z" fill="#263238"/>
<path d="M417.09 772.495L417.207 760.748L416.397 760.74L416.28 772.487L417.09 772.495Z" fill="#263238"/>
<path d="M414.553 767.533L414.62 760.756L413.811 760.748L413.743 767.525L414.553 767.533Z" fill="#263238"/>
<path d="M411.817 767.498L411.884 760.721L411.075 760.713L411.007 767.49L411.817 767.498Z" fill="#263238"/>
<path d="M409.098 767.446L409.166 760.668L408.356 760.66L408.289 767.438L409.098 767.446Z" fill="#263238"/>
<path d="M406.321 767.409L406.389 760.631L405.579 760.623L405.511 767.401L406.321 767.409Z" fill="#263238"/>
<path d="M403.584 772.374L403.701 760.627L402.892 760.619L402.775 772.366L403.584 772.374Z" fill="#263238"/>
<path d="M401.065 767.395L401.132 760.617L400.323 760.609L400.255 767.387L401.065 767.395Z" fill="#263238"/>
<path d="M398.311 767.324L398.379 760.547L397.569 760.539L397.501 767.316L398.311 767.324Z" fill="#263238"/>
<path d="M395.592 767.307L395.66 760.529L394.85 760.521L394.783 767.299L395.592 767.307Z" fill="#263238"/>
<path d="M392.874 767.326L392.941 760.549L392.132 760.541L392.064 767.318L392.874 767.326Z" fill="#263238"/>
<path d="M390.096 772.252L390.213 760.506L389.403 760.498L389.286 772.244L390.096 772.252Z" fill="#263238"/>
<path d="M387.559 767.256L387.626 760.479L386.817 760.47L386.749 767.248L387.559 767.256Z" fill="#263238"/>
<path d="M384.823 767.203L384.89 760.426L384.081 760.418L384.013 767.195L384.823 767.203Z" fill="#263238"/>
<path d="M382.104 767.205L382.172 760.428L381.362 760.42L381.295 767.197L382.104 767.205Z" fill="#263238"/>
<path d="M379.368 767.135L379.436 760.357L378.626 760.349L378.559 767.127L379.368 767.135Z" fill="#263238"/>
<path d="M376.608 772.098L376.725 760.352L375.915 760.344L375.798 772.09L376.608 772.098Z" fill="#263238"/>
<path d="M374.053 767.117L374.121 760.34L373.311 760.332L373.243 767.109L374.053 767.117Z" fill="#263238"/>
<path d="M371.317 767.066L371.385 760.289L370.575 760.281L370.507 767.058L371.317 767.066Z" fill="#263238"/>
<path d="M368.616 767.065L368.684 760.287L367.874 760.279L367.807 767.057L368.616 767.065Z" fill="#263238"/>
<path d="M365.88 766.996L365.948 760.219L365.138 760.211L365.07 766.988L365.88 766.996Z" fill="#263238"/>
<path d="M363.102 771.977L363.219 760.23L362.41 760.222L362.292 771.969L363.102 771.977Z" fill="#263238"/>
<path d="M360.565 766.979L360.632 760.201L359.823 760.193L359.755 766.971L360.565 766.979Z" fill="#263238"/>
<path d="M357.846 766.963L357.914 760.186L357.104 760.178L357.037 766.955L357.846 766.963Z" fill="#263238"/>
<path d="M355.128 766.928L355.196 760.15L354.386 760.142L354.318 766.92L355.128 766.928Z" fill="#263238"/>
<path d="M352.374 766.875L352.442 760.098L351.632 760.09L351.565 766.867L352.374 766.875Z" fill="#263238"/>
<path d="M349.614 771.856L349.731 760.109L348.921 760.101L348.804 771.848L349.614 771.856Z" fill="#263238"/>
<path d="M347.059 766.823L347.127 760.045L346.317 760.037L346.25 766.814L347.059 766.823Z" fill="#263238"/>
<path d="M344.341 766.807L344.408 760.029L343.599 760.021L343.531 766.799L344.341 766.807Z" fill="#263238"/>
<path d="M341.605 766.772L341.672 759.994L340.863 759.986L340.795 766.764L341.605 766.772Z" fill="#263238"/>
<path d="M338.886 766.754L338.954 759.977L338.144 759.969L338.077 766.746L338.886 766.754Z" fill="#263238"/>
<path d="M336.126 771.699L336.243 759.953L335.433 759.945L335.316 771.691L336.126 771.699Z" fill="#263238"/>
<path d="M333.571 766.701L333.639 759.924L332.829 759.916L332.762 766.693L333.571 766.701Z" fill="#263238"/>
<path d="M330.835 766.668L330.903 759.891L330.093 759.883L330.025 766.66L330.835 766.668Z" fill="#263238"/>
<path d="M328.099 766.615L328.166 759.838L327.357 759.83L327.289 766.607L328.099 766.615Z" fill="#263238"/>
<path d="M325.398 766.651L325.466 759.873L324.656 759.865L324.588 766.643L325.398 766.651Z" fill="#263238"/>
<path d="M322.602 771.561L322.719 759.814L321.91 759.806L321.793 771.553L322.602 771.561Z" fill="#263238"/>
<path d="M320.065 766.565L320.133 759.787L319.323 759.779L319.256 766.557L320.065 766.565Z" fill="#263238"/>
<path d="M317.347 766.565L317.414 759.787L316.605 759.779L316.537 766.557L317.347 766.565Z" fill="#263238"/>
<path d="M314.628 766.512L314.696 759.734L313.886 759.726L313.819 766.504L314.628 766.512Z" fill="#263238"/>
<path d="M311.892 766.512L311.96 759.734L311.15 759.726L311.083 766.504L311.892 766.512Z" fill="#263238"/>
<path d="M309.114 771.44L309.231 759.693L308.422 759.685L308.305 771.432L309.114 771.44Z" fill="#263238"/>
<path d="M442.056 796.013L442.42 759.578L431.966 759.474L431.603 795.91L442.056 796.013Z" fill="#263238"/>
<path d="M454.095 790.243L454.34 765.625L442.373 765.506L442.128 790.124L454.095 790.243Z" fill="#FFC727"/>
<path d="M468.512 781.211L468.565 774.872L454.238 773.59L454.151 782.211L468.512 781.211Z" fill="#FFC727"/>
<path opacity="0.1" d="M454.151 782.21L454.238 773.605L458.304 773.957L457.6 781.964L454.151 782.21Z" fill="black"/>
</svg>
