<svg width="930" height="923" viewBox="0 0 930 923" fill="none" xmlns="http://www.w3.org/2000/svg">
<path d="M465 894.893C721.812 894.893 930 788.313 930 656.84C930 525.368 721.812 418.788 465 418.788C208.188 418.788 0 525.368 0 656.84C0 788.313 208.188 894.893 465 894.893Z" fill="#FAFAFA"/>
<path d="M730.094 810.516C800.064 810.516 856.786 775.477 856.786 732.256C856.786 689.034 800.064 653.996 730.094 653.996C660.123 653.996 603.401 689.034 603.401 732.256C603.401 775.477 660.123 810.516 730.094 810.516Z" fill="#E0E0E0"/>
<path d="M429.348 591.828L348.165 544.974C346.818 544.283 345.325 543.923 343.811 543.923C342.297 543.923 340.805 544.283 339.457 544.974L70.389 700.344C69.8617 700.52 69.4032 700.857 69.0782 701.308C68.7533 701.759 68.5785 702.301 68.5785 702.857C68.5785 703.413 68.7533 703.955 69.0782 704.406C69.4032 704.857 69.8617 705.194 70.389 705.37L151.552 752.244C152.904 752.92 154.394 753.272 155.906 753.272C157.417 753.272 158.908 752.92 160.26 752.244L184.243 738.393L405.346 611.077L429.367 596.952C429.91 596.777 430.383 596.434 430.718 595.972C431.053 595.51 431.233 594.954 431.231 594.383C431.228 593.813 431.045 593.258 430.706 592.798C430.368 592.339 429.892 591.999 429.348 591.828V591.828Z" fill="#E0E0E0"/>
<path d="M794.287 703.15L781.741 696.487C781.741 696.487 782.968 635.235 795.671 587.796C808.685 539.227 846.558 485.573 882.347 505.679C918.135 525.784 854.526 567.106 835.395 606.986C816.263 646.866 794.287 703.15 794.287 703.15Z" fill="#3FC68D"/>
<path opacity="0.15" d="M794.287 703.15L781.741 696.487C781.741 696.487 782.968 635.235 795.671 587.796C808.685 539.227 846.558 485.573 882.347 505.679C918.135 525.784 854.526 567.106 835.395 606.986C816.263 646.866 794.287 703.15 794.287 703.15Z" fill="black"/>
<path d="M792.632 688.616C792.465 688.611 792.302 688.573 792.15 688.505C791.998 688.437 791.861 688.339 791.747 688.218C791.633 688.097 791.544 687.954 791.486 687.799C791.427 687.643 791.399 687.477 791.404 687.311C794.093 592.257 835.648 534.22 870.424 513.413C870.713 513.24 871.059 513.189 871.386 513.271C871.713 513.353 871.994 513.562 872.167 513.852C872.34 514.141 872.391 514.487 872.309 514.814C872.227 515.141 872.018 515.422 871.729 515.595C837.499 536.071 796.606 593.349 793.937 687.369C793.934 687.537 793.898 687.703 793.831 687.857C793.764 688.011 793.667 688.15 793.545 688.266C793.424 688.382 793.28 688.473 793.124 688.533C792.967 688.593 792.799 688.621 792.632 688.616Z" fill="white"/>
<path d="M799.957 706.072L788.755 700.325C788.755 700.325 790.138 670.244 813.185 631.046C833.641 596.231 875.099 568.956 892.517 578.678C906.037 586.198 909.154 602.68 896.199 613.649C883.243 624.617 823.433 647.625 799.957 706.072Z" fill="#3FC68D"/>
<path d="M795.456 696.467C797.405 696.856 798.086 692.044 798.476 690.817C799.216 688.518 799.996 686.258 800.853 683.998C802.531 679.603 804.436 675.298 806.561 671.101C810.653 663.028 815.444 655.329 820.881 648.093C825.961 641.318 831.501 634.9 837.46 628.883C842.837 623.473 848.495 618.348 854.409 613.531C859.358 609.479 864.501 605.641 869.781 602.037C873.677 599.387 877.574 596.855 881.645 594.478C883.769 593.231 885.892 592.003 888.094 590.874L888.717 590.562C889.066 590.391 889.333 590.089 889.459 589.722C889.585 589.355 889.56 588.953 889.39 588.604C889.219 588.255 888.917 587.988 888.55 587.862C888.183 587.736 887.78 587.761 887.432 587.932C886.068 588.594 884.763 589.334 883.535 590.075C880.106 592.023 876.755 593.971 873.463 596.153C868.579 599.309 863.813 602.647 859.163 606.167C853.396 610.531 847.857 615.161 842.545 620.058C836.489 625.603 830.789 631.525 825.478 637.787C819.72 644.538 814.509 651.736 809.893 659.314C804.982 667.334 800.871 675.817 797.619 684.641C797.008 686.343 796.424 688.038 795.865 689.726C795.046 691.411 794.55 693.235 794.404 695.103C794.428 695.4 794.534 695.684 794.709 695.925C794.884 696.165 795.123 696.353 795.398 696.467H795.456Z" fill="white"/>
<path d="M159.695 649.73C159.695 649.73 160.007 611.525 144.986 579.906C129.965 548.286 106.47 526.895 82.6432 522.005C58.8166 517.115 36.8407 536.792 60.6089 555.124C84.3771 573.457 128.037 594.673 141.986 654.055L159.695 649.73Z" fill="#3FC68D"/>
<path opacity="0.15" d="M159.695 649.73C159.695 649.73 160.007 611.525 144.986 579.906C129.965 548.286 106.47 526.895 82.6432 522.005C58.8166 517.115 36.8407 536.792 60.6089 555.124C84.3771 573.457 128.037 594.673 141.986 654.055L159.695 649.73Z" fill="black"/>
<path d="M149.759 643.125C149.511 643.125 149.271 643.031 149.09 642.861C148.909 642.69 148.8 642.457 148.785 642.209C145.123 581.055 94.7417 541.292 69.8435 534.512C69.5963 534.444 69.386 534.281 69.2584 534.058C69.1307 533.836 69.0959 533.572 69.1617 533.324C69.2302 533.071 69.3955 532.856 69.6216 532.725C69.8477 532.594 70.1164 532.557 70.3696 532.622C95.6964 539.538 147.012 579.964 150.733 642.092C150.74 642.348 150.649 642.597 150.479 642.789C150.309 642.98 150.073 643.1 149.818 643.125H149.759Z" fill="white"/>
<path d="M162.773 702.176C167.6 696.085 170.838 688.892 172.198 681.241C173.559 673.59 172.998 665.721 170.566 658.341C169.152 653.884 166.889 649.743 163.903 646.145C161.507 643.32 158.059 641.859 155.253 639.501C149.214 634.495 142.2 629.176 140.018 621.227C138.265 614.896 138.635 608.895 135.128 602.953C133.062 599.232 129.771 596.341 125.816 594.77C120.653 592.822 114.964 594.108 109.509 594.77C101.716 595.647 95.8716 592.959 89.1307 589.374C81.708 585.477 73.0385 582.399 64.9923 584.796C62.3755 585.571 59.9508 586.887 57.8754 588.66C55.7999 590.432 54.12 592.621 52.9444 595.084C51.7689 597.547 51.124 600.23 51.0515 602.958C50.9791 605.686 51.4807 608.399 52.5238 610.921C54.3161 615.285 57.6281 618.831 60.0634 622.883C62.4986 626.936 63.7845 631.572 62.0116 635.995C60.6478 639.268 58.1151 641.839 57.1021 645.171C54.2187 653.938 55.8357 661.731 64.5443 666.251C73.6424 670.907 87.9228 667.4 92.4817 678.836C94.1961 683.18 94.2545 687.993 95.1897 692.571C97.1092 701.785 102.466 709.921 110.171 715.326C120.633 722.593 134.836 720.82 145.687 715.755C152.354 712.607 158.202 707.96 162.773 702.176Z" fill="#3FC68D"/>
<path d="M80.7536 646.846C80.9665 646.882 81.1853 646.848 81.377 646.748C89.0504 643.782 97.2852 642.551 105.491 643.144C113.696 643.737 121.668 646.139 128.836 650.177C129.081 650.309 129.369 650.337 129.635 650.257C129.902 650.177 130.126 649.994 130.258 649.749C130.326 649.629 130.37 649.497 130.386 649.36C130.403 649.223 130.392 649.084 130.353 648.951C130.315 648.819 130.251 648.695 130.164 648.588C130.078 648.481 129.97 648.392 129.849 648.327C122.402 644.145 114.122 641.665 105.602 641.065C97.0833 640.465 88.537 641.761 80.5783 644.859C80.3911 644.961 80.2396 645.119 80.1439 645.309C80.0482 645.5 80.0128 645.716 80.0424 645.927C80.072 646.138 80.1652 646.336 80.3096 646.493C80.454 646.65 80.6429 646.76 80.851 646.807L80.7536 646.846Z" fill="white"/>
<path d="M148.785 702.506C148.53 702.512 148.283 702.417 148.097 702.242C147.912 702.067 147.802 701.826 147.792 701.571C145.98 657.542 101.775 610.979 72.1424 598.316C72.0227 598.267 71.914 598.194 71.8226 598.103C71.7311 598.012 71.6588 597.903 71.6099 597.783C71.5609 597.663 71.5363 597.535 71.5374 597.406C71.5385 597.277 71.5654 597.149 71.6164 597.03C71.723 596.79 71.9201 596.603 72.1647 596.508C72.4092 596.413 72.6813 596.418 72.9217 596.523C103.022 609.421 147.908 656.762 149.759 701.532C149.764 701.663 149.744 701.793 149.699 701.916C149.654 702.038 149.585 702.151 149.496 702.246C149.407 702.342 149.301 702.42 149.182 702.474C149.063 702.529 148.935 702.56 148.805 702.565L148.785 702.506Z" fill="white"/>
<path d="M392.78 73.3701L172.281 200.628C170.097 202.053 168.282 203.975 166.985 206.238C165.688 208.5 164.946 211.037 164.819 213.642V732.899C164.819 737.653 168.17 739.582 172.281 737.185L392.78 609.889C394.948 608.467 396.753 606.555 398.049 604.309C399.345 602.062 400.096 599.543 400.241 596.953V77.6172C400.241 72.8636 396.89 70.9154 392.78 73.3701ZM389.507 558.476C389.507 562.547 386.643 565.139 383.116 567.165L181.203 683.785C177.697 685.733 174.813 684.174 174.813 680.083V248.261C174.814 246.029 175.403 243.835 176.522 241.903C177.64 239.97 179.248 238.367 181.184 237.254L383.097 120.614C383.745 120.238 384.48 120.039 385.23 120.037C385.979 120.035 386.716 120.231 387.365 120.604C388.015 120.977 388.555 121.515 388.931 122.163C389.307 122.811 389.505 123.547 389.507 124.296V558.476Z" fill="#455A64"/>
<path d="M389.507 558.475C389.507 562.547 386.643 565.138 383.116 567.164L181.203 683.785C177.697 685.733 174.813 684.174 174.813 680.083V248.261C174.814 246.028 175.403 243.835 176.522 241.903C177.64 239.97 179.248 238.367 181.184 237.254L383.097 120.614C383.745 120.238 384.48 120.039 385.23 120.037C385.979 120.035 386.716 120.231 387.365 120.604C388.015 120.977 388.555 121.515 388.931 122.163C389.307 122.811 389.505 123.547 389.507 124.296V558.475Z" fill="#263238"/>
<path d="M181.203 683.784L383.116 567.203C384.534 566.437 385.844 565.487 387.013 564.378L174.813 444.875V680.083C174.813 684.174 177.697 685.81 181.203 683.784Z" fill="#37474F"/>
<path d="M373.161 550.896V126.361L181.184 237.253C179.248 238.366 177.64 239.97 176.522 241.902C175.403 243.835 174.814 246.028 174.813 248.261V670.419L366.771 559.586C370.297 557.559 373.161 554.968 373.161 550.896Z" fill="#FFC727"/>
<path d="M171.345 737.711C169.119 738.65 166.715 739.094 164.3 739.014C161.885 738.933 159.516 738.329 157.357 737.243L148.824 732.314C146.647 730.904 144.834 728.999 143.533 726.754C142.233 724.509 141.483 721.988 141.343 719.398V200.003C141.392 198.078 141.829 196.183 142.629 194.432C142.901 193.828 143.194 193.243 143.525 192.639L166.903 206.277C166.412 207.155 165.982 208.066 165.618 209.004C165.05 210.479 164.74 212.041 164.702 213.621V732.899C164.819 737.282 167.663 739.269 171.345 737.711Z" fill="#263238"/>
<path d="M289.115 633.092C293.888 633.092 294.395 638.449 294.395 640.748C294.109 645.354 292.759 649.832 290.45 653.827C288.141 657.823 284.937 661.229 281.088 663.776C279.544 664.757 277.772 665.321 275.945 665.413C271.172 665.413 270.665 660.055 270.665 657.756C270.953 653.15 272.302 648.673 274.607 644.675C276.912 640.677 280.11 637.266 283.952 634.709C285.509 633.743 287.285 633.187 289.115 633.092Z" fill="#FFC727"/>
<path d="M282.374 145.278C284.322 144.109 286.017 145.044 286.017 147.382C285.947 148.646 285.58 149.876 284.947 150.972C284.315 152.068 283.433 153.001 282.374 153.694C280.426 154.844 278.712 153.909 278.712 151.59C278.778 150.323 279.145 149.09 279.782 147.993C280.419 146.895 281.307 145.965 282.374 145.278Z" fill="#263238"/>
<path d="M258.84 176.04C260.632 175.008 262.074 175.846 262.074 177.989C262.014 179.11 261.69 180.201 261.128 181.173C260.566 182.144 259.782 182.969 258.84 183.58C257.047 184.612 255.606 183.775 255.606 181.632C255.668 180.511 255.993 179.421 256.555 178.45C257.117 177.479 257.9 176.653 258.84 176.04Z" fill="#263238"/>
<path d="M269.652 169.651L305.87 148.746C307.818 147.597 309.454 148.415 309.454 150.558C309.359 151.762 308.986 152.926 308.364 153.961C307.742 154.996 306.888 155.871 305.87 156.52L269.652 177.424C267.704 178.573 266.068 177.755 266.068 175.612C266.163 174.409 266.536 173.244 267.158 172.209C267.78 171.175 268.634 170.299 269.652 169.651Z" fill="#263238"/>
<path d="M400.163 76.4283C399.618 72.5319 396.52 71.1487 392.799 73.3112L172.261 200.627C170.054 201.997 168.242 203.917 167.001 206.199L143.622 192.561C144.882 190.298 146.7 188.393 148.902 187.029L369.304 59.7321C371.616 58.5597 374.172 57.9487 376.765 57.9487C379.358 57.9487 381.914 58.5597 384.227 59.7321L392.799 64.6416C394.797 65.9668 396.488 67.7044 397.758 69.7374C399.028 71.7705 399.848 74.0519 400.163 76.4283Z" fill="#37474F"/>
<path d="M342.321 92.1893C341.176 92.8005 339.903 93.1315 338.606 93.1552C337.309 93.1789 336.025 92.8946 334.859 92.3256C334.469 92.1591 334.13 91.8901 333.88 91.5472C333.63 91.2043 333.477 90.8001 333.437 90.3774C333.437 89.8319 333.437 87.8058 333.437 87.2408C333.499 86.7546 333.687 86.2929 333.98 85.9003C334.274 85.5078 334.664 85.1978 335.112 85.0003L358.744 71.3628C359.893 70.7559 361.169 70.4274 362.469 70.4037C363.768 70.38 365.055 70.6618 366.225 71.2265C366.609 71.4008 366.94 71.6722 367.186 72.014C367.432 72.3557 367.584 72.7558 367.628 73.1747C367.628 73.7396 367.628 75.8437 367.628 76.3892C367.567 76.8782 367.38 77.3432 367.087 77.7391C366.793 78.135 366.403 78.4485 365.953 78.6491L342.321 92.1893Z" fill="#FFC727"/>
<path opacity="0.25" d="M342.321 92.1893C341.176 92.8005 339.903 93.1315 338.606 93.1552C337.309 93.1789 336.025 92.8946 334.859 92.3256C334.469 92.1591 334.13 91.8901 333.88 91.5472C333.63 91.2043 333.477 90.8001 333.437 90.3774C333.437 89.8319 333.437 87.8058 333.437 87.2408C333.499 86.7546 333.687 86.2929 333.98 85.9003C334.274 85.5078 334.664 85.1978 335.112 85.0003L358.744 71.3628C359.893 70.7559 361.169 70.4274 362.469 70.4037C363.768 70.38 365.055 70.6618 366.225 71.2265C366.609 71.4008 366.94 71.6722 367.186 72.014C367.432 72.3557 367.584 72.7558 367.628 73.1747C367.628 73.7396 367.628 75.8437 367.628 76.3892C367.567 76.8782 367.38 77.3432 367.087 77.7391C366.793 78.135 366.403 78.4485 365.953 78.6491L342.321 92.1893Z" fill="black"/>
<path d="M342.321 89.0913L365.953 75.4538C368.096 74.207 368.193 72.2782 366.206 71.1288C365.035 70.5642 363.748 70.2824 362.449 70.3061C361.15 70.3298 359.874 70.6583 358.725 71.2652L335.093 84.9027C332.969 86.13 332.852 88.0588 334.859 89.2082C336.025 89.7756 337.308 90.0607 338.604 90.0404C339.9 90.0201 341.173 89.695 342.321 89.0913Z" fill="#FFC727"/>
<path opacity="0.3" d="M342.321 89.0913L365.953 75.4538C368.096 74.207 368.193 72.2782 366.206 71.1288C365.035 70.5642 363.748 70.2824 362.449 70.3061C361.15 70.3298 359.874 70.6583 358.725 71.2652L335.093 84.9027C332.969 86.13 332.852 88.0588 334.859 89.2082C336.025 89.7756 337.308 90.0607 338.604 90.0404C339.9 90.0201 341.173 89.695 342.321 89.0913Z" fill="black"/>
<path d="M156.11 278.264C156.064 276.967 155.712 275.7 155.082 274.565C154.452 273.431 153.563 272.462 152.487 271.737C152.134 271.477 151.716 271.319 151.28 271.281C150.843 271.243 150.405 271.327 150.012 271.523C149.564 271.796 147.772 272.789 147.304 273.081C146.913 273.378 146.605 273.77 146.411 274.221C146.216 274.672 146.141 275.165 146.194 275.653V333.554C146.241 334.848 146.592 336.113 147.218 337.247C147.844 338.381 148.728 339.351 149.798 340.08C150.15 340.317 150.557 340.46 150.981 340.494C151.404 340.528 151.828 340.453 152.214 340.275C152.72 340.022 154.532 338.97 155.019 338.678C155.411 338.381 155.719 337.989 155.913 337.538C156.108 337.087 156.182 336.594 156.13 336.106L156.11 278.264Z" fill="#FFC727"/>
<path opacity="0.3" d="M156.11 278.264C156.064 276.967 155.712 275.7 155.082 274.565C154.452 273.431 153.563 272.462 152.487 271.737C152.134 271.477 151.716 271.319 151.28 271.281C150.843 271.243 150.405 271.327 150.012 271.523C149.564 271.796 147.772 272.789 147.304 273.081C146.913 273.378 146.605 273.77 146.411 274.221C146.216 274.672 146.141 275.165 146.194 275.653V333.554C146.241 334.848 146.592 336.113 147.218 337.247C147.844 338.381 148.728 339.351 149.798 340.08C150.15 340.317 150.557 340.46 150.981 340.494C151.404 340.528 151.828 340.453 152.214 340.275C152.72 340.022 154.532 338.97 155.019 338.678C155.411 338.381 155.719 337.989 155.913 337.538C156.108 337.087 156.182 336.594 156.13 336.106L156.11 278.264Z" fill="black"/>
<path d="M153.422 279.881V337.782C153.422 340.237 151.805 341.289 149.798 340.139C148.728 339.41 147.844 338.44 147.218 337.306C146.592 336.172 146.241 334.907 146.194 333.613V275.653C146.194 273.179 147.811 272.127 149.798 273.277C150.883 274.011 151.777 274.993 152.407 276.142C153.037 277.29 153.385 278.572 153.422 279.881V279.881Z" fill="#FFC727"/>
<path opacity="0.4" d="M153.422 279.881V337.782C153.422 340.237 151.805 341.289 149.798 340.139C148.728 339.41 147.844 338.44 147.218 337.306C146.592 336.172 146.241 334.907 146.194 333.613V275.653C146.194 273.179 147.811 272.127 149.798 273.277C150.883 274.011 151.777 274.993 152.407 276.142C153.037 277.29 153.385 278.572 153.422 279.881V279.881Z" fill="black"/>
<path d="M156.11 355.861C156.064 354.565 155.712 353.297 155.082 352.163C154.452 351.029 153.563 350.059 152.487 349.335C152.134 349.074 151.716 348.917 151.28 348.879C150.843 348.841 150.405 348.925 150.012 349.12C149.564 349.393 147.772 350.387 147.304 350.679C146.913 350.975 146.605 351.368 146.411 351.819C146.216 352.269 146.141 352.763 146.194 353.251V380.526C146.244 381.817 146.596 383.078 147.222 384.208C147.848 385.338 148.73 386.306 149.798 387.033C150.139 387.285 150.541 387.441 150.962 387.486C151.383 387.53 151.809 387.461 152.194 387.286C152.701 387.033 154.513 385.981 155 385.688C155.39 385.395 155.697 385.006 155.891 384.559C156.086 384.111 156.161 383.621 156.11 383.136V355.861Z" fill="#FFC727"/>
<path opacity="0.3" d="M156.11 355.861C156.064 354.565 155.712 353.297 155.082 352.163C154.452 351.029 153.563 350.059 152.487 349.335C152.134 349.074 151.716 348.917 151.28 348.879C150.843 348.841 150.405 348.925 150.012 349.12C149.564 349.393 147.772 350.387 147.304 350.679C146.913 350.975 146.605 351.368 146.411 351.819C146.216 352.269 146.141 352.763 146.194 353.251V380.526C146.244 381.817 146.596 383.078 147.222 384.208C147.848 385.338 148.73 386.306 149.798 387.033C150.139 387.285 150.541 387.441 150.962 387.486C151.383 387.53 151.809 387.461 152.194 387.286C152.701 387.033 154.513 385.981 155 385.688C155.39 385.395 155.697 385.006 155.891 384.559C156.086 384.111 156.161 383.621 156.11 383.136V355.861Z" fill="black"/>
<path d="M153.422 357.322V384.597C153.422 387.052 151.805 388.124 149.798 386.955C148.728 386.226 147.844 385.255 147.218 384.121C146.592 382.987 146.241 381.722 146.194 380.428V353.153C146.194 350.698 147.811 349.627 149.798 350.776C150.873 351.508 151.76 352.481 152.39 353.618C153.019 354.755 153.373 356.024 153.422 357.322Z" fill="#FFC727"/>
<path opacity="0.4" d="M153.422 357.322V384.597C153.422 387.052 151.805 388.124 149.798 386.955C148.728 386.226 147.844 385.255 147.218 384.121C146.592 382.987 146.241 381.722 146.194 380.428V353.153C146.194 350.698 147.811 349.627 149.798 350.776C150.873 351.508 151.76 352.481 152.39 353.618C153.019 354.755 153.373 356.024 153.422 357.322V357.322Z" fill="black"/>
<path d="M220.674 307.525C220.868 308.471 221.128 309.402 221.453 310.311C222.72 313.74 224.999 316.974 224.804 320.637C224.59 324.767 221.337 327.962 218.843 331.255C215.602 335.608 213.442 340.669 212.541 346.021C211.64 351.373 212.024 356.862 213.661 362.036C216.056 368.339 219.379 374.249 223.519 379.57L232.928 392.916C235.774 396.652 239.405 399.718 243.566 401.897C251.651 406.467 260.673 409.132 269.945 409.69C285.184 410.718 300.343 406.744 313.117 398.371C326.657 389.409 320.696 366.42 334.547 358.023C351.302 347.892 359.29 312.708 338.756 298.018C338.756 298.018 342.067 276.471 335.989 270.977C329.932 265.908 322.436 262.869 314.559 262.288C303.688 261.158 292.797 263.281 281.946 263.243C270.775 263.206 259.613 263.903 248.534 265.327C244.637 265.853 239.143 267.275 237.039 271.074C236.445 272.564 236.283 274.192 236.572 275.77C236.541 278.273 235.647 280.689 234.039 282.608C231.623 285.53 228.194 287.498 225.623 290.245C223.501 292.535 221.947 295.293 221.087 298.295C220.228 301.297 220.086 304.459 220.674 307.525V307.525Z" fill="#263238"/>
<path d="M328.8 338.619C346.334 339.106 348.614 342.847 364.316 358.393C377.369 371.31 420.62 411.229 420.62 411.229L472.442 425.022L460.207 456.642C460.207 456.642 448.518 456.155 425.14 456.135C410.781 456.135 405.794 452.921 391.338 443.277C383.974 438.348 342.418 411.151 342.418 411.151L328.8 338.619Z" fill="#E6E6E6"/>
<path d="M529.778 361.082L434.803 394.552L408.619 507.549L410.742 509.809L501.042 476.124L531.882 363.342L529.778 361.082Z" fill="#FFC727"/>
<path opacity="0.35" d="M436.907 396.812L410.742 509.809L408.619 507.549L434.803 394.552L436.907 396.812Z" fill="black"/>
<path opacity="0.25" d="M531.882 363.342L436.907 396.812L410.742 509.809L501.042 476.124L531.882 363.342Z" fill="black"/>
<g opacity="0.2">
<path opacity="0.2" d="M486.917 453.136C487.794 455.357 495.08 460.247 505.62 459.37L507.393 452.863L486.917 453.136Z" fill="black"/>
</g>
<g opacity="0.1">
<path opacity="0.1" d="M503.282 386.487L504.062 382.688C504.49 380.604 498.918 381.695 491.613 385.143L474.468 390.325C467.163 393.774 460.266 396.345 459.818 398.43L459.038 402.209L503.282 386.487Z" fill="black"/>
</g>
<path d="M508.932 369.343C509.205 368.038 506.984 368.31 504.003 369.109L498.529 370.96C498.529 370.96 500.769 365.466 487.814 369.012C473.572 372.908 473.261 379.98 473.261 379.98C471.033 380.946 468.749 381.779 466.422 382.474C461.688 384.013 461.182 384.929 460.792 386.253L460.091 388.65L508.504 371.622C508.504 371.622 508.738 370.648 508.932 369.343Z" fill="#37474F"/>
<path d="M503.828 376.61C499.347 378.558 497.496 379.629 496.814 382.863C496.055 386.546 495.899 388.085 495.899 388.085L470.689 398.021C470.689 398.021 472.053 392.585 472.384 390.773C472.715 388.961 469.384 388.961 465.02 390.968L466.052 386.448L505.27 371.895L503.828 376.61Z" fill="#37474F"/>
<path d="M504.568 386.546C504.568 386.546 504.938 384.851 505.367 382.747C505.795 380.642 500.224 381.753 492.918 385.201L475.773 390.384C468.468 393.832 461.552 396.404 461.123 398.488L460.344 402.385L504.568 386.546Z" fill="#37474F"/>
<path d="M521.323 401.995C521.323 401.995 517.953 414.385 517.056 417.58C516.16 420.776 500.613 427.887 492.84 428.861C477.956 430.711 476.261 433.926 479.826 444.446C483.138 454.187 492.821 457.889 506.263 456.311C512.576 455.571 521.284 449.979 524.713 440.219C529.077 427.75 526.661 414.444 528.473 407.099C530.285 399.754 525.102 397.65 521.323 401.995Z" fill="#FFC3BA"/>
<path d="M374.155 572.386L364.082 578.231L359.855 580.666L304.448 612.636L296.888 616.922L284.128 624.286L288.024 584.523L295.466 507.53V506.731L295.817 503.283L305.558 402.619L309.825 358.57L311.325 342.769L311.831 337.665H312.104C316.616 336.41 321.385 336.41 325.897 337.665C326.903 337.97 327.881 338.361 328.82 338.834C334.664 341.737 338.561 347.387 341.795 353.329C342.59 354.776 343.305 356.265 343.938 357.79C346.34 363.565 348.192 369.553 349.471 375.675V375.675C352.023 386.974 355.315 398.527 356.621 416.743C356.826 421.432 356.578 426.129 355.88 430.77C355.88 430.77 355.88 430.77 355.88 430.77C355.002 443.05 354.853 455.372 355.432 467.67C357.069 495.529 364.082 508.153 374.155 572.386Z" fill="#E0E0E0"/>
<path d="M359.855 580.626L304.447 612.597L296.888 616.922L284.127 624.286L275.341 629.351L221.999 660.133C222.564 638.703 222.817 615.461 222.311 593.504C222.155 586.159 222.096 578.659 222.408 570.983C223.421 544.331 228.486 515.751 246.644 485.67L247.482 484.151C249.625 496.873 269.107 505.133 286.641 507.081L288.589 507.257C290.79 507.471 293.07 507.568 295.427 507.568H296.908C311.734 507.432 329.287 503.945 349.51 497.107C351.458 508.406 353.406 523.232 355.491 540.571C356.426 548.364 357.374 556.67 358.335 565.489C358.725 570.418 359.329 575.464 359.855 580.626Z" fill="#FFA8A7"/>
<path d="M364.082 578.192L359.855 580.627L304.447 612.597L296.888 616.922L284.128 624.286L275.341 629.352L221.999 660.134L216.154 663.504C216.447 640.437 216.641 617.838 216.622 603.655C216.622 590.465 216.914 578.737 217.635 568.334C219.057 547.8 222.018 532.35 226.967 520.661C232.773 507.867 239.642 495.583 247.501 483.937C247.501 483.937 252.372 500.38 288.803 502.971H289.037C291.18 503.127 293.44 503.224 295.817 503.263H298.583C343.938 503.263 348.945 491.827 348.945 491.827C353.375 508.644 356.881 525.69 359.446 542.89C360.407 548.968 361.335 555.462 362.231 562.372C362.894 567.438 363.517 572.698 364.082 578.192Z" fill="#FFC727"/>
<path opacity="0.4" d="M364.082 578.192L359.855 580.627L304.447 612.597L296.888 616.922L284.128 624.286L275.341 629.352L221.999 660.134L216.154 663.504C216.447 640.437 216.641 617.838 216.622 603.655C216.622 590.465 216.914 578.737 217.635 568.334C219.057 547.8 222.018 532.35 226.967 520.661C232.773 507.867 239.642 495.583 247.501 483.937C247.501 483.937 252.372 500.38 288.803 502.971H289.037C291.18 503.127 293.44 503.224 295.817 503.263H298.583C343.938 503.263 348.945 491.827 348.945 491.827C353.375 508.644 356.881 525.69 359.446 542.89C360.407 548.968 361.335 555.463 362.231 562.372C362.894 567.438 363.517 572.698 364.082 578.192Z" fill="black"/>
<path opacity="0.2" d="M338.074 552.338C338.074 552.338 333.008 568.431 311.695 577.451L310.682 582.38L304.448 612.597L296.889 616.922L301.408 583.588L303.357 569.093C316.529 567.727 328.809 561.8 338.074 552.338Z" fill="black"/>
<path d="M273.257 342.321L251.826 344.581C237.643 348.049 231.234 354.322 229.772 366.849C229.091 372.693 225.564 388.279 230.513 407.761C234.994 425.451 246.956 468.74 246.956 468.74C246.956 468.74 219.427 504.666 214.44 566.268C264.821 599.154 342.106 581.484 363.011 561.612C361.257 542.792 349.237 491.145 347.737 474.371C347.737 474.371 348.847 448.167 350.932 436.809C366.868 419.412 364.842 402.774 357.692 389.351C344.483 364.569 324.573 342.788 318.124 342.808L273.257 342.321Z" fill="#FFC727"/>
<path opacity="0.7" d="M273.257 342.321L251.826 344.581C237.643 348.049 231.234 354.322 229.772 366.849C229.091 372.693 225.564 388.279 230.513 407.761C234.994 425.451 246.956 468.74 246.956 468.74C246.956 468.74 219.427 504.666 214.44 566.268C264.821 599.154 342.106 581.484 363.011 561.612C361.257 542.792 349.237 491.145 347.737 474.371C347.737 474.371 348.847 448.167 350.932 436.809C366.868 419.412 364.842 402.774 357.692 389.351C344.483 364.569 324.573 342.788 318.124 342.808L273.257 342.321Z" fill="white"/>
<path d="M291.823 476.456C291.823 476.845 291.823 477.196 291.823 477.488V477.995C291.836 478.157 291.836 478.32 291.823 478.482V478.482C291.083 486.275 290.206 494.555 289.271 502.991C289.271 502.991 289.271 502.991 289.271 503.107C289.134 504.471 288.979 505.835 288.823 507.218C285.959 532.642 282.549 559.82 279.919 584.562C279.276 590.563 278.692 596.407 278.166 602.096C277.348 610.61 276.471 619.942 275.575 629.371L222.233 660.153L216.388 663.524L201.484 672.115C204.485 642.6 211.479 574.217 215.375 543.358C215.823 539.87 216.408 536.383 217.07 532.915L217.596 530.382L217.83 529.35C218.083 528.181 218.336 527.051 218.609 525.902C218.882 524.752 219.135 523.778 219.388 522.745C219.992 520.388 220.635 518.07 221.337 515.81C221.668 514.719 221.979 513.628 222.33 512.556C222.681 511.485 222.973 510.413 223.324 509.361C224.025 507.257 224.707 505.192 225.428 503.185C225.419 503.147 225.419 503.107 225.428 503.068C225.759 502.114 226.11 501.12 226.46 500.224C226.928 498.899 227.415 497.613 227.902 496.328L228.487 494.789C228.779 494.087 229.032 493.405 229.305 492.723C230.259 490.327 231.253 488.048 232.13 485.924C232.325 485.457 232.539 484.989 232.734 484.541C232.928 484.093 233.24 483.43 233.474 482.885C234.058 481.521 234.643 480.255 235.208 478.989C235.442 478.443 235.695 477.917 235.929 477.411C236.162 476.904 236.494 476.242 236.747 475.696L237.117 474.917L237.507 474.157C237.532 474.057 237.579 473.964 237.643 473.884C237.696 473.742 237.761 473.606 237.838 473.475C237.885 473.388 237.924 473.297 237.955 473.202C238.117 472.927 238.26 472.64 238.383 472.345L239.689 469.812C239.689 469.676 239.825 469.579 239.864 469.462L240.371 468.527L224.161 401.313L216.096 367.921V367.375C216.466 364.414 218.94 350.445 233.201 346.198C241.252 344.12 249.5 342.892 257.807 342.536C261.002 342.341 263.886 342.263 266.243 342.204H269.964H272.204C272.21 342.25 272.21 342.295 272.204 342.341C272.321 342.633 272.653 343.51 273.159 344.873C273.214 345.102 273.292 345.324 273.393 345.536C273.395 345.568 273.395 345.601 273.393 345.633C276.9 355.257 286.738 383.273 291.628 407.606C292.485 411.814 293.187 415.925 293.693 419.821C295.154 431.998 294.083 452.376 291.823 476.456Z" fill="#FAFAFA"/>
<path d="M240.897 436.342C240.897 436.342 242.845 426.737 245.709 405.989C249.04 382.065 247.852 370.239 244.248 362.68L223.928 401.43L240.137 468.644C240.137 468.644 223.48 499.153 216.758 532.935C232.695 487.911 250.131 474.488 250.131 474.488L240.897 436.342Z" fill="#E6E6E6"/>
<path d="M312.084 327.32C318.397 327.32 319.137 328.372 324.573 335.658C327.807 340.002 348.282 373.804 348.282 373.804C348.282 373.804 331.995 352.374 319.702 345.867C317.335 344.48 314.774 343.455 312.104 342.827L312.084 327.32Z" fill="#EBEBEB"/>
<path d="M265.405 399.15C265.405 397.202 265.21 392.994 264.879 387.695C263.262 361.705 262.483 338.327 271.25 336.379L272.01 339.963C265.62 341.347 267.724 374.797 268.522 387.383C268.873 392.799 269.146 397.124 269.048 399.228L265.405 399.15Z" fill="#FFC727"/>
<path d="M236.182 228.993L249.819 240.157C250.561 239.308 251.121 238.317 251.466 237.244C251.811 236.172 251.934 235.04 251.826 233.918C251.719 232.796 251.383 231.709 250.84 230.721C250.298 229.734 249.559 228.867 248.67 228.175C246.877 226.692 244.585 225.951 242.263 226.103C239.942 226.255 237.766 227.289 236.182 228.993Z" fill="#263238"/>
<path d="M271.795 328.976C271.795 320.423 251.865 307.545 241.579 289.563C231.292 271.581 236.435 242.007 250.54 237.468C250.657 237.468 251.047 233.669 251.105 233.396C251.885 229.965 253.2 226.678 255.002 223.655C260.749 213.758 272.925 206.121 284.225 204.524C328.898 198.017 349.432 215.375 357.634 234.468C360.292 240.89 361.477 247.827 361.102 254.768C360.872 259.866 358.98 264.748 355.716 268.671C352.451 272.593 347.993 275.339 343.022 276.491L271.795 328.976Z" fill="#263238"/>
<path d="M333.768 228.077C342.516 231.974 350.834 245.28 350.698 282.725C350.581 314.481 340.84 322.507 335.931 324.865C331.021 327.222 321.416 326.014 312.084 324.592V342.827C312.084 342.827 319.079 349.704 316.624 354.029C314.169 358.355 305.11 362.017 291.024 357.595C275.068 352.588 271.425 342.009 271.425 342.009L271.055 301.993C271.055 301.993 265.697 307.623 256.249 299.363C248.456 292.524 245.65 280.816 251.514 274.386C257.379 267.957 264.899 267.451 271.679 274.64L276.549 272.068C285.238 271.055 297.979 269.594 307.37 264.86C331.45 252.605 333.943 239.319 333.768 228.077Z" fill="#FFC3BA"/>
<path d="M271.815 269.458L271.932 286.992C273.058 287.022 274.178 286.821 275.224 286.402C276.269 285.983 277.218 285.354 278.012 284.555C278.806 283.756 279.427 282.803 279.839 281.754C280.251 280.706 280.444 279.584 280.407 278.459C280.385 276.148 279.486 273.931 277.89 272.26C276.294 270.588 274.122 269.586 271.815 269.458V269.458Z" fill="#263238"/>
<path d="M334.586 271.951C334.595 272.775 334.844 273.578 335.305 274.262C335.765 274.945 336.416 275.478 337.177 275.794C337.938 276.111 338.774 276.197 339.584 276.043C340.393 275.888 341.139 275.5 341.729 274.925C342.32 274.351 342.729 273.615 342.905 272.811C343.081 272.006 343.018 271.167 342.722 270.398C342.426 269.629 341.911 268.964 341.24 268.485C340.57 268.006 339.774 267.735 338.95 267.704C338.384 267.691 337.82 267.791 337.292 267.999C336.765 268.206 336.284 268.517 335.877 268.912C335.471 269.308 335.148 269.78 334.926 270.302C334.704 270.824 334.589 271.384 334.586 271.951Z" fill="black"/>
<path d="M300.98 273.822C300.945 274.426 301.031 275.031 301.231 275.602C301.431 276.173 301.741 276.699 302.145 277.149C302.549 277.6 303.037 277.966 303.583 278.228C304.128 278.489 304.72 278.641 305.324 278.673C305.937 278.678 306.545 278.562 307.114 278.332C307.682 278.101 308.199 277.761 308.635 277.33C309.071 276.899 309.418 276.386 309.656 275.821C309.893 275.256 310.017 274.649 310.019 274.036C310.039 273.443 309.941 272.851 309.731 272.295C309.522 271.74 309.205 271.231 308.799 270.797C308.393 270.364 307.905 270.015 307.364 269.77C306.823 269.525 306.239 269.389 305.646 269.37C305.052 269.351 304.461 269.449 303.905 269.658C303.349 269.868 302.84 270.185 302.407 270.591C301.974 270.997 301.624 271.484 301.38 272.025C301.135 272.567 300.999 273.151 300.98 273.744V273.822Z" fill="black"/>
<path d="M345.73 264.1L334.879 259.795C335.13 259.064 335.529 258.394 336.051 257.825C336.573 257.256 337.206 256.801 337.912 256.489C338.618 256.176 339.381 256.012 340.153 256.008C340.925 256.004 341.689 256.158 342.399 256.463C343.829 257.065 344.972 258.193 345.592 259.615C346.213 261.037 346.262 262.643 345.73 264.1Z" fill="black"/>
<path d="M324.3 268.522L323.754 294.512L337.723 291.414L324.3 268.522Z" fill="#E9A69C"/>
<path d="M307.837 299.811L321.475 304.039C321.277 304.968 320.889 305.847 320.337 306.621C319.784 307.395 319.079 308.047 318.264 308.536C317.449 309.026 316.543 309.343 315.6 309.467C314.658 309.592 313.7 309.521 312.786 309.26C310.914 308.609 309.361 307.27 308.442 305.515C307.523 303.759 307.306 301.72 307.837 299.811Z" fill="#B16668"/>
<path d="M315.377 309.493C315.362 307.597 314.598 305.783 313.251 304.448C311.905 303.112 310.085 302.363 308.188 302.363C308 302.353 307.811 302.353 307.623 302.363C307.693 303.885 308.219 305.351 309.133 306.57C310.047 307.79 311.306 308.706 312.747 309.201C313.594 309.48 314.49 309.58 315.377 309.493Z" fill="#F28F8F"/>
<path d="M312.084 324.689C302.246 323.52 281.965 317.871 278.673 309.63C279.992 313.766 282.523 317.411 285.939 320.092C292.057 325.352 312.084 330.826 312.084 330.826V324.689Z" fill="#F28F8F"/>
<path d="M271.328 327.417C268.756 326.891 266.477 328.021 264.373 331.567C262.269 335.112 257.651 342.671 257.651 342.671C257.651 342.671 255.255 367.589 257.651 373.843C259.716 379.22 282.491 399.384 282.491 399.384C282.491 399.384 276.549 421.769 276.335 429.114C276.12 436.458 289.972 464.337 291.648 478.598C291.648 478.598 296.577 433.789 294.453 417.639C290.79 389.643 277.66 353.484 271.464 341.99L271.328 327.417Z" fill="#EBEBEB"/>
<path d="M285.257 420.152C283.737 416.535 281.947 413.038 279.9 409.691C276.666 404.333 272.672 399.19 269.068 397.865C268.521 397.648 267.941 397.529 267.353 397.514H267.159C266.565 397.548 265.983 397.693 265.444 397.943C262.6 399.209 259.599 403.086 257.164 407.547C254.67 412.028 252.615 416.738 251.027 421.614C250.092 424.633 250.501 431.043 251.612 438.368C253.794 452.59 258.645 470.358 261.353 473.865C263.338 476.315 265.683 478.45 268.308 480.196C266.701 481.26 264.966 482.117 263.145 482.749C262.115 483.124 261.027 483.316 259.931 483.314V485.866H260.242C261.401 485.847 262.55 485.657 263.652 485.301C266.205 484.472 268.617 483.257 270.802 481.697C273.108 483.07 275.611 484.082 278.224 484.697C279.455 484.992 280.727 485.071 281.984 484.931L281.673 482.398C280.582 482.49 279.483 482.405 278.419 482.145C276.545 481.656 274.739 480.936 273.042 480.002C275.515 478.034 277.681 475.709 279.471 473.105C280.991 470.787 282.861 462.799 284.264 453.623C285.121 448.148 285.822 442.265 286.212 436.907C286.641 429.426 286.446 423.016 285.257 420.152ZM277.211 471.702C275.383 474.339 273.14 476.661 270.568 478.579C267.836 476.892 265.4 474.766 263.36 472.287C260.827 468.994 256.151 451.655 254.047 437.979C252.976 431.062 252.586 425.081 253.443 422.393C255.032 417.459 257.134 412.705 259.716 408.21C262.405 403.573 265.269 400.164 267.256 400.086C269.613 400.086 273.432 404.352 276.997 409.827C277.718 410.898 278.4 412.067 279.062 413.236C280.515 415.754 281.817 418.356 282.959 421.029C284.03 423.679 284.147 429.66 283.66 436.615C283.387 440.511 282.959 444.583 282.413 448.635C280.932 459.214 278.848 469.131 277.211 471.644V471.702Z" fill="#455A64"/>
<path d="M285.472 483.43C285.502 484.173 285.311 484.909 284.923 485.544C284.535 486.179 283.967 486.685 283.291 486.997C282.615 487.309 281.862 487.413 281.127 487.297C280.392 487.181 279.708 486.849 279.162 486.343C278.615 485.838 278.231 485.182 278.058 484.458C277.885 483.734 277.93 482.975 278.189 482.277C278.447 481.579 278.907 480.974 279.51 480.537C280.113 480.101 280.832 479.853 281.575 479.826C282.57 479.789 283.538 480.147 284.268 480.823C284.998 481.498 285.431 482.436 285.472 483.43Z" fill="#263238"/>
<path d="M263.632 484.443C263.667 485.188 263.479 485.925 263.093 486.563C262.708 487.2 262.141 487.709 261.466 488.024C260.791 488.339 260.037 488.446 259.301 488.332C258.565 488.218 257.879 487.888 257.331 487.383C256.782 486.879 256.396 486.223 256.221 485.499C256.046 484.774 256.091 484.014 256.348 483.315C256.606 482.616 257.066 482.01 257.669 481.572C258.272 481.135 258.992 480.886 259.736 480.859C260.227 480.838 260.718 480.914 261.18 481.083C261.642 481.252 262.066 481.51 262.428 481.843C262.79 482.176 263.082 482.577 263.289 483.023C263.496 483.469 263.612 483.952 263.632 484.443Z" fill="#263238"/>
<path d="M285.9 436.868L283.738 436.712C283.517 436.692 283.313 436.588 283.168 436.421C283.023 436.254 282.948 436.037 282.959 435.816C283.407 428.666 283.173 423.406 282.296 421.302C278.517 412.067 270.607 400.495 267.275 400.631C263.944 400.768 257.047 412.983 254.047 422.49C253.365 424.672 253.58 429.932 254.612 437.024C254.646 437.241 254.594 437.462 254.466 437.64C254.339 437.819 254.146 437.94 253.93 437.979L251.787 438.31C251.563 438.337 251.336 438.275 251.157 438.136C250.978 437.998 250.862 437.794 250.833 437.569C249.644 429.621 249.508 424.166 250.404 421.341C252.001 416.236 259.541 397.124 267.12 396.813C274.698 396.501 283.835 414.892 285.861 419.86C286.972 422.588 287.303 428.043 286.797 436.05C286.782 436.275 286.68 436.487 286.513 436.639C286.346 436.792 286.126 436.874 285.9 436.868Z" fill="#FFC727"/>
<path d="M239.182 345.945C224.921 345.711 218.336 350.523 209.297 362.621C202.127 372.226 174.229 424.126 164.975 439.284L114.594 412.359C104.405 405.326 101.112 394.221 94.6637 387.734C88.2151 381.246 81.5327 379.941 74.4412 374.583C67.3497 369.226 64.4663 365.057 62.4207 370.064C60.3751 375.07 68.2654 383.175 69.7655 385.182C71.2656 387.188 79.1754 391.65 68.9083 391.806C58.6412 391.961 38.3213 381.324 33.3728 379.434C28.4244 377.545 28.7166 383.448 31.1519 387.227C33.5871 391.007 33.4702 401.683 37.581 407.859C41.9255 414.405 44.3023 417.249 53.9849 421.496C62.9857 425.393 81.8834 426.951 91.4491 432.932C101.015 438.913 124.725 459.993 139.141 472.637C157.474 488.71 170.118 491.652 180.327 482.008C190.243 471.624 200.296 459.448 205.205 453.272C218.434 436.615 239.358 398.722 239.358 398.722C239.358 398.722 248.417 379.24 239.182 345.945Z" fill="#FFC3BA"/>
<path d="M241.15 344.522C220.148 344.522 213.875 352.12 203.121 369.674C192.367 387.227 164.78 437.472 164.78 437.472L125.056 416.665C125.056 416.665 117.906 432.406 110.308 448.635C110.308 448.635 132.79 468.117 143.428 477.332C154.065 486.547 168.17 493.775 181.242 482.495C195.211 470.455 240.507 407.898 240.507 407.898C251.261 388.377 248.865 358.783 241.15 344.522Z" fill="#F0F0F0"/>
<path d="M164.78 437.472C171.267 445.109 179.119 453.701 178.768 460.461C178.768 460.461 183.21 454.46 167.605 432.348L164.78 437.472Z" fill="#E0E0E0"/>
<path d="M89.6374 250.112L73.3893 259.425L73.4477 240.761L61.2908 233.747L32.9443 250.112V282.842L4.59778 299.207V331.937L16.7546 338.951L32.9443 329.599V348.322L45.1012 355.335L73.4477 338.951V306.221L101.794 289.856V257.126L89.6374 250.112Z" fill="#D9684F"/>
<path d="M16.7546 306.221V338.951L45.1012 322.586V355.335L73.4477 338.951V306.221L101.794 289.855V257.126L73.3503 273.549L73.4477 240.76L45.1012 257.126V289.855L16.7546 306.221Z" fill="#FF461D"/>
<g opacity="0.2">
<path opacity="0.2" d="M16.7546 338.951L4.59778 331.937V299.207L16.7546 306.221V338.951Z" fill="black"/>
<path opacity="0.2" d="M45.1012 257.126L32.9443 250.112V282.842L45.1012 289.856V257.126Z" fill="black"/>
<path opacity="0.2" d="M45.1012 355.336L32.9443 348.322V329.6L45.1012 322.586V355.336Z" fill="black"/>
</g>
<g opacity="0.5">
<path opacity="0.5" d="M45.1012 289.855L32.9443 282.842L4.59778 299.207L16.7546 306.22L45.1012 289.855Z" fill="white"/>
<path opacity="0.5" d="M73.4477 240.76L61.2909 233.747L32.9443 250.112L45.1012 257.125L73.4477 240.76Z" fill="white"/>
<path opacity="0.5" d="M101.794 257.125L89.6374 250.112L73.3893 259.424L73.3503 273.549L101.794 257.125Z" fill="white"/>
</g>
<path d="M555.884 184.419C555.37 183.973 554.815 183.575 554.228 183.23C552.163 182.003 542.812 176.626 542.325 176.334C537.376 173.177 529.544 173.879 522.57 177.405C512.575 182.451 504.257 193.108 497.905 210.856C497.905 210.856 491.476 206.239 489.392 205.011C484.229 202.186 478.189 203.55 471.39 207.973C463.734 212.96 458.512 219.428 453.739 229.208V229.383C449.603 237.688 447.342 246.799 447.115 256.074C447.115 276.589 455.512 286.369 466.442 293.714C469.559 295.818 477.8 300.24 478.618 300.786C485.214 305.141 492.509 308.33 500.185 310.215L510.958 312.728L521.732 297.785C529.576 286.767 536.776 275.306 543.299 263.458C554.228 243.489 562.781 223.928 562.625 203.492C562.469 194.744 559.956 188.315 555.884 184.419Z" fill="#FF7A5D"/>
<path opacity="0.3" d="M555.884 184.419C555.37 183.973 554.815 183.575 554.228 183.23C552.163 182.003 542.812 176.626 542.325 176.334C537.376 173.177 529.544 173.879 522.57 177.405C512.575 182.451 504.257 193.108 497.905 210.856C497.905 210.856 491.476 206.239 489.392 205.011C484.229 202.186 478.189 203.55 471.39 207.973C463.734 212.96 458.512 219.428 453.739 229.208V229.383C449.603 237.688 447.342 246.799 447.115 256.074C447.115 276.589 455.512 286.369 466.442 293.714C469.559 295.818 477.8 300.24 478.618 300.786C485.214 305.141 492.509 308.33 500.185 310.215L510.958 312.728L521.732 297.785C529.576 286.767 536.776 275.306 543.299 263.458C554.228 243.489 562.781 223.928 562.625 203.492C562.469 194.744 559.956 188.315 555.884 184.419Z" fill="black"/>
<path d="M555.884 184.418C555.37 183.972 554.815 183.574 554.228 183.23C552.163 182.002 542.812 176.625 542.325 176.333C537.376 173.177 529.544 173.878 522.57 177.405C512.575 182.45 504.256 193.107 497.905 210.855C497.905 210.855 491.476 206.238 489.392 205.011C484.229 202.186 478.189 203.55 471.39 207.972C463.734 212.959 458.512 219.428 453.739 229.208V229.383C453.525 229.812 453.35 230.24 453.155 230.669L534.98 277.855C537.883 273.14 540.708 268.367 543.396 263.457C554.326 243.488 562.878 223.928 562.722 203.491C562.469 194.744 559.956 188.315 555.884 184.418Z" fill="#FF7A5D"/>
<path opacity="0.15" d="M555.884 184.418C555.37 183.972 554.815 183.574 554.228 183.23C552.163 182.002 542.812 176.625 542.325 176.333C537.376 173.177 529.544 173.878 522.57 177.405C512.575 182.45 504.256 193.107 497.905 210.855C497.905 210.855 491.476 206.238 489.392 205.011C484.229 202.186 478.189 203.55 471.39 207.972C463.734 212.959 458.512 219.428 453.739 229.208V229.383C453.525 229.812 453.35 230.24 453.155 230.669L534.98 277.855C537.883 273.14 540.708 268.367 543.396 263.457C554.326 243.488 562.878 223.928 562.722 203.491C562.469 194.744 559.956 188.315 555.884 184.418Z" fill="black"/>
<path d="M497.847 210.777L508.796 225.058L526.447 204.173L506.497 192.659C502.944 198.355 500.043 204.433 497.847 210.777V210.777Z" fill="#D9684F"/>
<path opacity="0.3" d="M497.847 210.777L508.796 225.058L526.447 204.173L506.497 192.659C502.944 198.355 500.043 204.433 497.847 210.777Z" fill="black"/>
<path d="M555.884 184.418C551.111 180.151 542.422 180.521 534.746 184.418C524.284 189.717 515.634 201.153 509.166 220.518C502.698 208.634 494.048 208.264 483.586 215.063C475.91 220.051 470.689 226.519 465.935 236.299L465.838 236.474C461.716 244.79 459.462 253.906 459.233 263.184C459.233 283.699 467.649 293.479 478.559 300.824C485.155 305.179 492.45 308.368 500.126 310.253L510.9 312.766L521.674 297.824C529.517 286.806 536.718 275.344 543.24 263.496C554.17 243.527 562.722 223.967 562.567 203.53C562.469 194.743 559.956 188.314 555.884 184.418Z" fill="#FF461D"/>
<g opacity="0.07">
<path opacity="0.07" d="M546.689 182.47C549.692 182.332 552.645 183.28 555.008 185.139C555.049 185.223 555.109 185.296 555.183 185.353C559.196 189.016 561.437 195.523 561.456 203.627C561.456 224.96 551.715 245.67 542.266 263.087C535.793 274.897 528.637 286.319 520.836 297.298L510.491 311.695L500.419 309.338C492.857 307.48 485.668 304.344 479.164 300.064C469.423 293.44 460.227 284.478 460.305 263.282C460.512 254.167 462.699 245.205 466.714 237.02V236.845C471.507 227.006 476.67 220.791 483.995 216.038C487.398 213.514 491.457 212.026 495.684 211.751C500.633 211.751 504.705 214.81 508.134 221.103C508.219 221.271 508.35 221.412 508.512 221.509C508.674 221.605 508.861 221.654 509.049 221.648H509.147C509.348 221.63 509.539 221.554 509.698 221.429C509.857 221.305 509.976 221.138 510.043 220.947C516.219 202.458 524.421 190.847 535.097 185.451C538.661 183.583 542.608 182.563 546.63 182.47H546.689ZM546.63 181.437C542.446 181.524 538.339 182.577 534.629 184.515C524.167 189.815 515.517 201.251 509.049 220.616C505.309 213.719 500.828 210.699 495.684 210.699C491.27 210.99 487.031 212.538 483.469 215.161C475.793 220.148 470.572 226.616 465.818 236.396L465.721 236.572C461.6 244.888 459.345 254.004 459.116 263.282C459.116 283.796 467.533 293.577 478.443 300.921C485.039 305.276 492.334 308.466 500.009 310.351L510.783 312.864L521.557 297.921C529.4 286.903 536.601 275.442 543.124 263.593C554.053 243.624 562.606 224.064 562.45 203.627C562.45 194.841 559.898 188.314 555.826 184.574C553.254 182.479 550.002 181.404 546.689 181.554L546.63 181.437Z" fill="black"/>
</g>
<path d="M554.696 239.65L533.733 251.768L525.94 223.421C525.83 222.993 525.577 222.614 525.222 222.349C524.868 222.083 524.434 221.946 523.992 221.96C523.536 221.951 523.092 222.102 522.736 222.387C522.38 222.671 522.135 223.072 522.044 223.519L509.906 278.965L499.698 251.028C499.677 250.511 499.452 250.024 499.072 249.673C498.692 249.322 498.188 249.137 497.672 249.157C497.155 249.178 496.667 249.403 496.317 249.783C495.966 250.163 495.781 250.667 495.801 251.183L488.905 275.672L465.838 288.998C466.597 290.101 467.416 291.162 468.292 292.174L491.671 278.712C492.123 278.45 492.458 278.024 492.606 277.523L498.042 258.197L508.504 286.758C508.643 287.157 508.908 287.501 509.259 287.736C509.611 287.972 510.029 288.087 510.452 288.063C510.884 288.041 511.297 287.877 511.625 287.594C511.953 287.312 512.178 286.929 512.264 286.505L524.148 232.305L530.421 255.314C530.495 255.61 530.638 255.884 530.838 256.115C531.038 256.345 531.29 256.526 531.572 256.641C531.855 256.757 532.16 256.805 532.465 256.78C532.769 256.756 533.063 256.661 533.324 256.502L551.949 245.767C553.02 243.722 553.877 241.696 554.696 239.65Z" fill="white"/>
<path d="M642.677 760.68C641.879 763.32 641.812 766.128 642.483 768.804C643.262 770.44 648.132 775.817 658.068 777.766C668.004 779.714 681.661 777.766 687.545 777.415C693.428 777.064 711.897 779.363 717.762 780.103C726.996 781.35 734.088 779.324 737.536 775.993C738.094 775.323 738.506 774.543 738.744 773.704C738.982 772.865 739.042 771.986 738.919 771.122C738.899 768.899 738.571 766.69 737.945 764.557L642.677 760.68Z" fill="#263238"/>
<path d="M736.425 754.894C736.601 755.654 736.776 756.433 736.932 757.212C737.831 761.132 738.114 765.168 737.77 769.174C736.581 772.097 733.328 773.714 730.698 774.532C723.743 776.753 718.463 776.48 710.768 774.941C703.028 773.813 695.208 773.331 687.389 773.499C681.33 773.908 672.992 775.077 666.933 774.512C661.781 774.298 656.696 773.259 651.873 771.434C647.84 769.72 643.71 767.538 642.716 763.33C641.528 754.563 645.21 750.705 649.36 748.25C653.509 745.796 659.413 745.99 665.725 745.581C671.433 745.192 675.602 745.192 680.687 744.802C685.083 744.588 689.452 743.982 693.74 742.99C697.637 741.782 701.533 736.892 703.13 736.717C703.13 736.717 728.555 736.522 730.97 736.717C733.776 736.951 734.633 745.64 734.984 747.53C735.257 749.01 735.315 750.608 735.705 752.03C735.958 752.985 736.192 753.939 736.425 754.894Z" fill="#37474F"/>
<path d="M658.088 773.343C657.289 767.031 656.14 753.354 667.829 745.445H669.29C664.04 743.925 658.467 743.925 653.217 745.445C643.924 747.919 639.794 755.439 642.112 763.388C642.151 763.31 644.217 771.005 658.088 773.343Z" fill="#FAFAFA"/>
<path d="M692.006 743.438C688.246 746.77 686.941 754.348 686.941 754.348C686.454 757.193 681.311 757.621 681.798 754.874C682.583 751.097 684.098 747.51 686.259 744.315C688.022 743.385 690.046 743.076 692.006 743.438V743.438Z" fill="#FAFAFA"/>
<path d="M681.466 744.743C678.631 747.52 676.777 751.144 676.187 755.069C675.661 757.796 671.375 757.757 671.686 755.069C671.686 755.069 672.173 748.347 676.187 745.211C676.964 744.713 677.85 744.411 678.769 744.329C679.688 744.248 680.614 744.39 681.466 744.743V744.743Z" fill="#FAFAFA"/>
<path d="M731.75 718.228C731.75 718.228 731.068 734.574 730.172 739.931C729.626 743.126 725.437 746.477 715.015 746.126C707.689 745.873 701.923 746.477 702.215 740.749L702.858 724.053L731.75 718.228Z" fill="#FFA8A7"/>
<path d="M748.095 679.615C747.725 684.076 747.121 688.109 748.952 693.018C751.563 700.071 757.096 703.305 760.349 706.071C763.772 709.462 766.931 713.109 769.798 716.981C772.993 720.878 773.831 723.196 778.624 727.443C781.012 729.282 783.836 730.469 786.821 730.889C789.806 731.309 792.848 730.948 795.651 729.84C799.801 728.067 801.242 726.664 800.989 720.293C800.736 713.923 780.435 711.76 780.435 711.76L748.095 679.615Z" fill="#263238"/>
<path d="M798.359 701.317C800.093 701.941 800.522 705.077 800.794 711.312C800.989 716.026 803.074 723.001 796.236 725.904C790.722 728.3 781.916 726.703 778.195 722.261C773.558 716.708 770.402 711.818 763.778 705.058C757.934 699.213 752.089 697.265 749.498 685.478C747.842 677.919 749.147 674.802 754.485 672.64C761.83 669.659 773.344 679.38 779.111 680.92C784.059 682.225 796.625 700.694 798.359 701.317Z" fill="#37474F"/>
<path d="M779.111 680.92L778.137 680.589C774.852 680.711 771.657 681.691 768.868 683.431C766.079 685.17 763.794 687.609 762.239 690.505C761.265 692.551 764.188 694.148 766.136 692.551C770.227 684.758 778.643 683.083 782.014 682.712C781.184 681.916 780.195 681.305 779.111 680.92Z" fill="#FAFAFA"/>
<path d="M783.845 684.466C780.761 684.755 777.798 685.805 775.22 687.522C772.643 689.239 770.532 691.57 769.078 694.304C768.103 696.252 771.123 697.947 772.974 696.252C774.365 693.814 776.27 691.709 778.559 690.084C780.847 688.459 783.462 687.353 786.222 686.842C785.384 686.063 784.605 685.225 783.845 684.466Z" fill="#FAFAFA"/>
<path d="M799.353 690.057L798.359 703.208C798.359 703.208 790.001 709.306 778.02 703.714C777.669 702.993 776.656 691.226 776.656 691.226L799.353 690.057Z" fill="#FFA8A7"/>
<path d="M752.868 694.148C752.868 694.148 753.433 680.18 773.286 678.251L774.435 678.855C772.176 675.352 768.71 672.801 764.694 671.685C758.109 669.99 752.888 671.685 749.42 675.855C745.952 680.024 749.439 691.44 752.868 694.148Z" fill="#FAFAFA"/>
<path d="M805.139 602.465C802.295 579.457 801.243 566.638 801.243 566.638C801.243 566.638 800.678 534.239 802.645 504.295C803.503 491.164 803.951 476.63 804.223 463.382C804.587 448.793 803.424 434.206 800.756 419.859C800.756 419.859 698.883 399.598 697.617 436.965C696.078 481.773 696.273 558.358 694.539 587.601C693.584 604.024 695.24 617.642 696.273 649.554C697.111 676.011 696.857 741.12 696.857 741.12C708.079 756.53 734.575 744.783 734.575 744.783C734.575 744.783 742.757 653.353 743.965 634.455C745.251 614.135 743.108 603.849 743.108 603.849L753.609 509.185C753.609 509.185 754.408 539.558 755.304 555.942C756.2 572.327 758.596 582.399 762.863 612.966C766.564 639.501 774.435 707.221 774.435 707.221C788.073 715.287 801.243 707.221 801.243 707.221C801.243 707.221 807.983 625.474 805.139 602.465Z" fill="#455A64"/>
<path d="M791.229 471.721C791.229 471.721 778.468 488.008 762.006 495.002C762.006 495.002 754.875 552.26 754.934 551.13L753.083 493.502C753.083 493.502 777.591 482.67 791.229 471.721Z" fill="#37474F"/>
<path d="M790.878 287.673C801.847 285.218 814.257 293.05 822.517 310.525C830.505 327.241 852.325 369.459 852.851 381.284C853.416 393.539 798.905 430.711 800.249 429.99C800.678 429.775 790.839 401.877 790.839 401.877L817.315 379.96L802.918 350.308L790.878 287.673Z" fill="#F8BFB6"/>
<path d="M785.111 285.043C794.346 283.913 811.081 287.4 817.471 298.505C826.745 314.577 835.2 333.163 845.974 357.185C845.974 357.185 837.986 374.485 814.997 376.122L801.223 351.964L785.111 285.043Z" fill="#37474F"/>
<path d="M738.627 270.567L740.225 304.661L774.007 302.849L772.974 263.242L738.627 270.567Z" fill="#F8BFB6"/>
<path d="M807.185 302.206C804.34 292.913 794.521 285.257 782.111 284.887C779.345 284.887 773.539 284.887 773.539 284.887C772.136 290.634 754.544 292.68 739.504 289.231C734.964 290.439 716.125 295.076 712.229 296.245C701.416 299.83 698.084 310.856 696.409 346.119C696.409 346.119 696.74 415.631 696.409 448.81C715.424 458.843 744.803 457.596 765.707 455.472C798.554 452.16 803.444 440.257 803.444 440.257C802.061 420.911 802.899 413.625 803.444 394.532C803.853 380.174 807.983 364.997 809.289 348.73C811.217 324.552 809.113 308.596 807.185 302.206Z" fill="#FFC727"/>
<path d="M733.347 277.036C725.554 276.491 715.813 282.705 713.3 296.012L719.651 294.317L733.347 277.036Z" fill="#FFC727"/>
<path opacity="0.3" d="M733.347 277.036C725.554 276.491 715.813 282.705 713.3 296.012L719.651 294.317L733.347 277.036Z" fill="black"/>
<path d="M739.056 279.88C744.9 281.828 761.947 281.556 767.655 279.88C773.364 278.205 773.305 275.672 773.305 275.672V272.808C776.597 272.799 779.813 273.798 782.52 275.672C786.163 278.633 792.437 289.31 792.261 294.433C792.086 299.557 781.137 313.078 760.018 312.747C738.9 312.415 727.035 304.603 723.392 299.46L719.729 294.297C719.729 294.297 724.736 284.01 729.665 279.685C732.193 277.236 735.433 275.653 738.919 275.166L739.056 279.88Z" fill="#FFC727"/>
<path opacity="0.2" d="M739.056 279.88C744.9 281.828 761.947 281.556 767.655 279.88C773.364 278.205 773.305 275.672 773.305 275.672V272.808C776.597 272.799 779.813 273.798 782.52 275.672C786.163 278.633 792.437 289.31 792.261 294.433C792.086 299.557 781.137 313.078 760.018 312.747C738.9 312.415 727.035 304.603 723.392 299.46L719.729 294.297C719.729 294.297 724.736 284.01 729.665 279.685C732.193 277.236 735.433 275.653 738.919 275.166L739.056 279.88Z" fill="black"/>
<path d="M715.891 228.759C715.891 228.759 707.845 240.974 708.761 242.162C709.677 243.351 715.599 244.461 715.599 244.461L715.891 228.759Z" fill="#D5A8A1"/>
<path d="M738.257 194.938C721.97 198.386 715.463 203.159 714.449 230.999C713.475 258.079 716.885 267.002 720.431 270.645C722.827 273.1 736.172 273.548 742.893 271.678C751.31 269.359 770.344 262.619 779.247 249.02C789.729 233.006 792.476 211.303 781.195 202.399C765.473 189.872 744.9 193.535 738.257 194.938Z" fill="#F8BFB6"/>
<path d="M720.43 270.626C722.379 272.574 731.711 273.314 738.724 272.457L738.627 268.424C732.816 270.568 726.585 271.322 720.43 270.626V270.626Z" fill="#D5A8A1"/>
<path d="M712.287 205.4C716.345 208.308 721.378 209.518 726.314 208.77C726.217 210.953 726.802 213.112 727.99 214.946C729.643 217.447 732.15 219.261 735.042 220.05C733.259 223.545 732.312 227.407 732.276 231.33C732.166 232.562 732.431 233.798 733.036 234.876C733.223 235.268 733.517 235.599 733.884 235.83C734.251 236.062 734.676 236.185 735.11 236.185C735.545 236.185 735.97 236.062 736.337 235.83C736.704 235.599 736.998 235.268 737.185 234.876C738.102 232.803 739.252 230.842 740.614 229.031C742.38 226.918 744.863 225.531 747.589 225.135C757.817 224.024 759.103 237.409 755.011 242.961C748.31 252.04 742.621 245.883 742.621 245.883C742.36 250.139 743.006 254.402 744.518 258.389C746.029 262.376 748.371 265.996 751.388 269.009C758.658 271.151 766.364 271.346 773.734 269.574C782.812 257.086 788.521 251.007 793.372 240.234C803.619 217.42 798.671 203.101 790.742 197.061C789.183 186.56 780.903 181.846 771.454 179.683C757.349 176.43 744.179 184.807 730.191 181.631C727.896 181.151 725.626 180.553 723.392 179.839C722.531 179.435 721.55 179.373 720.645 179.664C720.143 179.997 719.751 180.47 719.515 181.024C719.28 181.578 719.212 182.189 719.32 182.781C719.496 185.469 722.223 188.45 723.606 189.892C720.551 190.171 717.472 189.994 714.469 189.366C713.426 189.17 712.356 189.17 711.313 189.366C710.169 189.832 709.202 190.649 708.551 191.699C707.9 192.749 707.598 193.978 707.689 195.21C707.701 197.136 708.116 199.037 708.908 200.792C709.7 202.547 710.851 204.117 712.287 205.4V205.4Z" fill="#263238"/>
<path d="M790.995 200.451L800.736 194.607C799.961 193.315 798.705 192.384 797.243 192.018C795.782 191.653 794.235 191.883 792.943 192.658C791.651 193.433 790.721 194.69 790.355 196.151C789.99 197.613 790.22 199.159 790.995 200.451V200.451Z" fill="#263238"/>
<path d="M664.049 353.912C661.841 345.236 659.711 336.547 657.659 327.845C655.711 319.838 652.711 310.564 655.458 302.382C657.019 298.808 658.979 295.422 661.302 292.29C663.312 288.988 665.008 285.505 666.368 281.886C667.049 280.133 667.673 278.341 668.316 276.568C668.959 274.795 669.874 273.782 669.446 272.087C668.023 266.534 660.854 273.821 659.393 276.1C658.745 277.297 657.988 278.431 657.133 279.49C656.198 280.484 653.918 281.73 652.827 280.269C652.464 279.683 652.262 279.011 652.243 278.321C651.503 269.768 654.581 262.112 657.133 254.124C657.536 253.076 657.779 251.972 657.854 250.851C657.9 250.292 657.825 249.728 657.633 249.2C657.441 248.672 657.138 248.192 656.743 247.793C656.108 247.305 655.356 246.995 654.562 246.892C653.768 246.789 652.962 246.898 652.223 247.208C650.782 247.695 649.535 248.611 648.093 249.059C646.652 249.507 645.58 249.507 644.314 249.838C641.31 250.508 638.416 251.603 635.722 253.092C631.046 255.839 628.981 259.852 627.754 264.956C626.279 271.226 625.78 277.685 626.273 284.107C626.604 288.374 627.364 292.582 627.89 296.79L629.644 310.876C630.832 320.266 631.183 367.179 632.8 376.511C634.417 385.843 637.534 392.097 644.918 395.194C655.633 399.558 672.952 379.843 682.791 369.634L664.049 353.912Z" fill="#F8BFB6"/>
<path d="M660.133 348.594C653.237 353.756 644.645 362.348 642.911 370.959C642.911 370.959 641.197 355.471 660.133 341.736V348.594Z" fill="#F28F8F"/>
<path d="M711.683 296.459C705.059 297.083 694.149 297.316 683.044 309.259C670.167 323.208 650.314 350.717 650.314 350.717C650.314 350.717 652.905 372.615 673.985 380.466C673.985 380.466 704.631 351.243 711.215 338.658C717.8 326.072 719.281 305.207 711.683 296.459Z" fill="#37474F"/>
<path d="M702.858 250.17L694.48 245.669L699.293 241.559L681.895 233.415L689.493 229.012L670.751 219.037L681.895 228.876L672.836 233.415L693.273 242.26L688.227 247.306L702.858 250.17Z" fill="#FFC727"/>
<path d="M707.124 239.123L701.669 233.902L704.65 231.701L699.857 226.012L704.455 224.453L702.858 217.245L706.092 225.018L702.858 226.421L708.04 232.11L704.533 234.603L707.124 239.123Z" fill="#FFC727"/>
<path d="M703.949 258.411L693.662 266.437L689.863 260.846L680.862 265.736L677.18 258.82L663.25 262.385L679.362 254.67L683.98 261.041L691.461 257.028L694.578 262.385L703.949 258.411Z" fill="#FFC727"/>
<path d="M632.43 402.052C632.743 401.792 633.146 401.667 633.551 401.703C633.956 401.74 634.331 401.935 634.592 402.247C636.584 404.484 639.172 406.108 642.052 406.929C644.933 407.75 647.988 407.735 650.86 406.884C651.056 406.815 651.263 406.786 651.471 406.8C651.678 406.813 651.881 406.868 652.066 406.962C652.251 407.056 652.416 407.186 652.55 407.345C652.683 407.504 652.783 407.688 652.844 407.887C652.904 408.086 652.924 408.295 652.902 408.501C652.879 408.708 652.816 408.907 652.714 409.089C652.612 409.27 652.475 409.428 652.31 409.555C652.146 409.682 651.957 409.774 651.756 409.826C648.312 410.845 644.648 410.859 641.196 409.864C637.744 408.87 634.648 406.91 632.274 404.215C632.14 404.064 632.038 403.887 631.974 403.696C631.909 403.504 631.884 403.302 631.898 403.101C631.913 402.9 631.967 402.703 632.058 402.523C632.15 402.343 632.276 402.183 632.43 402.052Z" fill="#E0E0E0"/>
<path d="M633.988 412.359C634.262 412.13 634.606 412.005 634.962 412.005C635.318 412.005 635.663 412.13 635.936 412.359C637.522 413.505 639.34 414.291 641.261 414.661C643.183 415.031 645.162 414.977 647.061 414.502C647.463 414.427 647.879 414.514 648.218 414.744C648.557 414.974 648.792 415.327 648.873 415.729C648.912 415.926 648.912 416.129 648.873 416.326C648.833 416.523 648.755 416.711 648.643 416.877C648.531 417.044 648.386 417.187 648.218 417.297C648.05 417.408 647.862 417.484 647.665 417.521C645.318 418.066 642.88 418.089 640.523 417.587C638.166 417.085 635.949 416.072 634.027 414.619C633.873 414.488 633.747 414.328 633.656 414.148C633.565 413.968 633.51 413.771 633.496 413.57C633.481 413.369 633.507 413.167 633.571 412.975C633.636 412.784 633.738 412.607 633.871 412.456C633.906 412.419 633.945 412.386 633.988 412.359Z" fill="#E0E0E0"/>
<path d="M825.284 294.277C825.104 294.37 824.907 294.427 824.705 294.443C824.503 294.459 824.3 294.435 824.107 294.371C823.915 294.307 823.737 294.206 823.585 294.073C823.432 293.94 823.307 293.777 823.219 293.595C821.797 290.959 819.656 288.78 817.046 287.311C814.435 285.842 811.462 285.143 808.471 285.296C808.268 285.307 808.066 285.279 807.875 285.212C807.684 285.145 807.508 285.042 807.357 284.907C807.051 284.635 806.867 284.252 806.844 283.844C806.821 283.436 806.96 283.035 807.233 282.73C807.505 282.425 807.887 282.241 808.295 282.217C811.886 282.03 815.456 282.87 818.586 284.64C821.716 286.411 824.276 289.037 825.965 292.212C826.143 292.577 826.172 292.997 826.044 293.383C825.917 293.769 825.644 294.089 825.284 294.277V294.277Z" fill="#E0E0E0"/>
<path d="M826.141 283.952C825.814 284.123 825.437 284.171 825.079 284.084C824.72 283.998 824.405 283.785 824.192 283.484C822.935 282.015 821.376 280.833 819.621 280.02C817.866 279.206 815.957 278.78 814.023 278.769C813.821 278.762 813.622 278.714 813.438 278.63C813.254 278.546 813.089 278.426 812.952 278.277C812.814 278.129 812.707 277.955 812.637 277.765C812.567 277.576 812.534 277.374 812.542 277.172C812.55 276.97 812.597 276.771 812.682 276.587C812.766 276.404 812.886 276.238 813.034 276.101C813.183 275.963 813.357 275.856 813.546 275.786C813.736 275.716 813.938 275.684 814.14 275.691C816.542 275.715 818.91 276.265 821.078 277.302C823.245 278.338 825.159 279.837 826.686 281.692C826.906 282.021 826.988 282.424 826.915 282.813C826.842 283.203 826.62 283.548 826.297 283.776L826.141 283.952Z" fill="#E0E0E0"/>
<path d="M853.377 396.247C853.182 395.89 853.136 395.47 853.249 395.08C853.362 394.689 853.625 394.359 853.981 394.162C856.547 392.619 858.621 390.379 859.963 387.702C861.305 385.026 861.858 382.023 861.559 379.044C861.535 378.843 861.551 378.639 861.607 378.444C861.663 378.249 861.757 378.067 861.884 377.909C862.011 377.751 862.168 377.62 862.347 377.524C862.525 377.428 862.721 377.368 862.923 377.349C863.329 377.305 863.735 377.424 864.053 377.68C864.371 377.936 864.574 378.307 864.618 378.713C864.966 382.275 864.295 385.864 862.685 389.06C861.074 392.257 858.59 394.932 855.52 396.773C855.345 396.882 855.151 396.955 854.948 396.987C854.745 397.02 854.537 397.011 854.337 396.962C854.137 396.913 853.949 396.825 853.785 396.702C853.62 396.579 853.481 396.424 853.377 396.247V396.247Z" fill="#E0E0E0"/>
<path d="M863.722 396.617C863.548 396.3 863.49 395.932 863.557 395.576C863.625 395.221 863.814 394.9 864.092 394.669C865.506 393.346 866.616 391.733 867.346 389.941C868.075 388.148 868.408 386.218 868.32 384.285C868.32 383.876 868.482 383.485 868.77 383.196C869.059 382.908 869.451 382.746 869.859 382.746C870.267 382.746 870.658 382.908 870.947 383.196C871.236 383.485 871.398 383.876 871.398 384.285C871.482 386.683 871.044 389.071 870.116 391.284C869.188 393.497 867.791 395.483 866.021 397.104C865.862 397.229 865.68 397.322 865.486 397.377C865.291 397.433 865.088 397.449 864.887 397.425C864.686 397.402 864.492 397.339 864.315 397.24C864.139 397.142 863.984 397.009 863.858 396.851L863.722 396.617Z" fill="#E0E0E0"/>
<path d="M684.506 581.853C684.869 582.037 685.146 582.356 685.278 582.742C685.409 583.128 685.383 583.55 685.207 583.918C683.973 586.645 683.541 589.668 683.962 592.631C684.383 595.595 685.639 598.377 687.584 600.653C687.847 600.967 687.976 601.372 687.944 601.78C687.911 602.188 687.718 602.567 687.408 602.835C687.1 603.1 686.7 603.232 686.295 603.203C685.89 603.173 685.513 602.985 685.246 602.679C682.91 599.94 681.405 596.591 680.908 593.026C680.411 589.461 680.943 585.828 682.44 582.554C682.624 582.19 682.944 581.913 683.33 581.782C683.716 581.651 684.138 581.677 684.506 581.853V581.853Z" fill="#E0E0E0"/>
<path d="M675.777 587.406C676.11 587.563 676.376 587.834 676.526 588.17C676.676 588.506 676.701 588.885 676.596 589.237C676.187 591.13 676.193 593.089 676.613 594.979C677.033 596.869 677.858 598.645 679.031 600.186C679.261 600.521 679.351 600.933 679.281 601.333C679.212 601.733 678.99 602.091 678.661 602.329C678.327 602.564 677.914 602.657 677.513 602.587C677.111 602.518 676.753 602.292 676.518 601.959C675.074 600.033 674.067 597.814 673.569 595.459C673.071 593.103 673.094 590.668 673.634 588.322C673.694 588.126 673.792 587.945 673.923 587.787C674.054 587.63 674.215 587.501 674.396 587.407C674.577 587.312 674.776 587.255 674.979 587.238C675.183 587.221 675.388 587.245 675.583 587.309L675.777 587.406Z" fill="#E0E0E0"/>
<path d="M570.009 46.9704C569.913 45.1537 569.388 43.3856 568.477 41.8109C567.566 40.2362 566.295 38.8998 564.768 37.9112L560.521 35.4369C558.897 34.6243 557.106 34.2012 555.29 34.2012C553.474 34.2012 551.683 34.6243 550.059 35.4369L451.382 92.4612C449.857 93.4521 448.588 94.7891 447.677 96.3633C446.766 97.9375 446.24 99.7044 446.141 101.52V152.544C446.242 154.36 446.769 156.126 447.679 157.7C448.59 159.274 449.858 160.611 451.382 161.603L455.649 164.058C457.269 164.884 459.061 165.315 460.88 165.315C462.698 165.315 464.491 164.884 466.111 164.058L564.768 107.053C566.295 106.065 567.566 104.728 568.477 103.154C569.388 101.579 569.913 99.8108 570.009 97.9941V46.9704Z" fill="#FFC727"/>
<path opacity="0.5" d="M570.009 46.9704C569.913 45.1537 569.388 43.3856 568.477 41.8109C567.566 40.2362 566.295 38.8998 564.768 37.9112L560.521 35.4369C558.897 34.6243 557.106 34.2012 555.29 34.2012C553.474 34.2012 551.683 34.6243 550.059 35.4369L451.382 92.4612C449.857 93.4521 448.588 94.7891 447.677 96.3633C446.766 97.9375 446.24 99.7044 446.141 101.52V152.544C446.242 154.36 446.769 156.126 447.679 157.7C448.59 159.274 449.858 160.611 451.382 161.603L455.649 164.058C457.269 164.884 459.061 165.315 460.88 165.315C462.698 165.315 464.491 164.884 466.111 164.058L564.768 107.053C566.295 106.065 567.566 104.728 568.477 103.154C569.388 101.579 569.913 99.8108 570.009 97.9941V46.9704Z" fill="white"/>
<path opacity="0.2" d="M446.141 152.544C446.242 154.36 446.769 156.126 447.679 157.7C448.59 159.274 449.858 160.611 451.382 161.603L455.649 164.058C457.122 164.801 458.737 165.223 460.386 165.297C462.034 165.371 463.68 165.095 465.214 164.487C462.74 165.422 460.87 164.039 460.87 161.038V110.015C460.933 108.19 461.463 106.413 462.409 104.852L447.68 96.3577C446.732 97.9177 446.202 99.6958 446.141 101.52V152.544Z" fill="black"/>
<path opacity="0.3" d="M569.834 45.4899C569.23 43.2689 567.203 42.5481 564.788 43.9508L466.111 100.956C464.557 101.908 463.281 103.252 462.409 104.852L447.7 96.3578C448.57 94.7628 449.839 93.4204 451.382 92.4613L550.04 35.4566C551.66 34.6304 553.452 34.1997 555.271 34.1997C557.089 34.1997 558.882 34.6304 560.502 35.4566L564.788 37.9113C566.097 38.7677 567.22 39.8809 568.087 41.1835C568.954 42.4861 569.549 43.9511 569.834 45.4899Z" fill="white"/>
<path d="M460.889 126.516L446.18 118.022L428.452 135.088C428.185 135.357 427.983 135.682 427.861 136.04C427.738 136.399 427.699 136.78 427.746 137.155C427.793 137.531 427.925 137.89 428.131 138.207C428.338 138.524 428.614 138.79 428.939 138.985L443.414 147.401C444.013 147.715 444.687 147.856 445.362 147.81L460.948 144.829V126.516H460.889Z" fill="#FFC727"/>
<path opacity="0.5" d="M460.889 126.516L446.18 118.022L428.452 135.088C428.185 135.357 427.983 135.682 427.861 136.04C427.738 136.399 427.699 136.78 427.746 137.155C427.793 137.531 427.925 137.89 428.131 138.207C428.338 138.524 428.614 138.79 428.939 138.985L443.414 147.401C444.013 147.715 444.687 147.856 445.362 147.81L460.948 144.829V126.516H460.889Z" fill="white"/>
<path opacity="0.3" d="M443.414 147.401L435.621 142.94L434.705 142.336L430.536 139.92L430.03 139.608L428.919 138.965C428.595 138.771 428.319 138.505 428.112 138.188C427.905 137.871 427.774 137.511 427.727 137.136C427.68 136.76 427.719 136.379 427.841 136.021C427.963 135.663 428.165 135.337 428.432 135.069L446.161 118.002L460.889 126.516L443.161 143.505C442.879 143.755 442.658 144.066 442.515 144.414C442.372 144.762 442.311 145.139 442.335 145.515C442.359 145.89 442.469 146.256 442.656 146.583C442.843 146.91 443.102 147.189 443.414 147.401V147.401Z" fill="white"/>
<path d="M489.704 110.833C487.668 112.157 485.974 113.943 484.758 116.045C483.543 118.148 482.841 120.507 482.709 122.932C482.709 127.374 485.846 129.186 489.704 126.965C491.737 125.64 493.428 123.853 494.64 121.751C495.852 119.648 496.55 117.29 496.678 114.866C496.678 110.385 493.561 108.612 489.704 110.833Z" fill="white"/>
<path d="M515.439 95.9491C513.406 97.2741 511.715 99.0605 510.503 101.163C509.291 103.265 508.593 105.624 508.465 108.047C508.465 112.489 511.582 114.301 515.439 112.061C517.47 110.738 519.16 108.954 520.371 106.856C521.583 104.757 522.283 102.402 522.414 99.9819C522.375 95.5205 519.297 93.7086 515.439 95.9491Z" fill="white"/>
<path d="M541.175 81.0449C539.146 82.3734 537.457 84.1606 536.245 86.2623C535.034 88.3639 534.333 90.7211 534.201 93.1433C534.201 97.6047 537.318 99.3971 541.175 97.1761C543.214 95.8502 544.909 94.0614 546.125 91.9555C547.34 89.8496 548.041 87.4863 548.169 85.0582C548.169 80.6358 545.033 78.8239 541.175 81.0449Z" fill="white"/>
<path d="M759.94 146.992L752.868 133.764L758.557 117.34V107.229L741.14 117.282V127.335L748.621 140.31C748.745 140.504 748.92 140.659 749.128 140.758V140.758L759.94 146.992Z" fill="#FFC727"/>
<path opacity="0.2" d="M759.94 146.992L752.868 133.764L758.557 117.34V107.229L741.14 117.282V127.335L748.621 140.31C748.745 140.504 748.92 140.659 749.128 140.758L759.94 146.992Z" fill="black"/>
<path d="M812.834 41.7692C812.738 39.9576 812.215 38.1945 811.307 36.6236C810.4 35.0527 809.134 33.7184 807.613 32.7295L803.366 30.2747C801.75 29.4487 799.96 29.0181 798.145 29.0181C796.33 29.0181 794.54 29.4487 792.924 30.2747L694.48 87.1431C692.967 88.1442 691.707 89.484 690.8 91.0564C689.894 92.6288 689.367 94.3906 689.259 96.2023V147.109C689.356 148.921 689.879 150.684 690.787 152.255C691.694 153.826 692.96 155.16 694.48 156.149L698.728 158.604C700.349 159.413 702.137 159.835 703.949 159.835C705.761 159.835 707.549 159.413 709.17 158.604L752.031 133.666L759.512 146.603C759.62 146.776 759.774 146.915 759.956 147.005C760.139 147.095 760.344 147.132 760.547 147.112C760.749 147.091 760.943 147.015 761.104 146.89C761.265 146.766 761.389 146.599 761.46 146.408L769.37 123.633L807.516 101.716C809.037 100.727 810.302 99.3926 811.21 97.8216C812.117 96.2507 812.64 94.4876 812.737 92.6761L812.834 41.7692Z" fill="#FFC727"/>
<path d="M718.755 106.06L797.463 60.6082C799.801 59.2639 801.691 60.2185 801.691 62.7512C801.585 64.1671 801.147 65.5382 800.413 66.7533C799.678 67.9684 798.668 68.9934 797.463 69.7453L718.755 115.197C716.437 116.541 714.547 115.587 714.547 113.054C714.652 111.64 715.088 110.271 715.819 109.056C716.55 107.842 717.555 106.815 718.755 106.06V106.06Z" fill="white"/>
<path d="M718.755 126.302L797.463 80.87C799.801 79.5257 801.691 80.4804 801.691 82.9935C801.588 84.4128 801.151 85.7878 800.417 87.0065C799.682 88.2252 798.67 89.2533 797.463 90.0071L718.755 135.439C716.437 136.803 714.547 135.829 714.547 133.316C714.649 131.899 715.084 130.526 715.815 129.307C716.546 128.089 717.553 127.06 718.755 126.302Z" fill="white"/>
<path opacity="0.2" d="M689.259 147.109C689.356 148.921 689.879 150.684 690.787 152.255C691.694 153.826 692.96 155.16 694.48 156.149L698.728 158.604C700.199 159.344 701.81 159.764 703.455 159.838C705.1 159.912 706.742 159.637 708.274 159.032C705.819 159.948 703.949 158.565 703.949 155.584V104.677C704.011 102.862 704.534 101.092 705.468 99.5338L690.779 91.0396C689.845 92.6046 689.322 94.3807 689.259 96.2023V147.109Z" fill="black"/>
<path opacity="0.2" d="M812.659 40.2496C812.055 38.0286 810.029 37.3272 807.613 38.7105L709.17 95.5984C707.62 96.5496 706.35 97.8939 705.488 99.4948L690.798 91.0201C691.672 89.4277 692.94 88.0861 694.48 87.1236L792.904 30.2357C794.528 29.4231 796.319 29 798.135 29C799.951 29 801.742 29.4231 803.366 30.2357L807.613 32.6905C808.925 33.5405 810.049 34.6493 810.917 35.9492C811.784 37.249 812.377 38.7124 812.659 40.2496V40.2496Z" fill="white"/>
</svg>
