<svg width="930" height="929" viewBox="0 0 930 929" fill="none" xmlns="http://www.w3.org/2000/svg">
<path d="M883.86 138.419C909.342 112.937 909.343 71.6218 883.86 46.1396C858.378 20.6573 817.063 20.6573 791.581 46.1396C766.098 71.6219 766.098 112.937 791.581 138.419C817.063 163.901 858.378 163.901 883.86 138.419Z" fill="#EBEBEB"/>
<path d="M884.749 137.789C909.065 113.474 909.065 74.0505 884.75 49.735C860.434 25.4195 821.011 25.4195 796.695 49.735C772.38 74.0506 772.38 113.474 796.695 137.789C821.011 162.105 860.434 162.105 884.749 137.789Z" fill="#DBDBDB"/>
<path d="M854.04 150.617C885.4 143.262 904.86 111.876 897.504 80.5163C890.149 49.1561 858.764 29.6964 827.403 37.0519C796.043 44.4073 776.584 75.7926 783.939 107.153C791.294 138.513 822.68 157.973 854.04 150.617Z" fill="white"/>
<path opacity="0.5" d="M897.716 81.3147C871.152 97.4002 827.507 123.791 803.108 138.274C796.206 132.458 790.745 125.122 787.152 116.841L867.861 42.1292C875.39 46.0942 881.962 51.6551 887.118 58.4233C892.275 65.1915 895.892 73.0038 897.716 81.3147Z" fill="#EBEBEB"/>
<path opacity="0.5" d="M898.907 95.7981C898.691 102.284 897.388 108.687 895.053 114.741L822.311 149.142C819.138 148.093 816.059 146.774 813.11 145.202C835.171 132.494 875.33 109.459 898.907 95.7981Z" fill="#EBEBEB"/>
<path d="M841.276 39.6611H840.15V48.4941H841.276V39.6611Z" fill="#C7C7C7"/>
<path d="M814.125 46.589L813.15 47.1519L817.567 54.8014L818.542 54.2386L814.125 46.589Z" fill="#C7C7C7"/>
<path d="M794.101 66.1752L793.538 67.1501L801.188 71.5666L801.751 70.5917L794.101 66.1752Z" fill="#C7C7C7"/>
<path d="M795.444 93.1787H786.611V94.3045H795.444V93.1787Z" fill="#C7C7C7"/>
<path d="M801.26 115.927L793.611 120.344L794.175 121.319L801.823 116.902L801.26 115.927Z" fill="#C7C7C7"/>
<path d="M817.594 132.675L813.182 140.327L814.157 140.889L818.57 133.237L817.594 132.675Z" fill="#C7C7C7"/>
<path d="M841.276 139.01H840.15V147.843H841.276V139.01Z" fill="#C7C7C7"/>
<path d="M863.822 132.648L862.847 133.21L867.264 140.86L868.239 140.297L863.822 132.648Z" fill="#C7C7C7"/>
<path d="M880.833 111.997L880.27 112.977L887.955 117.393L888.518 116.414L880.833 111.997Z" fill="#C7C7C7"/>
<path d="M894.793 93.1787H885.96V94.3045H894.793V93.1787Z" fill="#C7C7C7"/>
<path d="M887.282 66.2576L879.634 70.6768L880.197 71.6515L887.845 67.2323L887.282 66.2576Z" fill="#C7C7C7"/>
<path d="M867.193 46.5788L862.78 54.2307L863.755 54.7931L868.168 47.1412L867.193 46.5788Z" fill="#C7C7C7"/>
<path d="M841.557 43.6662L843.462 97.6816L837.942 97.6166L840.042 43.6445L841.557 43.6662Z" fill="#C7C7C7"/>
<path d="M875.201 74.9063L838.851 98.1145L836.21 93.2434L874.486 73.5857L875.201 74.9063Z" fill="#A6A6A6"/>
<path d="M842.618 93.7632C842.568 94.2307 842.347 94.6632 841.997 94.9775C841.648 95.2917 841.194 95.4656 840.724 95.4656C840.254 95.4656 839.8 95.2917 839.45 94.9775C839.101 94.6632 838.88 94.2307 838.829 93.7632C838.801 93.4975 838.829 93.2287 838.911 92.9743C838.993 92.72 839.128 92.4858 839.307 92.287C839.485 92.0882 839.704 91.9292 839.948 91.8204C840.192 91.7115 840.457 91.6553 840.724 91.6553C840.991 91.6553 841.255 91.7115 841.5 91.8204C841.744 91.9292 841.962 92.0882 842.141 92.287C842.32 92.4858 842.454 92.72 842.537 92.9743C842.619 93.2287 842.647 93.4975 842.618 93.7632Z" fill="#C7C7C7"/>
<path d="M888.082 274.341C879.71 279.385 869.957 281.649 860.22 280.81C850.482 279.97 841.26 276.07 833.876 269.668C826.491 263.266 821.322 254.69 819.11 245.17C816.898 235.651 817.756 225.675 821.561 216.672C825.367 207.67 831.924 200.103 840.294 195.056C848.663 190.01 858.416 187.742 868.154 188.577C877.891 189.413 887.115 193.31 894.502 199.709C901.889 206.108 907.061 214.682 909.277 224.201C911.56 233.726 910.734 243.732 906.92 252.754C903.106 261.777 896.505 269.341 888.082 274.341V274.341Z" fill="#EBEBEB"/>
<path d="M878.318 229.548C878.288 232.337 877.431 235.053 875.857 237.354C874.282 239.656 872.061 241.438 869.473 242.476C866.885 243.514 864.047 243.762 861.319 243.187C858.591 242.612 856.094 241.24 854.145 239.246C852.196 237.252 850.883 234.724 850.371 231.983C849.859 229.242 850.172 226.411 851.269 223.848C852.367 221.285 854.2 219.105 856.537 217.584C858.874 216.063 861.609 215.269 864.398 215.303C868.132 215.349 871.695 216.875 874.305 219.546C876.915 222.216 878.359 225.814 878.318 229.548Z" fill="white"/>
<path d="M888.082 268.539V274.341C880.712 278.776 872.252 281.069 863.651 280.962C855.05 280.855 846.65 278.352 839.392 273.735V267.954C839.431 264.759 840.098 261.602 841.357 258.664C842.615 255.727 844.44 253.066 846.726 250.833C849.013 248.601 851.717 246.841 854.684 245.653C857.651 244.466 860.823 243.874 864.019 243.913C867.214 243.951 870.371 244.618 873.309 245.877C876.246 247.135 878.907 248.96 881.14 251.247C883.372 253.533 885.132 256.237 886.32 259.204C887.507 262.172 888.099 265.343 888.06 268.539H888.082Z" fill="white"/>
<path d="M609.54 496.746C604.054 500.041 597.666 501.516 591.291 500.958C584.915 500.4 578.88 497.838 574.05 493.64C569.22 489.442 565.843 483.823 564.402 477.587C562.961 471.352 563.531 464.821 566.03 458.929C568.529 453.037 572.828 448.088 578.313 444.79C583.797 441.492 590.185 440.014 596.56 440.569C602.936 441.123 608.972 443.682 613.804 447.877C618.637 452.073 622.017 457.691 623.461 463.925C624.906 470.165 624.337 476.702 621.836 482.599C619.335 488.495 615.031 493.448 609.54 496.746V496.746Z" fill="#EBEBEB"/>
<path d="M603.175 467.411C603.158 469.241 602.598 471.025 601.566 472.536C600.534 474.048 599.076 475.219 597.378 475.901C595.68 476.583 593.818 476.746 592.027 476.369C590.236 475.992 588.597 475.092 587.318 473.783C586.04 472.474 585.178 470.814 584.843 469.015C584.508 467.216 584.715 465.358 585.437 463.676C586.159 461.994 587.364 460.565 588.899 459.569C590.434 458.573 592.231 458.054 594.061 458.08C595.272 458.094 596.469 458.347 597.582 458.823C598.696 459.3 599.704 459.991 600.551 460.858C601.397 461.724 602.065 462.749 602.515 463.873C602.965 464.998 603.19 466.2 603.175 467.411Z" fill="white"/>
<path d="M609.584 492.936V496.746C604.757 499.651 599.216 501.153 593.583 501.085C587.95 501.016 582.448 499.378 577.694 496.356V492.568C577.644 490.426 578.025 488.296 578.816 486.305C579.607 484.314 580.79 482.503 582.296 480.979C583.802 479.455 585.599 478.25 587.58 477.436C589.562 476.621 591.687 476.214 593.829 476.239C595.971 476.264 598.087 476.72 600.049 477.58C602.011 478.439 603.78 479.685 605.25 481.244C606.72 482.802 607.862 484.64 608.606 486.649C609.351 488.658 609.683 490.796 609.584 492.936Z" fill="white"/>
<path d="M253.861 42.3457H0V431.603H253.861V42.3457Z" fill="#DBDBDB"/>
<path d="M121.042 57.9333H13.834V231.086H121.042V57.9333Z" fill="white"/>
<path d="M240.049 57.9333H132.841V231.086H240.049V57.9333Z" fill="white"/>
<path d="M121.042 242.885H13.834V416.037H121.042V242.885Z" fill="white"/>
<path d="M240.049 242.885H132.841V416.037H240.049V242.885Z" fill="white"/>
<path d="M60.1205 42.3457H0V599.256H60.1205V42.3457Z" fill="#EBEBEB"/>
<path d="M48.7329 68.823L49.2092 129.03L49.3607 189.259L49.6855 309.673L49.3824 430.109L49.2092 490.316L48.7329 550.545L48.2783 490.316L48.1051 430.109L47.7803 309.673L48.1051 189.259L48.2783 129.03L48.7329 68.823Z" fill="white"/>
<path d="M21.1299 82.7869L21.5845 136.542L21.8659 190.32L22.0824 297.852L21.8659 405.385L21.6061 459.141L21.1299 512.918L20.6536 459.141L20.3938 405.385L20.1773 297.852L20.3938 190.32L20.6536 136.542L21.1299 82.7869Z" fill="white"/>
<path d="M34.9422 95.4734L35.3968 158.43L35.57 221.387L35.8948 347.3L35.57 473.213L35.3968 536.17L34.9422 599.126L34.4659 536.17L34.2927 473.213L33.9896 347.3L34.2927 221.387L34.4659 158.43L34.9422 95.4734Z" fill="white"/>
<path d="M10.868 72.0054L11.3226 137.885L11.4958 203.786L11.8206 335.566L11.4958 467.346L11.3226 533.247L10.868 599.126L10.3917 533.247L10.2185 467.346L9.91544 335.566L10.2185 203.786L10.3917 137.885L10.868 72.0054Z" fill="white"/>
<path d="M193.763 599.256H253.883L253.883 42.3456H193.763L193.763 599.256Z" fill="#EBEBEB"/>
<path d="M205.15 68.823L205.605 129.03L205.778 189.259L206.103 309.673L205.778 430.109L205.605 490.316L205.15 550.545L204.674 490.316L204.522 430.109L204.198 309.673L204.522 189.259L204.696 129.03L205.15 68.823Z" fill="white"/>
<path d="M232.753 82.7869L233.23 136.542L233.489 190.32L233.706 297.852L233.489 405.385L233.23 459.141L232.753 512.918L232.299 459.141L232.017 405.385L231.801 297.852L232.039 190.32L232.299 136.542L232.753 82.7869Z" fill="white"/>
<path d="M218.963 95.4734L219.417 158.43L219.59 221.387L219.915 347.3L219.59 473.213L219.417 536.17L218.963 599.126L218.486 536.17L218.313 473.213L218.01 347.3L218.313 221.387L218.486 158.43L218.963 95.4734Z" fill="white"/>
<path d="M243.037 72.0054L243.491 137.885L243.665 203.786L243.989 335.566L243.665 467.346L243.491 533.247L243.037 599.126L242.56 533.247L242.387 467.346L242.084 335.566L242.387 203.786L242.56 137.885L243.037 72.0054Z" fill="white"/>
<path d="M459.423 928.977C690.509 928.977 877.842 906.451 877.842 878.664C877.842 850.877 690.509 828.351 459.423 828.351C228.337 828.351 41.0041 850.877 41.0041 878.664C41.0041 906.451 228.337 928.977 459.423 928.977Z" fill="#EBEBEB"/>
<path d="M0 731.577L114.85 731.036L229.722 730.841L459.423 730.495L689.124 730.841L803.974 731.036L918.846 731.577L803.974 732.097L689.124 732.292L459.423 732.638L229.722 732.292L114.85 732.097L0 731.577Z" fill="#263238"/>
<path d="M862.774 527.597C855.132 520.106 845.238 511.035 833.525 514.282C822.528 517.313 818.371 529.328 816.336 539.352C813.803 552.342 811.833 565.332 809.841 578.321C807.849 591.311 805.836 604.582 803.931 617.723C802.87 625.149 801.766 632.553 800.791 639.979L799.233 651.107C798.735 654.744 798.129 658.381 797.934 662.061C797.934 663.23 799.687 663.403 799.947 662.278C801.376 656.086 801.961 649.656 802.87 643.378C803.779 637.099 804.688 630.734 805.619 624.434C807.467 611.878 809.343 599.336 811.248 586.808C813.153 574.28 815.102 561.745 817.094 549.203C818.782 538.573 819.583 525.388 829.001 518.352C831.558 516.607 834.517 515.541 837.6 515.253C840.682 514.966 843.787 515.466 846.623 516.707C852.815 519.067 857.773 523.505 862.622 527.9C862.709 527.986 862.925 527.748 862.774 527.597Z" fill="#263238"/>
<path d="M852.295 519.933C852.295 519.933 836.665 514.304 828.936 525.735C821.207 537.166 830.451 566.176 901.678 582.565C899.575 560.3 893.78 538.541 884.532 518.179C869.269 484.882 842.055 497.482 852.295 519.933Z" fill="#3FC68D"/>
<path d="M897.586 577.802C896.496 575.817 895.296 573.894 893.992 572.043C892.802 570.203 891.611 568.362 890.377 566.544C889.468 565.18 888.537 563.838 887.606 562.474C887.606 562.149 887.606 561.803 887.736 561.456C887.866 561.11 887.887 560.222 887.974 559.616C888.147 558.274 888.342 556.932 888.537 555.611C888.731 554.29 888.948 552.948 889.208 551.627C889.376 550.2 889.688 548.793 890.139 547.427C890.139 547.233 889.857 547.124 889.836 547.427C889.685 548.231 889.468 549.02 889.186 549.787C889.035 550.393 888.861 551 888.71 551.584C888.363 552.948 888.039 554.29 887.736 555.654C887.433 557.018 887.216 558.166 887 559.443C886.884 560.049 886.798 560.655 886.74 561.261C885.462 559.465 884.164 557.668 882.821 555.914C879.054 550.913 875.049 546.129 870.914 541.452C870.914 541.452 870.914 541.452 870.914 541.322C871.282 533.832 871.087 526.428 872.754 519.067C872.754 518.872 872.494 518.764 872.451 518.958C870.573 525.9 869.676 533.071 869.788 540.261C868.316 538.594 866.801 536.949 865.285 535.304C861.821 531.58 858.285 527.921 854.677 524.328C854.648 524.296 854.608 524.277 854.566 524.275C854.523 524.273 854.481 524.288 854.45 524.317C854.418 524.345 854.399 524.385 854.397 524.428C854.395 524.471 854.41 524.512 854.439 524.544C860.436 531.039 866.151 537.729 871.758 544.57C867.423 544.509 863.087 544.675 858.769 545.068C853.941 545.414 849.135 546.042 844.35 546.691C844.317 546.704 844.288 546.726 844.268 546.755C844.248 546.784 844.237 546.818 844.237 546.854C844.237 546.889 844.248 546.924 844.268 546.953C844.288 546.982 844.317 547.004 844.35 547.016C849.131 546.335 853.943 545.901 858.769 545.717C863.402 545.522 868.035 545.717 872.668 545.717C875.67 549.441 878.636 553.193 881.566 556.975H880.894C879.812 556.975 878.73 556.975 877.625 556.975C875.46 556.975 873.296 557.17 871.131 557.365C866.712 557.721 862.322 558.372 857.989 559.313C857.963 559.303 857.935 559.3 857.907 559.304C857.88 559.307 857.853 559.317 857.83 559.333C857.807 559.349 857.789 559.37 857.776 559.395C857.763 559.42 857.756 559.447 857.756 559.475C857.756 559.503 857.763 559.531 857.776 559.556C857.789 559.58 857.807 559.602 857.83 559.618C857.853 559.633 857.88 559.644 857.907 559.647C857.935 559.651 857.963 559.647 857.989 559.638C862.319 559.14 866.649 558.728 871.152 558.577C873.317 558.577 875.352 558.577 877.452 558.577H880.721C881.325 558.665 881.942 558.605 882.518 558.404C884.438 560.886 886.35 563.383 888.255 565.894C889.771 567.886 891.243 569.878 892.715 571.913C894.187 573.948 895.573 576.243 897.24 578.17C897.435 578.148 897.651 577.975 897.586 577.802Z" fill="#263238"/>
<path d="M859.115 536.127C856.589 535.798 854.041 535.675 851.495 535.759C848.962 535.759 846.407 535.759 843.874 535.91C843.848 535.9 843.82 535.897 843.792 535.901C843.764 535.904 843.738 535.914 843.715 535.93C843.692 535.946 843.673 535.968 843.66 535.992C843.647 536.017 843.641 536.045 843.641 536.073C843.641 536.1 843.647 536.128 843.66 536.153C843.673 536.178 843.692 536.199 843.715 536.215C843.738 536.231 843.764 536.241 843.792 536.244C843.82 536.248 843.848 536.245 843.874 536.235C846.45 536.04 849.027 535.997 851.603 536.04C854.179 536.083 856.604 536.322 859.072 536.257C859.18 536.257 859.202 536.127 859.115 536.127Z" fill="#263238"/>
<path d="M881.587 541.864C881.869 539.439 882.172 536.993 882.691 534.589C882.691 534.373 882.41 534.286 882.388 534.589C882.02 536.993 881.544 539.352 881.198 541.756C881.024 542.946 880.851 544.159 880.7 545.349C880.488 546.469 880.394 547.609 880.418 548.748C880.418 548.965 880.786 548.987 880.83 548.748C881.049 547.628 881.173 546.491 881.198 545.349C881.198 544.18 881.328 543.011 881.587 541.864Z" fill="#263238"/>
<path d="M876.781 514.91C876.153 517.27 875.547 519.673 875.114 522.076C874.876 523.31 874.703 524.523 874.53 525.757C874.31 526.948 874.23 528.162 874.291 529.372C874.291 529.372 874.443 529.372 874.486 529.372C874.77 528.25 874.958 527.105 875.049 525.951C875.201 524.761 875.374 523.57 875.59 522.401C876.023 519.911 876.456 517.465 877.084 515.018C877.128 514.824 876.846 514.715 876.781 514.91Z" fill="#263238"/>
<path d="M784.035 659.355C783.645 654.866 783.212 650.392 782.736 645.932C781.812 637.056 780.744 628.194 779.532 619.347C778.341 610.536 777.215 601.703 775.786 592.913C775.255 588.84 774.349 584.825 773.08 580.919C772.616 579.247 771.777 577.702 770.625 576.404C769.473 575.106 768.039 574.088 766.434 573.428C758.034 570.527 752.383 579.209 749.006 585.357C748.898 585.552 749.179 585.682 749.287 585.509C751.323 582.608 756.908 574.424 763.273 574.814C767.603 575.074 770.98 578.105 773.015 588.756C778.146 615.342 782.758 669.271 783.299 672.799C783.58 674.661 784.901 674.596 784.901 672.583C784.944 668.166 784.425 663.685 784.035 659.355Z" fill="#263238"/>
<path d="M751.258 582.067C751.258 582.067 758.597 556.196 742.403 569.077C715.449 590.618 714.497 637.424 714.497 637.424C714.497 637.424 762.515 609.562 768.361 591.289C777.237 563.946 751.258 582.067 751.258 582.067Z" fill="#3FC68D"/>
<path d="M760.35 594.753C756.605 595.511 752.795 596.009 748.984 596.55L743.594 597.308C742.381 597.481 741.147 597.611 739.935 597.741C743.507 592.827 747.101 587.934 750.521 582.911C750.651 582.738 750.348 582.521 750.197 582.695C747.362 585.622 744.688 588.7 742.186 591.917C741.494 589.926 740.779 587.934 740.021 585.92C739.264 583.907 738.333 581.309 737.748 578.906C737.748 578.711 737.38 578.906 737.445 579.014C738.095 581.374 738.549 583.799 739.199 586.18C739.848 588.562 740.498 590.748 741.364 592.978C739.61 595.251 737.922 597.59 736.276 599.949C735.453 597.611 734.436 595.338 733.722 592.978C733.722 592.762 733.332 592.978 733.397 592.978C734.263 595.598 734.717 598.326 735.562 600.967C734.458 602.569 733.397 604.193 732.314 605.795C730.366 608.804 728.547 611.835 726.772 614.909C726.632 614.965 726.514 615.065 726.436 615.194C726.358 615.323 726.324 615.473 726.339 615.623C723.308 620.863 720.429 626.188 717.679 631.536C717.679 631.731 717.874 631.882 717.961 631.687C720.797 626.405 723.979 621.252 727.27 616.186C727.784 616.025 728.314 615.924 728.85 615.883L730.496 615.515C731.73 615.255 732.964 614.931 734.198 614.628C736.623 614.021 739.026 613.437 741.494 613.026C741.689 613.026 741.602 612.679 741.494 612.701C738.593 613.264 735.67 613.588 732.834 613.935C731.448 614.086 730.063 614.26 728.699 614.498H728.504C730.207 611.885 731.953 609.287 733.743 606.704C735.475 604.193 737.272 601.681 739.069 599.213C740.714 598.975 742.381 598.542 744.027 598.217L749.569 597.135C753.293 596.399 756.973 595.576 760.718 594.97C760.632 595.035 760.545 594.71 760.35 594.753Z" fill="#263238"/>
<path d="M731.535 597.308C731.319 596.615 731.124 595.922 730.886 595.251C730.439 593.831 730.078 592.385 729.803 590.921C729.803 590.726 729.457 590.813 729.5 591.03C729.803 592.48 730.149 593.931 730.474 595.359C730.771 596.835 731.191 598.283 731.73 599.689C731.753 599.761 731.803 599.821 731.87 599.855C731.937 599.89 732.015 599.896 732.087 599.873C732.159 599.85 732.219 599.8 732.253 599.733C732.288 599.666 732.294 599.588 732.271 599.516C732.076 598.737 731.773 598.044 731.535 597.308Z" fill="#263238"/>
<path d="M765.243 588.756C763.078 589.103 760.913 589.254 758.64 589.449C756.367 589.644 754.31 589.947 752.145 590.272C752.037 590.272 752.037 590.467 752.145 590.467C754.31 590.315 756.475 590.142 758.748 589.86C761.022 589.579 763.078 589.233 765.243 589.081C765.46 589.081 765.438 588.735 765.243 588.756Z" fill="#263238"/>
<path d="M819.302 626.621C818.436 607.57 817.137 588.561 815.318 569.596C814.366 560.157 813.305 550.718 811.984 541.322C810.786 532.081 808.963 522.931 806.529 513.936C804.831 506.954 801.73 500.391 797.414 494.646C795.278 491.852 792.466 489.646 789.244 488.237C786.021 486.829 782.492 486.262 778.99 486.592C770.655 487.632 763.944 492.892 758.142 498.586C751.647 505.081 745.672 511.966 739.632 518.828C738.116 520.56 736.601 522.292 735.107 524.046C734.956 524.198 735.107 524.436 735.324 524.263C741.234 517.486 747.361 510.905 753.769 504.626C759.679 498.803 765.784 492.438 773.989 490.056C777.798 488.828 781.882 488.73 785.745 489.775C788.819 490.744 791.587 492.498 793.777 494.863C798.165 499.92 801.275 505.956 802.848 512.464C807.957 529.978 809.798 548.315 811.703 566.392C813.608 584.47 814.929 603.196 815.86 621.62C816.79 640.044 817.505 658.727 819.302 677.194C819.518 679.489 819.821 681.762 820.103 684.035C820.298 685.551 822.679 685.572 822.549 684.035C820.969 664.876 820.146 645.759 819.302 626.621Z" fill="#263238"/>
<path d="M757.103 500.643C757.103 500.643 767.928 480.531 755.133 474.079C742.338 467.628 699.277 515.625 686.742 585.747C686.742 585.747 756.215 555.005 779.835 524.393C803.454 493.78 776.587 487.091 757.103 500.643Z" fill="#3FC68D"/>
<path d="M767.3 517.01C759.506 517.01 751.712 516.425 743.918 516.49C745.369 514.802 746.841 513.113 748.248 511.468C750.427 509.229 752.466 506.857 754.353 504.367C754.462 504.215 754.224 503.977 754.072 504.107C751.977 505.911 750.023 507.873 748.227 509.974C746.257 512.139 744.33 514.152 742.381 516.231C739.394 519.456 736.471 522.725 733.57 526.038C733.57 525.713 733.57 525.388 733.57 525.085V520.993C733.57 518.331 733.57 515.689 733.57 513.048C733.57 507.679 733.57 502.223 733.981 496.919C733.981 496.724 733.678 496.724 733.657 496.919C733.289 502.288 732.726 507.744 732.466 513.048C732.336 515.689 732.271 518.352 732.249 520.993C732.249 522.357 732.249 523.721 732.249 525.107C732.249 525.843 732.249 526.622 732.249 527.402L730.864 528.939C724.629 536.04 718.718 543.401 712.96 550.891C712.96 550.48 712.96 550.069 712.851 549.657C712.851 548.835 712.678 548.012 712.57 547.189C712.375 545.392 712.137 543.617 711.856 541.82C711.574 540.023 711.336 538.486 711.055 536.819C710.773 535.152 710.297 533.031 710.145 531.125C710.155 531.099 710.158 531.071 710.155 531.043C710.151 531.016 710.141 530.989 710.125 530.966C710.109 530.943 710.088 530.925 710.063 530.912C710.038 530.899 710.011 530.892 709.983 530.892C709.955 530.892 709.927 530.899 709.903 530.912C709.878 530.925 709.857 530.943 709.841 530.966C709.825 530.989 709.815 531.016 709.811 531.043C709.808 531.071 709.811 531.099 709.82 531.125C710.152 533.016 710.376 534.925 710.492 536.841C710.643 538.551 710.795 540.262 710.968 541.993C711.141 543.725 711.271 545.436 711.444 547.146C711.444 547.969 711.596 548.791 711.682 549.614C711.682 550.047 711.791 550.458 711.834 550.87C711.882 551.215 712 551.546 712.18 551.844C711.184 553.143 710.189 554.42 709.214 555.719C705.274 560.944 701.384 566.198 697.545 571.48C697.415 571.632 697.653 571.848 697.762 571.697C701.442 566.912 705.209 562.236 709.019 557.581C711.877 557.711 714.8 557.581 717.679 557.451C720.559 557.321 723.698 557.451 726.707 557.451C726.924 557.451 726.902 557.126 726.707 557.126C723.698 557.126 720.667 557.235 717.658 557.235C714.648 557.235 712.115 557.126 709.366 557.235C712.722 553.143 716.121 549.095 719.519 545.046L723.265 540.716C724.421 540.861 725.588 540.897 726.75 540.824H730.842L738.549 540.716C743.853 540.716 749.158 540.456 754.462 540.435C754.657 540.435 754.657 540.11 754.462 540.11C749.158 540.11 743.853 539.829 738.549 539.699L730.842 539.504H726.729C725.949 539.504 725.148 539.504 724.369 539.504L733.029 529.134C733.095 529.092 733.147 529.031 733.18 528.96C736.038 525.605 738.874 522.228 741.84 518.915L743.031 517.551C751.128 517.789 759.203 517.27 767.3 517.421C767.516 517.335 767.516 517.01 767.3 517.01Z" fill="#263238"/>
<path d="M763.316 530.822H761.433C761.41 530.813 761.385 530.81 761.36 530.812C761.336 530.815 761.312 530.824 761.292 530.838C761.271 530.852 761.254 530.87 761.243 530.892C761.231 530.914 761.225 530.938 761.225 530.963C761.225 530.988 761.231 531.012 761.243 531.034C761.254 531.056 761.271 531.075 761.292 531.089C761.312 531.102 761.336 531.111 761.36 531.114C761.385 531.116 761.41 531.113 761.433 531.104H763.316C763.339 531.088 763.357 531.067 763.37 531.042C763.382 531.018 763.389 530.991 763.389 530.963C763.389 530.936 763.382 530.908 763.37 530.884C763.357 530.86 763.339 530.838 763.316 530.822Z" fill="#263238"/>
<path d="M759.116 530.844L751.604 530.693L747.859 530.563C746.702 530.411 745.53 530.411 744.373 530.563C744.243 530.563 744.265 530.758 744.373 530.801C745.527 531.032 746.706 531.112 747.88 531.039H751.626H759.116C759.333 531.169 759.311 530.844 759.116 530.844Z" fill="#263238"/>
<path d="M737.272 554.29C732.198 553.441 727.067 552.978 721.923 552.905C721.923 552.905 721.923 552.905 721.923 553.013C727.032 553.489 732.141 553.771 737.207 554.594C737.402 554.637 737.488 554.312 737.272 554.29Z" fill="#263238"/>
<path d="M716.402 531.927C716.402 531.494 716.294 531.039 716.229 530.606C716.099 529.589 715.947 528.593 715.796 527.597C715.493 525.692 715.168 523.786 714.8 521.881C714.8 521.708 714.454 521.751 714.475 521.881C714.721 523.859 714.937 525.829 715.125 527.792C715.125 528.744 715.276 529.718 715.363 530.693C715.339 531.625 715.471 532.554 715.753 533.442C715.791 533.504 715.846 533.553 715.913 533.583C715.979 533.614 716.052 533.624 716.124 533.612C716.196 533.6 716.263 533.568 716.316 533.518C716.369 533.469 716.407 533.405 716.424 533.334C716.498 532.867 716.491 532.391 716.402 531.927Z" fill="#263238"/>
<path d="M818.609 474.815C816.119 470.182 812.959 463.991 806.767 464.445C801.636 464.77 799.319 470.009 798.237 474.317C794.838 487.697 794.6 501.791 793.907 515.451C792.521 544.397 791.266 573.364 791.071 602.352C791.071 610.406 791.071 618.445 791.071 626.47C791.071 634.653 791.071 642.902 791.634 651.085C791.634 651.246 791.698 651.4 791.811 651.514C791.925 651.627 792.079 651.691 792.24 651.691C792.401 651.691 792.555 651.627 792.669 651.514C792.782 651.4 792.846 651.246 792.846 651.085C792.846 644.092 792.651 637.078 792.608 630.064C792.565 623.049 792.608 616.381 792.76 609.54C792.976 595.684 793.344 581.836 793.864 567.995C794.362 554.225 794.968 540.478 795.552 526.709C795.856 519.825 796.137 512.962 796.44 506.077C796.743 499.193 797.046 492.763 797.804 486.116C798.237 482.414 798.778 478.691 799.558 475.054C799.933 472.334 801.041 469.767 802.762 467.628C803.944 466.458 805.504 465.748 807.163 465.625C808.821 465.502 810.469 465.974 811.811 466.957C814.666 468.985 816.912 471.755 818.306 474.967C818.316 474.987 818.33 475.005 818.346 475.019C818.363 475.034 818.383 475.045 818.404 475.052C818.425 475.059 818.447 475.062 818.469 475.06C818.492 475.059 818.513 475.053 818.533 475.043C818.553 475.033 818.571 475.019 818.585 475.002C818.6 474.985 818.611 474.966 818.618 474.945C818.625 474.924 818.628 474.901 818.626 474.879C818.625 474.857 818.619 474.835 818.609 474.815Z" fill="#263238"/>
<path d="M816.942 472.585C816.942 472.585 811.833 454.573 823.112 463.579C841.882 478.582 842.597 511.208 842.597 511.208C842.597 511.208 809.213 491.724 805.078 479.037C798.843 459.986 816.942 472.585 816.942 472.585Z" fill="#3FC68D"/>
<path d="M835.539 497.829C835.214 497.331 834.889 496.855 834.586 496.357C834.63 495.845 834.63 495.331 834.586 494.819C834.586 494.04 834.586 493.261 834.586 492.481C834.586 490.966 834.586 489.45 834.76 487.935C834.76 487.892 834.742 487.851 834.712 487.82C834.682 487.79 834.64 487.773 834.597 487.773C834.554 487.773 834.513 487.79 834.482 487.82C834.452 487.851 834.435 487.892 834.435 487.935C834.435 489.429 834.283 490.923 834.262 492.416C834.262 493.153 834.262 493.91 834.262 494.581C834.262 494.884 834.262 495.209 834.262 495.556C832.941 493.521 831.599 491.507 830.213 489.515L828.979 487.827C828.781 485.87 828.745 483.901 828.871 481.938C828.871 479.773 828.871 477.76 829.001 475.66C829.001 475.443 828.698 475.465 828.676 475.66C828.676 477.825 828.524 479.99 828.395 482.155C828.395 483.692 828.178 485.272 828.265 486.809C825.061 482.479 821.64 478.149 818.176 473.993C818.046 473.863 817.808 473.993 817.916 474.209C820.081 476.915 822.116 479.708 824.13 482.523C820.211 481.592 816.206 481.072 812.222 480.488C812.028 480.488 811.941 480.769 812.222 480.812C816.552 481.44 820.601 482.501 824.779 483.432L829.52 490.208L831.404 493.001H831.231L829.932 492.828C829.022 492.719 828.091 492.633 827.161 492.568C825.234 492.416 823.307 492.308 821.38 492.222C821.164 492.222 821.185 492.525 821.38 492.525C823.285 492.525 825.169 492.719 827.052 492.914L830.04 493.282L831.339 493.434H831.729L834.933 498.154C836.816 500.946 838.505 503.934 840.518 506.618C840.541 506.648 840.573 506.668 840.609 506.675C840.646 506.682 840.683 506.676 840.715 506.657C840.747 506.639 840.771 506.609 840.783 506.574C840.794 506.539 840.793 506.501 840.778 506.467C839.194 503.492 837.445 500.608 835.539 497.829Z" fill="#263238"/>
<path d="M827.226 477.5V475.335C827.189 473.889 827.247 472.443 827.399 471.005C827.399 470.965 827.383 470.926 827.354 470.898C827.326 470.869 827.287 470.854 827.247 470.854C827.207 470.854 827.168 470.869 827.14 470.898C827.112 470.926 827.096 470.965 827.096 471.005C827.096 472.477 826.922 473.928 826.857 475.335C826.857 476.071 826.857 476.807 826.857 477.5C826.857 477.825 826.857 478.171 826.857 478.496C826.803 478.847 826.803 479.205 826.857 479.557C826.869 479.585 826.888 479.609 826.913 479.626C826.938 479.643 826.968 479.652 826.998 479.652C827.028 479.652 827.058 479.643 827.083 479.626C827.108 479.609 827.128 479.585 827.139 479.557C827.193 479.241 827.193 478.919 827.139 478.604L827.226 477.5Z" fill="#263238"/>
<path d="M823.134 484.947C821.9 484.731 820.622 484.666 819.367 484.557C818.111 484.449 816.617 484.319 815.253 484.146C815.227 484.136 815.199 484.133 815.171 484.137C815.144 484.14 815.117 484.15 815.094 484.166C815.071 484.182 815.053 484.203 815.04 484.228C815.027 484.253 815.02 484.281 815.02 484.308C815.02 484.336 815.027 484.364 815.04 484.389C815.053 484.413 815.071 484.435 815.094 484.451C815.117 484.467 815.144 484.477 815.171 484.48C815.199 484.484 815.227 484.481 815.253 484.471C817.895 484.622 820.514 485.099 823.155 485.185C823.134 485.207 823.242 484.969 823.134 484.947Z" fill="#263238"/>
<path d="M819.388 570.939C812.374 565.657 806.074 558.101 796.613 557.733C788.819 557.408 783.364 563.275 780.246 569.813C778.672 573.307 777.397 576.928 776.436 580.638C775.029 585.574 773.686 590.532 772.452 595.511C770.013 605.297 767.928 615.162 766.196 625.106C765.243 630.648 764.377 636.212 763.663 641.798C762.77 647.453 762.22 653.157 762.017 658.879C762.017 659.098 762.098 659.308 762.244 659.471C762.389 659.634 762.59 659.737 762.807 659.761C763.024 659.785 763.243 659.729 763.42 659.602C763.598 659.475 763.723 659.287 763.771 659.074C764.724 654.419 765.113 649.592 765.806 644.872C766.499 640.152 767.213 635.389 767.971 630.67C769.573 621.202 771.435 611.82 773.557 602.526C775.57 593.693 777.562 584.73 780.398 576.135C782.563 569.965 785.724 562.777 792.392 560.547C802.502 557.192 811.703 565.765 819.129 571.372C819.323 571.285 819.562 571.069 819.388 570.939Z" fill="#263238"/>
<path d="M812.114 565.894C812.114 565.894 805.619 547.427 815.015 543.79C829.044 538.378 865.74 579.707 858.552 643.053C858.552 643.053 830.191 627.444 809.256 609.864C788.321 592.285 782.952 569.315 792.175 563.383C801.398 557.451 812.114 565.894 812.114 565.894Z" fill="#3FC68D"/>
<path d="M854.331 629.479C853.35 627.269 852.206 625.134 850.91 623.092C849.719 620.927 848.507 618.762 847.251 616.598C844.805 612.441 842.38 608.262 839.89 604.127L838.656 602.114C838.656 601.876 838.765 601.616 838.808 601.378C838.959 600.772 839.089 600.166 839.241 599.538C839.544 598.174 839.782 596.788 840.042 595.403C840.562 592.697 841.016 589.947 841.752 587.284C841.752 587.089 841.471 587.024 841.428 587.284C840.865 589.99 839.999 592.675 839.263 595.316C838.873 596.615 838.462 597.914 838.115 599.235C837.985 599.689 837.877 600.144 837.747 600.599C834.738 595.662 831.664 590.726 828.373 585.985C828.572 585.324 828.681 584.64 828.698 583.95C828.698 583.019 828.892 582.11 829.001 581.179C829.26 579.014 829.499 577.001 829.802 574.922C830.318 570.847 831.041 566.801 831.967 562.799C831.967 562.582 831.685 562.539 831.642 562.799C830.624 566.782 829.477 570.787 828.784 574.836C828.416 576.806 828.048 578.798 827.788 580.789C827.658 581.807 827.55 582.803 827.442 583.82C827.442 584.102 827.442 584.405 827.334 584.708C826.316 583.279 825.299 581.85 824.238 580.378C820.99 576.048 817.635 571.956 814.257 567.821C814.127 567.648 813.846 567.821 813.976 567.994C819.782 575.414 825.112 583.194 829.932 591.289L832.703 595.771L831.772 595.662C830.603 595.511 829.39 595.424 828.2 595.316L821.034 594.688C816.271 594.32 811.465 594.017 806.702 593.519C806.507 593.519 806.442 593.801 806.702 593.822C811.53 594.385 816.336 595.165 821.142 595.836C823.502 596.182 825.883 596.485 828.243 596.788C830.044 597.165 831.88 597.354 833.72 597.351C835.582 600.404 837.487 603.456 839.349 606.509C838.924 606.476 838.497 606.476 838.072 606.509H831.252H822.03C821.813 606.509 821.856 606.834 822.03 606.834C825.147 606.834 828.265 607.028 831.382 607.18L835.712 607.461L837.877 607.613C838.518 607.761 839.184 607.761 839.825 607.613L844.632 615.407C846.082 617.81 847.576 620.191 849.091 622.551C850.511 625.078 852.118 627.495 853.898 629.782C854.136 629.782 854.396 629.674 854.331 629.479Z" fill="#263238"/>
<path d="M840.8 578.278C840.523 580.311 840.103 582.322 839.544 584.297C839.024 586.353 838.418 588.388 837.747 590.402C837.73 590.453 837.734 590.51 837.758 590.559C837.783 590.607 837.825 590.644 837.877 590.662C837.929 590.679 837.985 590.675 838.034 590.65C838.082 590.626 838.12 590.583 838.137 590.532C838.765 588.518 839.328 586.505 839.825 584.47C840.323 582.435 840.626 580.378 841.124 578.343C841.168 578.126 840.821 578.083 840.8 578.278Z" fill="#263238"/>
<path d="M819.973 590.662C819.54 590.287 818.987 590.08 818.414 590.077L815.751 589.709L810.75 589.103C807.308 588.713 803.844 588.367 800.38 587.934C800.347 587.946 800.318 587.968 800.298 587.997C800.278 588.026 800.267 588.061 800.267 588.096C800.267 588.132 800.278 588.166 800.298 588.195C800.318 588.224 800.347 588.246 800.38 588.259C803.628 588.648 806.875 589.146 810.144 589.558L814.929 590.185L817.223 590.445C818.124 590.443 819.017 590.597 819.865 590.9C819.891 590.897 819.916 590.887 819.938 590.872C819.959 590.857 819.976 590.836 819.987 590.812C819.998 590.788 820.002 590.761 820 590.735C819.998 590.708 819.988 590.683 819.973 590.662Z" fill="#263238"/>
<path d="M840.756 618.503C839.133 618.373 837.487 618.33 835.842 618.265H833.374H832.183C831.672 618.319 831.157 618.319 830.646 618.265C830.408 618.265 830.386 618.611 830.646 618.589C831.127 618.525 831.615 618.525 832.097 618.589H833.374L835.864 618.741C837.487 618.849 839.133 618.936 840.756 618.957C840.951 618.871 840.951 618.524 840.756 618.503Z" fill="#263238"/>
<path d="M850.758 611.423C850.953 610.492 851.127 609.562 851.3 608.631C851.624 606.812 851.971 604.993 852.296 603.153C852.296 602.958 852.036 602.915 851.971 603.153C851.581 604.929 851.17 606.704 850.78 608.479C850.585 609.367 850.369 610.254 850.196 611.164L849.936 612.398C849.801 612.816 849.749 613.258 849.784 613.697C849.784 613.848 850.044 613.978 850.152 613.805C850.492 613.053 850.698 612.247 850.758 611.423Z" fill="#263238"/>
<path d="M754.721 651.734L756.692 674.185L763.425 750.023H822.787L831.166 674.185L833.655 651.734H754.721Z" fill="#455A64"/>
<path d="M754.721 651.734L756.692 674.185H831.166L833.655 651.734H754.721Z" fill="#263238"/>
<path d="M748.833 663.815H839.522V645.586H748.833V663.815Z" fill="#455A64"/>
<path d="M663.382 501.444H492.568V784.575H663.382V501.444Z" fill="#FFC727"/>
<path opacity="0.2" d="M663.382 501.444H492.568V784.575H663.382V501.444Z" fill="black"/>
<path d="M521.34 639.286H263.647L204.522 344.507H462.216L521.34 639.286Z" fill="#FFC727"/>
<path opacity="0.2" d="M521.34 639.286H263.647L204.522 344.507H462.216L521.34 639.286Z" fill="black"/>
<path d="M263.647 639.286H173.607L122.081 382.372L204.522 344.507L263.647 639.286Z" fill="#FFC727"/>
<path opacity="0.3" d="M263.647 639.286H173.607L122.081 382.372L204.522 344.507L263.647 639.286Z" fill="black"/>
<path d="M293.242 501.444H79.4319V784.575H293.242V501.444Z" fill="#FFC727"/>
<path opacity="0.2" d="M293.242 501.444H79.4319V784.575H293.242V501.444Z" fill="black"/>
<path opacity="0.2" d="M217.426 501.444H79.4319V784.575H217.426V501.444Z" fill="black"/>
<path opacity="0.2" d="M587.566 784.575H549.874L493.694 501.444H587.566V784.575Z" fill="black"/>
<path d="M587.566 576.481H293.242V784.575H587.566V576.481Z" fill="#FFC727"/>
<path opacity="0.2" d="M587.566 576.481H293.242V784.575H587.566V576.481Z" fill="black"/>
<g opacity="0.1">
<path opacity="0.1" d="M236.001 501.444L264.621 500.946L293.242 500.578H294.086V501.444L294.411 534.589L294.519 567.713C294.519 589.795 294.671 611.899 294.519 633.982C294.368 656.064 294.411 678.168 294.13 700.251C293.848 722.333 293.632 744.416 293.177 766.52C292.701 744.423 292.376 722.333 292.203 700.251C291.943 678.168 291.9 656.064 291.835 633.982C291.77 611.899 291.835 589.795 291.835 567.713L291.965 534.589L292.289 501.444L293.155 502.31L264.578 501.963L236.001 501.444Z" fill="black"/>
<path opacity="0.1" d="M587.566 501.444C588.151 523.613 588.432 545.782 588.67 567.951L588.995 634.48L588.67 700.987L588.259 734.24L587.566 767.602L586.873 734.349L586.462 701.095L586.137 634.588L586.462 568.059C586.7 545.782 586.982 523.613 587.566 501.444Z" fill="black"/>
<path opacity="0.1" d="M587.566 639.286C563.037 639.87 538.509 640.152 513.958 640.368L440.35 640.715L366.742 640.39L329.938 639.979L293.134 639.286L329.938 638.571L366.742 638.182L440.35 637.857L513.958 638.182C538.509 638.42 563.037 638.701 587.566 639.286Z" fill="black"/>
<path opacity="0.1" d="M587.566 576.481C563.037 577.065 538.509 577.347 513.958 577.563L440.35 577.91L366.742 577.563L329.938 577.174L293.134 576.481L329.938 575.766L366.742 575.377L440.35 575.052L513.958 575.377C538.509 575.615 563.037 575.875 587.566 576.481Z" fill="black"/>
</g>
<path d="M131.867 784.575L130.005 807.502L125.653 860.5H105.671L101.319 807.502L99.436 784.575H131.867Z" fill="#455A64"/>
<path d="M99.436 784.575H131.867L130.005 807.502H101.319L99.436 784.575Z" fill="#37474F"/>
<path d="M271.549 784.575L269.666 807.502L265.314 860.5H245.332L240.98 807.502L239.118 784.575H271.549Z" fill="#455A64"/>
<path d="M239.118 784.575H271.549L269.666 807.502H240.98L239.118 784.575Z" fill="#37474F"/>
<path d="M503.198 784.575L501.336 807.502L496.985 860.5H477.002L472.651 807.502L470.767 784.575H503.198Z" fill="#455A64"/>
<path d="M470.767 784.575H503.198L501.336 807.502H472.651L470.767 784.575Z" fill="#37474F"/>
<path d="M642.902 784.575L641.04 807.502L636.689 860.5H616.706L612.355 807.502L610.471 784.575H642.902Z" fill="#455A64"/>
<path d="M642.902 784.575L641.04 807.502H612.355L610.471 784.575H642.902Z" fill="#37474F"/>
<g opacity="0.2">
<path opacity="0.2" d="M237.559 438.531C237.114 438.579 236.702 438.791 236.403 439.124C236.104 439.458 235.939 439.89 235.939 440.338C235.939 440.786 236.104 441.218 236.403 441.552C236.702 441.886 237.114 442.097 237.559 442.146C238.005 442.097 238.416 441.886 238.715 441.552C239.015 441.218 239.18 440.786 239.18 440.338C239.18 439.89 239.015 439.458 238.715 439.124C238.416 438.791 238.005 438.579 237.559 438.531Z" fill="black"/>
<path opacity="0.2" d="M240.764 703.108C240.318 703.157 239.907 703.369 239.608 703.702C239.309 704.036 239.143 704.468 239.143 704.916C239.143 705.364 239.309 705.796 239.608 706.13C239.907 706.464 240.318 706.675 240.764 706.724C241.209 706.675 241.621 706.464 241.92 706.13C242.219 705.796 242.384 705.364 242.384 704.916C242.384 704.468 242.219 704.036 241.92 703.702C241.621 703.369 241.209 703.157 240.764 703.108Z" fill="black"/>
<path opacity="0.2" d="M438.228 657.861C437.783 657.91 437.371 658.122 437.072 658.455C436.773 658.789 436.608 659.221 436.608 659.669C436.608 660.117 436.773 660.549 437.072 660.883C437.371 661.216 437.783 661.428 438.228 661.477C438.674 661.428 439.085 661.216 439.384 660.883C439.683 660.549 439.849 660.117 439.849 659.669C439.849 659.221 439.683 658.789 439.384 658.455C439.085 658.122 438.674 657.91 438.228 657.861Z" fill="black"/>
<path opacity="0.2" d="M364.295 625.235C364.295 625.062 364.122 624.867 364.014 624.694C363.941 624.573 363.837 624.473 363.714 624.404C363.591 624.334 363.452 624.298 363.31 624.298C363.169 624.298 363.03 624.334 362.907 624.404C362.783 624.473 362.68 624.573 362.607 624.694C362.498 624.867 362.412 625.062 362.325 625.235C361.308 627.379 365.313 627.379 364.295 625.235Z" fill="black"/>
<path opacity="0.2" d="M183.696 707.676C183.615 707.49 183.521 707.309 183.414 707.135C183.341 707.014 183.238 706.914 183.114 706.845C182.991 706.775 182.852 706.739 182.711 706.739C182.569 706.739 182.43 706.775 182.307 706.845C182.184 706.914 182.08 707.014 182.007 707.135C181.901 707.309 181.807 707.49 181.726 707.676C180.708 709.82 184.713 709.82 183.696 707.676Z" fill="black"/>
<path opacity="0.2" d="M253.125 449.485C252.758 449.485 252.406 449.631 252.146 449.891C251.886 450.151 251.74 450.503 251.74 450.871C251.74 451.238 251.886 451.591 252.146 451.85C252.406 452.11 252.758 452.256 253.125 452.256C253.493 452.256 253.845 452.11 254.105 451.85C254.365 451.591 254.511 451.238 254.511 450.871C254.511 450.503 254.365 450.151 254.105 449.891C253.845 449.631 253.493 449.485 253.125 449.485Z" fill="black"/>
<path opacity="0.2" d="M115.651 576.524C115.317 576.566 115.009 576.729 114.785 576.982C114.562 577.235 114.439 577.561 114.439 577.899C114.439 578.236 114.562 578.562 114.785 578.815C115.009 579.069 115.317 579.232 115.651 579.274C115.986 579.232 116.294 579.069 116.518 578.815C116.741 578.562 116.864 578.236 116.864 577.899C116.864 577.561 116.741 577.235 116.518 576.982C116.294 576.729 115.986 576.566 115.651 576.524Z" fill="black"/>
<path opacity="0.2" d="M338.186 372.391C337.826 372.036 337.339 371.836 336.833 371.836C336.327 371.836 335.84 372.036 335.48 372.391C335.146 372.729 334.91 373.151 334.795 373.612C334.681 374.073 334.693 374.556 334.83 375.011C334.994 375.408 335.271 375.748 335.628 375.987C335.984 376.226 336.404 376.353 336.833 376.353C337.262 376.353 337.682 376.226 338.038 375.987C338.395 375.748 338.672 375.408 338.836 375.011C338.968 374.556 338.978 374.074 338.864 373.614C338.75 373.154 338.516 372.732 338.186 372.391Z" fill="black"/>
<path opacity="0.2" d="M255.918 692.868C255.558 692.513 255.072 692.313 254.565 692.313C254.059 692.313 253.573 692.513 253.212 692.868C252.88 693.208 252.644 693.628 252.526 694.088C252.408 694.548 252.413 695.031 252.541 695.488C252.701 695.892 252.978 696.238 253.337 696.482C253.696 696.726 254.12 696.857 254.554 696.857C254.989 696.857 255.413 696.726 255.772 696.482C256.131 696.238 256.408 695.892 256.568 695.488C256.7 695.033 256.71 694.551 256.596 694.09C256.482 693.63 256.248 693.209 255.918 692.868Z" fill="black"/>
<path opacity="0.2" d="M578.192 668.231C578.637 668.182 579.049 667.971 579.348 667.637C579.647 667.304 579.812 666.871 579.812 666.423C579.812 665.975 579.647 665.543 579.348 665.209C579.049 664.876 578.637 664.664 578.192 664.615C577.747 664.664 577.335 664.876 577.036 665.209C576.737 665.543 576.572 665.975 576.572 666.423C576.572 666.871 576.737 667.304 577.036 667.637C577.335 667.971 577.747 668.182 578.192 668.231Z" fill="black"/>
<path opacity="0.2" d="M364.469 751.82C364.914 751.771 365.326 751.56 365.625 751.226C365.924 750.892 366.089 750.46 366.089 750.012C366.089 749.564 365.924 749.132 365.625 748.798C365.326 748.465 364.914 748.253 364.469 748.204C364.023 748.253 363.612 748.465 363.313 748.798C363.014 749.132 362.848 749.564 362.848 750.012C362.848 750.46 363.014 750.892 363.313 751.226C363.612 751.56 364.023 751.771 364.469 751.82Z" fill="black"/>
<path opacity="0.2" d="M468.321 426.731C468.766 426.683 469.178 426.471 469.477 426.138C469.776 425.804 469.941 425.372 469.941 424.924C469.941 424.476 469.776 424.043 469.477 423.71C469.178 423.376 468.766 423.165 468.321 423.116C467.876 423.165 467.464 423.376 467.165 423.71C466.866 424.043 466.701 424.476 466.701 424.924C466.701 425.372 466.866 425.804 467.165 426.138C467.464 426.471 467.876 426.683 468.321 426.731Z" fill="black"/>
<path opacity="0.2" d="M636.797 651.15C636.878 651.337 636.972 651.517 637.078 651.691C637.152 651.812 637.255 651.912 637.378 651.981C637.502 652.051 637.641 652.087 637.782 652.087C637.924 652.087 638.063 652.051 638.186 651.981C638.309 651.912 638.412 651.812 638.486 651.691C638.592 651.517 638.686 651.337 638.767 651.15C639.784 649.006 635.758 649.006 636.797 651.15Z" fill="black"/>
<path opacity="0.2" d="M470.876 542.145C471.236 542.5 471.722 542.7 472.229 542.7C472.735 542.7 473.221 542.5 473.582 542.145C473.912 541.804 474.146 541.383 474.26 540.923C474.374 540.462 474.364 539.98 474.231 539.525C474.072 539.121 473.794 538.775 473.435 538.531C473.076 538.287 472.652 538.156 472.218 538.156C471.784 538.156 471.36 538.287 471.001 538.531C470.641 538.775 470.364 539.121 470.205 539.525C470.072 539.982 470.065 540.466 470.183 540.926C470.301 541.387 470.54 541.808 470.876 542.145Z" fill="black"/>
</g>
<path d="M513.677 42.3457H308.418V288.37H513.677V42.3457Z" fill="#EBEBEB"/>
<path d="M502.029 70.8147H320.087V242.668H502.029V70.8147Z" fill="white"/>
<path d="M328.855 61.6136C328.328 61.9432 327.75 62.1845 327.145 62.328C325.689 62.6833 324.153 62.4766 322.843 61.749C321.533 61.0215 320.545 59.8267 320.077 58.4031C319.609 56.9794 319.696 55.4318 320.319 54.0689C320.942 52.706 322.056 51.6282 323.438 51.0506C324.821 50.473 326.371 50.4381 327.778 50.9528C329.186 51.4676 330.347 52.4941 331.031 53.8275C331.715 55.1609 331.87 56.7032 331.467 58.1464C331.064 59.5897 330.131 60.8278 328.855 61.6136Z" fill="white"/>
<path d="M327.535 55.8549C327.535 56.2146 327.428 56.5662 327.228 56.8653C327.028 57.1643 326.744 57.3974 326.412 57.5351C326.08 57.6727 325.714 57.7087 325.361 57.6385C325.008 57.5684 324.684 57.3952 324.43 57.1408C324.176 56.8865 324.003 56.5625 323.932 56.2097C323.862 55.857 323.898 55.4913 324.036 55.159C324.174 54.8267 324.407 54.5427 324.706 54.3429C325.005 54.143 325.356 54.0364 325.716 54.0364C326.198 54.0364 326.661 54.228 327.002 54.569C327.343 54.9101 327.535 55.3726 327.535 55.8549Z" fill="#EBEBEB"/>
<path d="M328.855 60.8562V61.6139C328.328 61.9435 327.75 62.1849 327.145 62.3284C326.377 62.5157 325.58 62.549 324.8 62.4264C324.02 62.3038 323.271 62.0276 322.598 61.6139V60.8562C322.562 60.4235 322.617 59.988 322.757 59.5773C322.898 59.1666 323.123 58.7896 323.417 58.4701C323.711 58.1506 324.068 57.8955 324.466 57.7211C324.863 57.5466 325.293 57.4565 325.727 57.4565C326.161 57.4565 326.59 57.5466 326.988 57.7211C327.386 57.8955 327.743 58.1506 328.037 58.4701C328.331 58.7896 328.555 59.1666 328.696 59.5773C328.837 59.988 328.891 60.4235 328.855 60.8562Z" fill="#EBEBEB"/>
<path d="M498.392 55.855C498.541 55.855 498.684 55.9143 498.79 56.0198C498.896 56.1254 498.955 56.2686 498.955 56.4179C498.955 56.5672 498.896 56.7103 498.79 56.8159C498.684 56.9215 498.541 56.9807 498.392 56.9807C498.243 56.9807 498.1 56.9215 497.994 56.8159C497.888 56.7103 497.829 56.5672 497.829 56.4179C497.829 56.2686 497.888 56.1254 497.994 56.0198C498.1 55.9143 498.243 55.855 498.392 55.855Z" fill="#C7C7C7"/>
<path d="M500.037 55.855C500.187 55.855 500.33 55.9143 500.435 56.0198C500.541 56.1254 500.6 56.2686 500.6 56.4179C500.617 56.4995 500.615 56.5837 500.594 56.6644C500.574 56.7452 500.536 56.8204 500.483 56.8848C500.431 56.9491 500.364 57.001 500.289 57.0365C500.214 57.0721 500.132 57.0906 500.048 57.0906C499.965 57.0906 499.883 57.0721 499.808 57.0365C499.732 57.001 499.666 56.9491 499.613 56.8848C499.56 56.8204 499.522 56.7452 499.502 56.6644C499.482 56.5837 499.48 56.4995 499.496 56.4179C499.496 56.2722 499.552 56.1323 499.653 56.0273C499.754 55.9223 499.892 55.8606 500.037 55.855Z" fill="#C7C7C7"/>
<path d="M501.769 55.855C501.919 55.855 502.062 55.9143 502.167 56.0198C502.273 56.1254 502.332 56.2686 502.332 56.4179C502.332 56.5672 502.273 56.7103 502.167 56.8159C502.062 56.9215 501.919 56.9807 501.769 56.9807C501.62 56.9807 501.477 56.9215 501.371 56.8159C501.266 56.7103 501.206 56.5672 501.206 56.4179C501.206 56.2686 501.266 56.1254 501.371 56.0198C501.477 55.9143 501.62 55.855 501.769 55.855Z" fill="#C7C7C7"/>
<path d="M396.033 55.0754H338.619V57.9981H396.033V55.0754Z" fill="#C7C7C7"/>
<path d="M332.081 256.307C331.24 257.721 330.164 258.98 328.898 260.031C328.216 260.635 327.492 261.192 326.734 261.698H326.171C324.069 260.27 322.273 258.437 320.888 256.307C320.359 255.471 320.048 254.516 319.983 253.529C319.919 252.542 320.104 251.554 320.52 250.657C320.769 250.217 321.131 249.852 321.569 249.601C322.007 249.35 322.505 249.221 323.01 249.228C323.756 249.26 324.476 249.505 325.087 249.935C325.697 250.365 326.171 250.961 326.452 251.653C326.736 250.963 327.21 250.368 327.82 249.939C328.43 249.509 329.149 249.262 329.894 249.228C330.402 249.224 330.901 249.354 331.342 249.604C331.783 249.855 332.15 250.218 332.406 250.657C332.823 251.552 333.011 252.537 332.955 253.523C332.898 254.509 332.598 255.466 332.081 256.307Z" fill="#FFC727"/>
<path d="M369.231 262.412L368.344 262.239L366.547 255.506L362.368 250.96L362.737 250.115H377.458L377.848 250.916L369.231 262.412ZM363.884 251.111L367.37 254.922L367.478 255.116L369.058 260.984L376.462 251.111H363.884Z" fill="#C7C7C7"/>
<path d="M377.722 249.946L366.344 254.996L366.748 255.906L378.126 250.857L377.722 249.946Z" fill="#C7C7C7"/>
<path d="M347.019 261.784C345.777 261.784 344.563 261.416 343.531 260.726C342.498 260.037 341.694 259.056 341.219 257.909C340.743 256.762 340.619 255.499 340.861 254.281C341.104 253.063 341.702 251.945 342.58 251.067C343.458 250.189 344.576 249.591 345.794 249.348C347.012 249.106 348.274 249.23 349.422 249.706C350.569 250.181 351.549 250.986 352.239 252.018C352.929 253.051 353.297 254.264 353.297 255.506C353.297 256.107 353.21 256.705 353.038 257.281L353.968 261.157L353.384 261.763L350.072 260.983C349.139 261.505 348.088 261.781 347.019 261.784ZM347.019 250.224C346.298 250.177 345.576 250.28 344.896 250.524C344.216 250.768 343.594 251.148 343.067 251.642C342.54 252.136 342.121 252.733 341.834 253.396C341.547 254.059 341.399 254.773 341.399 255.495C341.399 256.217 341.547 256.932 341.834 257.595C342.121 258.257 342.54 258.854 343.067 259.348C343.594 259.842 344.216 260.223 344.896 260.467C345.576 260.711 346.298 260.813 347.019 260.767C347.971 260.767 348.905 260.513 349.725 260.031H350.115L352.821 260.659L352.02 257.455V257.195C352.276 256.403 352.341 255.561 352.21 254.739C352.079 253.917 351.755 253.137 351.265 252.464C350.776 251.791 350.134 251.243 349.392 250.865C348.65 250.487 347.83 250.289 346.997 250.289L347.019 250.224Z" fill="#C7C7C7"/>
<path d="M493.456 261.676L492.655 261.287V250.613L493.174 250.115H501.834L502.332 250.613V261.287L501.531 261.676L497.504 258.017L493.456 261.676ZM493.672 251.111V260.291L497.201 257H497.786L501.336 260.291V251.111H493.672Z" fill="#C7C7C7"/>
<path d="M310.107 279.819H220.521V369.404H310.107V279.819Z" fill="#455A64"/>
<path d="M257.001 334.094H245.093V320.303H256.892C256.892 319.242 256.892 318.441 257.022 317.619C257.022 314.003 257.022 310.366 257.282 306.794C258.04 298.892 262.889 293.306 270.726 292.224C275.726 291.844 280.746 291.801 285.751 292.094V304.651C283.933 304.651 282.114 304.651 280.317 304.651C278.701 304.606 277.085 304.714 275.489 304.975C274.444 305.133 273.487 305.653 272.787 306.444C272.086 307.236 271.686 308.249 271.657 309.305C271.506 312.813 271.657 316.341 271.657 320.13H285.361C284.777 324.633 284.279 328.79 283.629 332.99C283.629 333.401 282.525 333.899 281.941 333.921C278.628 333.921 275.316 333.921 271.744 333.921V369.318H257.001V334.094Z" fill="white"/>
<path d="M744.503 366.893H665.417V445.978H744.503V366.893Z" fill="#FFC727"/>
<path d="M734.046 390.361C734.046 382.459 729.067 377.371 721.208 377.263C710.383 377.263 699.559 377.133 688.734 377.263C687.031 377.179 685.329 377.453 683.738 378.068C682.147 378.683 680.703 379.625 679.499 380.833C678.295 382.041 677.358 383.488 676.749 385.08C676.139 386.673 675.871 388.376 675.961 390.079C675.961 395.513 675.961 400.904 675.961 406.36C675.961 411.815 675.961 416.968 675.961 422.272C675.961 430.347 680.983 435.522 688.95 435.608C699.689 435.738 710.427 435.738 721.165 435.608C722.897 435.709 724.631 435.442 726.252 434.825C727.874 434.207 729.347 433.254 730.574 432.027C731.8 430.8 732.754 429.328 733.371 427.706C733.988 426.084 734.255 424.351 734.155 422.618C734.14 411.851 734.104 401.099 734.046 390.361ZM728.85 422.64C728.85 427.641 726.101 430.412 721.078 430.434C710.34 430.434 699.602 430.434 688.864 430.434C687.815 430.551 686.753 430.43 685.757 430.081C684.76 429.732 683.856 429.163 683.109 428.416C682.363 427.67 681.794 426.765 681.445 425.769C681.095 424.773 680.975 423.711 681.092 422.662C681.092 411.837 681.092 401.012 681.092 390.188C680.962 389.124 681.074 388.046 681.419 387.032C681.764 386.018 682.333 385.095 683.084 384.331C683.835 383.567 684.749 382.983 685.757 382.621C686.765 382.26 687.842 382.13 688.907 382.242C699.645 382.242 710.383 382.242 721.122 382.242C722.171 382.145 723.229 382.281 724.22 382.639C725.212 382.998 726.112 383.571 726.856 384.318C727.6 385.064 728.171 385.965 728.527 386.958C728.883 387.95 729.015 389.008 728.915 390.058C728.915 395.492 728.915 400.882 728.915 406.316C728.915 411.75 728.915 417.206 728.85 422.64Z" fill="white"/>
<path d="M704.993 391.162C702.008 391.162 699.089 392.044 696.603 393.697C694.118 395.351 692.175 397.701 691.021 400.454C689.866 403.206 689.55 406.239 690.112 409.171C690.674 412.103 692.09 414.803 694.181 416.933C696.273 419.063 698.947 420.528 701.867 421.145C704.788 421.761 707.826 421.5 710.6 420.396C713.373 419.292 715.759 417.394 717.458 414.939C719.156 412.484 720.092 409.582 720.147 406.598C720.185 404.584 719.82 402.583 719.076 400.712C718.331 398.841 717.22 397.137 715.809 395.699C714.398 394.262 712.715 393.121 710.858 392.342C709.001 391.562 707.007 391.161 704.993 391.162ZM704.798 416.492C702.172 416.42 699.674 415.342 697.82 413.48C695.967 411.619 694.899 409.116 694.839 406.489C694.839 403.802 695.907 401.225 697.807 399.325C699.707 397.425 702.284 396.358 704.971 396.358C707.658 396.358 710.235 397.425 712.135 399.325C714.036 401.225 715.103 403.802 715.103 406.489C715.035 409.173 713.918 411.724 711.992 413.593C710.065 415.463 707.483 416.504 704.798 416.492Z" fill="white"/>
<path d="M724.715 390.902C724.579 391.779 724.113 392.571 723.412 393.117C722.712 393.662 721.83 393.919 720.946 393.836C720.062 393.754 719.243 393.337 718.656 392.671C718.069 392.005 717.759 391.14 717.787 390.253C717.803 389.796 717.912 389.348 718.107 388.935C718.302 388.522 718.579 388.153 718.922 387.852C719.264 387.55 719.665 387.321 720.099 387.179C720.533 387.037 720.992 386.985 721.446 387.027C721.925 387.04 722.395 387.155 722.826 387.363C723.257 387.57 723.64 387.867 723.948 388.233C724.257 388.599 724.485 389.025 724.617 389.485C724.749 389.945 724.783 390.428 724.715 390.902Z" fill="white"/>
<path d="M827.81 130.632H649.137V231.518H827.81V130.632Z" fill="#FFC727"/>
<path d="M679.338 231.519L649.137 262.521V231.519H679.338Z" fill="#FFC727"/>
<path d="M781.047 150.896H674.965V154.014H781.047V150.896Z" fill="white"/>
<path d="M747.664 160.422H674.965V163.539H747.664V160.422Z" fill="white"/>
<path d="M801.982 169.969H674.965V173.087H801.982V169.969Z" fill="white"/>
<path d="M718.653 179.516H674.965V182.634H718.653V179.516Z" fill="white"/>
<path d="M774.617 189.064H674.965V192.181H774.617V189.064Z" fill="white"/>
<path d="M781.047 198.59H674.965V201.707H781.047V198.59Z" fill="white"/>
<path d="M754.44 208.137H674.965V211.254H754.44V208.137Z" fill="white"/>
<path d="M684.361 337.125H863.034V263.3H684.361V337.125Z" fill="#455A64"/>
<path d="M832.833 337.125L863.055 368.127V337.125H832.833Z" fill="#455A64"/>
<path d="M808.109 278.974H711.921V282.178H808.109V278.974Z" fill="white"/>
<path d="M834.37 288.781H711.921V291.985H834.37V288.781Z" fill="white"/>
<path d="M800.921 298.61H711.921V301.814H800.921V298.61Z" fill="white"/>
<path d="M823.848 308.439H711.921V311.643H823.848V308.439Z" fill="white"/>
<path d="M785.312 318.246H711.921V321.45H785.312V318.246Z" fill="white"/>
<path d="M628.029 146.458H527.64V221.516H628.029V146.458Z" fill="#455A64"/>
<path d="M558.686 221.516H596.984L577.824 242.192L558.686 221.516Z" fill="#455A64"/>
<path d="M588.107 171.809C588.107 173.844 587.504 175.833 586.373 177.525C585.242 179.216 583.634 180.534 581.754 181.312C579.874 182.09 577.805 182.292 575.81 181.893C573.814 181.495 571.982 180.513 570.545 179.073C569.107 177.633 568.13 175.798 567.735 173.802C567.341 171.806 567.548 169.737 568.329 167.859C569.111 165.98 570.432 164.376 572.126 163.248C573.82 162.121 575.811 161.521 577.845 161.526C579.195 161.526 580.531 161.792 581.778 162.309C583.024 162.826 584.156 163.584 585.109 164.539C586.063 165.494 586.818 166.628 587.332 167.875C587.847 169.123 588.11 170.46 588.107 171.809Z" fill="white"/>
<path d="M599.516 205.063H556.218C556.218 205.063 557.408 194.736 559.508 191.662C561.608 188.588 567.216 185.167 577.889 185.167C588.562 185.167 594.169 188.631 596.291 191.662C598.412 194.693 599.516 205.063 599.516 205.063Z" fill="white"/>
<path d="M407.075 117.318H338.403V168.67H407.075V117.318Z" fill="#FFC727"/>
<path d="M359.641 168.67H385.815L372.739 182.829L359.641 168.67Z" fill="#FFC727"/>
<path d="M386.075 148.688C382.507 153.45 377.959 157.392 372.739 160.248C367.518 157.392 362.971 153.45 359.402 148.688C354.705 142.474 354.943 132.754 361.567 130.654C368.993 128.316 372.652 139.487 372.652 139.487C372.652 139.487 376.354 128.251 383.715 130.654C390.513 132.819 390.751 142.474 386.075 148.688Z" fill="white"/>
<path d="M498.392 372.023L478.15 372.24C474.383 365.139 470.01 352.604 472.196 334.981C472.564 332.059 465.442 348.75 467.866 372.348C446.498 372.565 417.423 372.868 392.093 372.889C391.747 362.974 390.968 353.795 390.968 353.795C390.099 360.284 388.65 366.681 386.638 372.911C383.174 372.911 379.775 372.911 376.506 372.911C377.458 357.54 375.185 330.695 375.185 330.695C373.133 345.367 368.679 359.6 362.001 372.824C345.893 372.673 335.285 372.262 336.021 371.504C360.788 343.879 343.144 327.534 350.396 303.005C359.056 273.627 384.603 269.275 384.148 247.106C383.823 229.05 381.983 196.316 404.888 189.627C411.13 183.676 418.987 179.697 427.477 178.188C435.968 176.678 444.715 177.705 452.625 181.14C488.455 195.407 473.452 250.83 475.768 262.174C479.037 278.368 486.593 284.17 492.157 302.68C497.721 321.191 489.104 333.661 487.979 346.304C486.853 358.947 502.484 372.045 498.392 372.023Z" fill="#263238"/>
<path d="M335.285 367.52C338.681 362.689 341.385 357.405 343.317 351.825C345.244 346.369 344.508 340.718 343.49 334.895C342.268 328.993 341.358 323.031 340.762 317.034C340.192 310.784 340.876 304.483 342.776 298.502C344.836 292.535 348.226 287.116 352.691 282.655C357.036 278.424 361.721 274.558 366.698 271.094C371.515 267.774 375.881 263.844 379.688 259.403C383.332 254.764 385.638 249.216 386.356 243.361C386.529 249.498 384.822 255.541 381.463 260.68C377.962 265.679 373.738 270.13 368.928 273.887C364.346 277.525 360.007 281.459 355.939 285.664C352.048 289.774 349.093 294.678 347.279 300.039C345.61 305.465 344.964 311.155 345.374 316.817C345.634 322.576 346.629 328.4 347.322 334.397C347.715 337.447 347.867 340.524 347.777 343.598C347.61 346.741 346.877 349.829 345.612 352.712C343.083 358.226 339.585 363.241 335.285 367.52Z" fill="#263238"/>
<path d="M472.651 202.097C475.07 209.097 476.619 216.368 477.262 223.747C478.085 231.064 478.539 238.425 478.907 245.742L479.557 256.567C479.716 260.093 480.216 263.595 481.051 267.024C483.094 273.806 486.343 280.164 490.642 285.794C492.781 288.891 494.705 292.132 496.4 295.493C498.084 298.946 499.377 302.577 500.254 306.318C501.017 310.035 501.495 313.806 501.683 317.597C501.896 321.402 501.642 325.22 500.925 328.963C500.211 332.73 499.106 336.259 498.175 339.788C497.222 343.242 496.606 346.78 496.335 350.353C496.182 353.938 496.888 357.509 498.394 360.766C499.9 364.024 502.164 366.874 504.995 369.079C501.776 367.093 499.102 364.338 497.213 361.061C495.323 357.785 494.278 354.09 494.17 350.309C494.157 346.551 494.527 342.8 495.274 339.117C495.946 335.436 496.92 331.929 497.439 328.443C498.247 321.409 497.771 314.286 496.032 307.422C495.157 304.044 493.938 300.766 492.395 297.636C490.748 294.469 488.889 291.417 486.831 288.5C484.839 285.469 482.739 282.33 480.964 278.953C479.134 275.536 477.751 271.898 476.851 268.128C476.05 264.412 475.615 260.627 475.552 256.827C475.379 253.125 475.379 249.445 475.357 245.786C475.357 238.447 475.357 231.129 475.097 223.855C475.032 216.537 474.213 209.246 472.651 202.097Z" fill="#263238"/>
<path d="M535.478 898.3C529.178 897.456 370.942 818.522 366.98 811.875C366.482 811.118 373.302 796.721 382.979 776.998C390.643 761.41 401.013 742.034 411.123 723.459L511.382 772.3L491.399 810.165C491.399 810.165 508.979 831.468 523.289 849.524C532.079 860.63 539.634 870.545 540.998 873.511C544.657 881.327 541.691 899.188 535.478 898.3Z" fill="#EBEBEB"/>
<path d="M537.361 902.348C530.866 901.352 371.526 819.452 367.413 812.503C365.508 809.277 381.507 774.66 399.173 738.527L502.874 791.416L492.807 809.862C492.807 809.862 539.764 868.489 543.445 876.607C547.125 884.726 543.856 903.344 537.361 902.348Z" fill="#FFC727"/>
<path d="M538.27 894.793C511.901 880.417 404.174 824.887 377.025 812.676C376.787 812.676 376.722 812.676 377.025 812.849C402.853 827.679 511.014 882.323 538.119 895.226C538.617 895.507 538.833 895.096 538.27 894.793Z" fill="#263238"/>
<path d="M499.604 805.944C490.1 798.583 476.418 793.582 464.554 796.959C464.078 797.089 464.272 797.739 464.684 797.804C476.392 799.721 487.86 802.893 498.89 807.264C499.061 807.329 499.25 807.329 499.422 807.265C499.594 807.201 499.736 807.077 499.823 806.916C499.911 806.754 499.936 806.567 499.896 806.389C499.856 806.21 499.752 806.052 499.604 805.944Z" fill="#263238"/>
<path d="M504.887 814.408C495.383 807.048 481.7 802.068 469.836 805.424C469.36 805.554 469.555 806.203 469.945 806.268C481.661 808.183 493.136 811.355 504.172 815.729C504.344 815.794 504.533 815.794 504.704 815.73C504.876 815.666 505.019 815.542 505.106 815.38C505.193 815.219 505.219 815.032 505.179 814.853C505.138 814.675 505.035 814.517 504.887 814.408Z" fill="#263238"/>
<path d="M510.083 822.895C500.579 815.534 486.896 810.533 475.011 813.889C474.556 814.019 474.751 814.668 475.141 814.733C486.852 816.668 498.326 819.84 509.368 824.194C509.535 824.245 509.713 824.236 509.874 824.171C510.035 824.105 510.168 823.986 510.252 823.834C510.335 823.682 510.364 823.506 510.334 823.335C510.303 823.164 510.214 823.009 510.083 822.895Z" fill="#263238"/>
<path d="M515.322 831.36C505.818 823.999 492.135 818.998 480.25 822.354C479.795 822.484 479.99 823.155 480.38 823.22C492.086 825.134 503.554 828.299 514.586 832.659C514.754 832.719 514.938 832.718 515.105 832.656C515.272 832.593 515.412 832.474 515.5 832.319C515.588 832.164 515.618 831.982 515.586 831.807C515.553 831.632 515.46 831.473 515.322 831.36Z" fill="#263238"/>
<path d="M531.516 791.611C530.303 783.818 521.297 782.41 515.019 783.839C504.285 786.504 494.439 791.938 486.463 799.6C486.427 799.63 486.398 799.669 486.377 799.712C486.357 799.755 486.347 799.801 486.347 799.849C486.347 799.896 486.357 799.943 486.377 799.986C486.398 800.029 486.427 800.067 486.463 800.098C486.349 800.299 486.284 800.524 486.274 800.755C486.263 800.986 486.307 801.216 486.402 801.427C486.497 801.638 486.64 801.823 486.82 801.969C487 802.114 487.211 802.215 487.437 802.263C497.764 803.519 508.654 806.138 519.067 804.168C525.194 803.021 532.663 799.015 531.516 791.611ZM503.545 800.964C498.435 800.466 493.391 799.73 488.282 799.427C493.759 796.201 499.395 793.253 505.168 790.594C507.981 789.348 510.874 788.293 513.828 787.433C518.418 786.199 533.919 786.502 526.125 797.089C521.838 802.912 509.606 801.548 503.545 800.964Z" fill="#263238"/>
<path d="M461.155 783.125C467.931 791.265 477.977 796.115 486.723 801.83C486.929 801.939 487.159 801.998 487.392 802.003C487.625 802.007 487.857 801.957 488.067 801.856C488.278 801.755 488.462 801.606 488.604 801.421C488.747 801.236 488.844 801.02 488.888 800.791C489.083 800.791 489.278 800.683 489.234 800.423C487.981 789.446 483.86 778.992 477.284 770.114C473.365 765.004 465.528 760.328 459.618 765.567C453.708 770.806 457.258 778.427 461.155 783.125ZM460.267 773.188C461.025 760.09 473.149 769.724 475.898 773.599C477.62 776.152 479.175 778.813 480.553 781.566C483.497 787.238 485.576 793.214 487.935 799.124C483.8 796.115 479.449 793.452 475.205 790.594C470.248 787.087 459.856 780.419 460.267 773.188Z" fill="#263238"/>
<path d="M515.235 792.672L400.493 734.652C400.493 734.652 484.19 578.148 481.982 575.269C474.253 565.31 381.03 569.835 340.762 529.805C298.135 487.415 331.561 421.384 331.561 421.384H442.948C442.948 421.384 441.064 457.322 445.849 461.284C449.01 463.925 612.766 479.708 619.174 522.92C630.172 597.762 515.235 792.672 515.235 792.672Z" fill="#37474F"/>
<path d="M519.76 774.747C506.489 766.715 492.893 759.354 479.254 751.993C465.615 744.632 451.867 737.466 437.99 730.582C430.153 726.706 422.164 723.199 414.327 719.346C414.279 719.327 414.227 719.327 414.178 719.343C414.13 719.36 414.089 719.394 414.063 719.438C414.037 719.482 414.028 719.534 414.037 719.585C414.045 719.635 414.072 719.681 414.111 719.714C420.995 723.416 427.663 727.464 434.526 731.188C441.389 734.912 448.035 738.505 454.833 742.013C468.516 749.265 482.285 756.366 495.967 763.554C503.696 767.602 511.533 771.413 519.414 775.18C519.47 775.195 519.53 775.193 519.586 775.174C519.642 775.156 519.691 775.122 519.728 775.076C519.765 775.03 519.787 774.974 519.793 774.916C519.799 774.858 519.787 774.799 519.76 774.747Z" fill="#263238"/>
<path d="M525.735 556.953C523.008 551.303 515.733 550.458 510.299 549.094L465.918 538.118C439.679 531.623 412.639 525.497 389.127 511.598C377.891 504.951 366.98 496.551 361.373 484.449C355.766 472.347 355.787 459.401 355.679 446.606C355.679 443.445 355.852 440.284 356.069 437.123C356.069 436.842 355.657 436.864 355.636 437.123C354.813 449.723 353.471 462.323 356.35 474.793C357.649 480.841 360.04 486.6 363.408 491.788C366.931 496.934 371.259 501.481 376.224 505.254C397.008 521.556 423.095 529.372 448.317 535.823C462.562 539.46 476.873 542.924 491.161 546.41L513.244 551.822C516.478 552.293 519.551 553.533 522.206 555.438C523.248 556.472 524.036 557.734 524.509 559.123C524.982 560.513 525.128 561.993 524.934 563.448C524.646 566.461 523.916 569.415 522.769 572.216C521.449 575.68 520.042 579.101 518.656 582.543C515.928 589.254 513.135 595.929 510.278 602.569C504.504 615.948 498.515 629.233 492.309 642.425C479.925 668.708 466.676 694.6 453.188 720.363C451.499 723.567 449.876 726.858 448.23 730.019C448.23 730.214 448.425 730.365 448.533 730.17C462.974 704.732 476.483 678.71 489.343 652.427C502.202 626.145 514.239 599.841 524.566 572.692C526.363 567.756 528.117 561.933 525.735 556.953Z" fill="#263238"/>
<path d="M785.55 904.188C779.554 906.18 602.742 904.188 596.226 900.053C595.468 899.577 595.403 861.691 595.403 861.691C591.961 843.895 588.475 822.115 585.423 801.527H702.33L707.439 844.133C707.439 844.133 732.574 855.607 753.314 865.631C766.088 871.801 777.129 877.408 779.748 879.465C786.33 884.899 791.591 902.24 785.55 904.188Z" fill="#EBEBEB"/>
<path d="M788.018 905.726C781.74 907.782 602.613 906.7 595.815 902.348C593.65 901.006 587.783 835.235 587.609 822.007L707.244 822.375L706.595 843.397C706.595 843.397 774.985 874.464 781.935 880.049C788.884 885.635 794.297 903.669 788.018 905.726Z" fill="#FFC727"/>
<path d="M785.485 898.538C755.458 897.629 634.286 896.763 604.539 898.148C604.301 898.148 604.301 898.321 604.539 898.321C634.286 899.88 755.458 899.772 785.485 899.036C786.113 899.014 786.135 898.56 785.485 898.538Z" fill="#263238"/>
<path d="M710.86 836.751C699.061 834.456 684.599 836.188 675.528 844.566C675.16 844.891 675.636 845.367 676.004 845.259C687.318 841.684 698.981 839.325 710.795 838.223C710.99 838.231 711.181 838.162 711.325 838.03C711.469 837.898 711.555 837.714 711.563 837.519C711.572 837.324 711.503 837.133 711.371 836.989C711.239 836.845 711.055 836.759 710.86 836.751V836.751Z" fill="#263238"/>
<path d="M719.368 841.925C707.547 839.651 693.085 841.383 684.014 849.74C683.668 850.065 684.123 850.563 684.512 850.454C695.794 846.861 707.429 844.487 719.216 843.375C719.379 843.347 719.528 843.267 719.641 843.146C719.753 843.025 719.824 842.871 719.841 842.707C719.858 842.543 719.821 842.378 719.736 842.236C719.65 842.095 719.521 841.986 719.368 841.925Z" fill="#263238"/>
<path d="M727.876 847.121C716.077 844.847 701.615 846.579 692.544 854.936C692.176 855.261 692.653 855.759 693.042 855.651C704.367 852.061 716.046 849.702 727.876 848.614C728.052 848.584 728.212 848.493 728.328 848.356C728.443 848.219 728.506 848.046 728.506 847.868C728.506 847.689 728.443 847.516 728.328 847.379C728.212 847.242 728.052 847.151 727.876 847.121Z" fill="#263238"/>
<path d="M736.363 852.317C724.564 850.043 710.102 851.775 701.009 860.132C700.663 860.457 701.118 860.955 701.507 860.825C712.822 857.257 724.485 854.906 736.298 853.811C736.476 853.789 736.641 853.705 736.763 853.573C736.885 853.441 736.956 853.271 736.964 853.091C736.972 852.912 736.916 852.735 736.806 852.594C736.695 852.452 736.539 852.354 736.363 852.317Z" fill="#263238"/>
<path d="M732.856 809.537C728.244 803.042 719.584 805.943 714.627 810.057C706.245 817.281 699.913 826.584 696.268 837.032C696.25 837.078 696.244 837.127 696.25 837.176C696.256 837.224 696.273 837.271 696.301 837.311C696.329 837.352 696.366 837.385 696.409 837.408C696.452 837.431 696.5 837.443 696.549 837.443C696.534 837.675 696.574 837.907 696.667 838.12C696.76 838.333 696.902 838.52 697.082 838.667C697.263 838.813 697.476 838.914 697.703 838.961C697.931 839.008 698.166 839 698.39 838.937C708.154 835.386 719.065 832.789 727.443 826.337C732.358 822.57 737.207 815.621 732.856 809.537ZM712.115 830.515C707.331 832.377 702.503 834.001 697.805 836.036C701.231 830.682 704.931 825.508 708.89 820.535C710.831 818.147 712.936 815.897 715.19 813.802C718.718 810.619 732.682 803.908 730.517 816.855C729.327 823.999 717.788 828.22 712.115 830.515Z" fill="#263238"/>
<path d="M666.24 833.763C675.961 837.963 687.154 837.833 697.502 838.894C697.734 838.897 697.964 838.846 698.172 838.744C698.381 838.641 698.562 838.491 698.702 838.305C698.841 838.12 698.934 837.903 698.974 837.675C699.014 837.446 698.999 837.211 698.931 836.989C698.98 836.977 699.025 836.954 699.063 836.92C699.1 836.887 699.129 836.845 699.146 836.798C699.163 836.75 699.168 836.699 699.161 836.65C699.154 836.6 699.134 836.553 699.104 836.513C693.015 827.285 684.609 819.82 674.727 814.863C668.903 812.07 659.832 811.443 656.931 818.803C654.268 825.731 660.568 831.295 666.24 833.763ZM660.958 825.298C655.719 813.261 670.895 816.379 675.095 818.608C677.789 820.09 680.378 821.753 682.845 823.588C687.886 827.461 692.727 831.587 697.35 835.95C692.306 835.105 687.219 834.716 682.196 834.066C676.091 833.287 663.859 831.945 660.958 825.298Z" fill="#263238"/>
<path d="M710.427 820.383L576.979 819.409C576.979 819.409 549.615 611.574 538.79 600.057C533.313 594.19 357.173 593.432 313.982 552.255C270.791 511.078 313.982 421.406 313.982 421.406H427.642C427.642 421.406 430.456 456.478 421.753 477.954C421.753 477.954 580.66 480.509 623.98 514.563C682.088 560.222 710.427 820.383 710.427 820.383Z" fill="#37474F"/>
<path d="M700.078 798.366C684.599 797.24 669.141 796.829 653.64 796.461C638.139 796.093 622.638 795.942 607.159 796.115C598.499 796.115 589.688 796.699 580.963 796.829C580.92 796.843 580.882 796.871 580.855 796.908C580.829 796.945 580.814 796.989 580.814 797.035C580.814 797.08 580.829 797.125 580.855 797.162C580.882 797.199 580.92 797.226 580.963 797.24C588.779 797.414 596.551 797.998 604.366 798.215C612.182 798.431 619.716 798.604 627.401 798.734C642.902 798.994 658.403 799.059 673.882 799.232C682.542 799.34 691.332 799.232 700.078 798.951C700.142 798.933 700.199 798.895 700.239 798.842C700.279 798.789 700.301 798.725 700.301 798.659C700.301 798.592 700.279 798.528 700.239 798.475C700.199 798.422 700.142 798.384 700.078 798.366Z" fill="#263238"/>
<path d="M371.851 437.989C371.692 438.514 371.482 439.022 371.223 439.505C371.223 439.613 371.223 439.7 371.223 439.765C369.729 444.419 369.058 449.355 367.673 454.032C366.29 459.012 363.232 463.363 359.013 466.35C350.202 472.455 339.528 475.248 329.353 477.781C329.278 477.781 329.207 477.811 329.154 477.864C329.101 477.916 329.072 477.988 329.072 478.063C329.072 478.137 329.101 478.209 329.154 478.262C329.207 478.314 329.278 478.344 329.353 478.344C335.29 478.384 341.195 477.478 346.846 475.659C352.148 474.221 357.144 471.83 361.589 468.602C365.844 465.466 368.893 460.964 370.227 455.85C370.868 453.152 371.36 450.42 371.699 447.667C372.294 444.502 372.641 441.295 372.739 438.076C372.728 437.971 372.682 437.873 372.607 437.799C372.533 437.725 372.435 437.679 372.33 437.668C372.226 437.658 372.121 437.685 372.033 437.743C371.946 437.802 371.881 437.889 371.851 437.989Z" fill="#263238"/>
<path d="M442.536 470.139C435.515 472.161 428.678 474.775 422.099 477.954L421.775 478.084C421.929 477.688 422.031 477.273 422.078 476.85C422.078 476.352 422.251 475.876 422.316 475.378C422.381 474.88 422.446 474.339 422.489 473.819C422.532 473.3 422.489 473.3 422.489 473.04C423.321 472.996 424.135 472.781 424.88 472.408C425.624 472.036 426.285 471.514 426.819 470.875C428.19 468.934 429.12 466.717 429.547 464.38C430.305 461.479 431.019 458.556 431.712 455.72C432.426 452.451 433.032 449.225 433.552 445.87C434.164 442.64 434.54 439.369 434.678 436.084C434.671 435.973 434.625 435.868 434.548 435.787C434.471 435.706 434.368 435.654 434.257 435.642C434.147 435.629 434.035 435.655 433.942 435.716C433.848 435.777 433.779 435.869 433.747 435.976C432.989 438.985 432.643 442.103 432.08 445.155C431.517 448.208 430.846 451.26 430.153 454.291C429.46 457.322 428.702 460.353 427.858 463.362C427.122 466.025 426.364 469.857 423.268 470.788C416.774 472.607 419.761 458.275 420.043 455.482C420.692 448.987 421.082 442.492 422.208 435.998C422.208 435.94 422.185 435.885 422.144 435.845C422.104 435.804 422.049 435.781 421.991 435.781C421.934 435.781 421.879 435.804 421.838 435.845C421.797 435.885 421.775 435.94 421.775 435.998C420.389 441.886 418.809 447.688 417.748 453.685C417.25 456.608 416.882 459.574 416.557 462.518C416.021 465.062 416.223 467.706 417.142 470.139C417.538 470.963 418.129 471.678 418.865 472.222C419.601 472.765 420.459 473.12 421.363 473.256L421.147 473.927C421.017 474.404 420.844 474.88 420.735 475.356C420.627 475.833 420.497 476.309 420.389 476.807C420.176 477.365 420.109 477.969 420.194 478.56C420.244 478.723 420.352 478.862 420.497 478.95C417.77 480.141 415.042 481.31 412.357 482.566C408.97 483.898 405.692 485.491 402.55 487.328C402.182 487.502 402.55 488 402.831 487.935C406.341 486.952 409.771 485.708 413.093 484.211C416.514 482.912 419.891 481.526 423.247 480.119C429.986 477.659 436.504 474.631 442.731 471.07C442.855 471.044 442.963 470.97 443.032 470.864C443.101 470.759 443.125 470.63 443.099 470.507C443.074 470.383 443 470.275 442.894 470.206C442.789 470.137 442.66 470.113 442.536 470.139Z" fill="#263238"/>
<path d="M311.579 474.793C312.79 463.579 315.11 452.512 318.507 441.756C319.373 438.985 320.304 436.214 321.278 433.465C321.295 433.407 321.334 433.359 321.387 433.331C321.44 433.302 321.502 433.296 321.559 433.313C321.617 433.33 321.665 433.37 321.693 433.422C321.722 433.475 321.728 433.537 321.711 433.594C318.132 444.406 315.587 455.533 314.112 466.826C312.4 477.754 312.058 488.852 313.094 499.863C314.137 509.903 317.745 519.506 323.573 527.748C329.095 535.162 335.998 541.44 343.902 546.237C362.304 557.754 384.17 561.954 405.213 566.046C428.306 570.534 451.528 574.583 474.881 578.191C501.077 582.283 552.472 585.119 554.746 589.73C559.075 598.65 566.025 640.195 570.485 665.633C574.944 691.071 586.029 777.777 586.873 792.348C586.873 793.3 585.488 793.214 585.401 792.348C582.955 766.606 578.517 734.111 574.923 708.478C571.329 682.845 567.021 657.861 561.933 632.704C559.097 618.762 553.771 594.082 552.061 591.765C549.441 588.172 505.385 585.011 481.83 581.374C458.276 577.737 434.201 573.601 410.539 569.077C388.889 564.942 366.352 561.218 346.889 550.372C330.089 541.019 316.407 526.319 312.25 507.289C310.296 496.562 310.069 485.592 311.579 474.793Z" fill="#263238"/>
<path d="M474.729 592.848C479.341 592.848 532.598 597.676 541.691 599.495C542.34 599.624 558.512 689.794 560.071 706.399C560.288 708.564 559.443 710.621 558.794 706.399C557.56 698.238 538.92 601.833 538.898 601.789C529.784 600.75 479.124 594.277 474.643 593.476C474.253 593.411 474.383 592.87 474.729 592.848Z" fill="#263238"/>
<path d="M426.191 477.716C457.435 478.483 488.613 480.955 519.587 485.12C533.399 486.874 547.212 488.909 560.916 491.42C573.178 493.482 585.239 496.604 596.962 500.751C603.363 503.066 609.537 505.965 615.407 509.411C621.196 513.011 626.594 517.205 631.514 521.924C631.731 522.119 631.406 522.422 631.19 522.227C621.924 514.477 610.32 508.934 599.084 504.67C587.609 500.447 575.786 497.238 563.752 495.079C550.372 492.524 536.841 490.641 523.332 488.801C508.726 486.78 494.091 485.012 479.427 483.496C462.887 481.765 442.623 480.357 426.169 478.69C426.058 478.664 425.959 478.601 425.889 478.51C425.819 478.42 425.783 478.309 425.785 478.194C425.788 478.08 425.829 477.97 425.903 477.883C425.977 477.796 426.079 477.737 426.191 477.716Z" fill="#263238"/>
<path d="M399.238 308.439C412.032 351.738 443.078 406.295 466.113 404.866C487.134 403.545 533.616 378.562 552.71 365.42C571.805 352.279 526.731 305.3 515.344 312.856C500.081 322.901 473.863 344.767 469.382 343.576C463.796 342.061 457.929 333.552 424.697 295.081C411.058 279.342 393.782 290.015 399.238 308.439Z" fill="#FFC3BA"/>
<path d="M535.932 293.739C545.241 290.513 555.633 286.097 565.96 286.357C576.287 286.616 584.708 300.299 584.687 304.196C584.665 308.093 580.595 332.34 570.29 332.34C559.985 332.34 566.328 313.635 565.96 311.492C565.592 309.348 565.224 306.62 563.275 306.794C561.327 306.967 527.164 322.879 527.164 322.879L535.932 293.739Z" fill="#FFC3BA"/>
<path d="M536.582 295.168C537.166 295.168 564.856 284.473 575.161 284.733C585.466 284.993 593.931 298.675 593.909 302.572C593.888 306.469 589.818 330.716 579.513 330.716C569.207 330.716 575.551 312.011 575.183 309.868C574.815 307.725 574.447 304.997 572.498 305.17C570.55 305.343 536.387 321.256 536.387 321.256L536.582 295.168Z" fill="#FFC3BA"/>
<path d="M576.027 329.353C574.934 327.503 574.351 325.396 574.338 323.247C574.155 321.073 574.301 318.883 574.771 316.753C575.355 314.901 575.783 313.004 576.049 311.08C576.057 309.174 575.58 307.296 574.663 305.625C573.884 304.174 572.368 304.65 571.048 305.105C569.126 305.828 567.246 306.659 565.419 307.595L559.53 310.561C557.466 311.518 555.463 312.603 553.533 313.808C553.382 313.916 553.533 314.155 553.533 314.09C555.328 313.416 557.085 312.642 558.794 311.773C560.742 310.886 562.713 309.976 564.704 309.132C566.696 308.288 568.363 307.4 570.225 306.621C570.896 306.361 572.217 305.668 572.953 305.841C573.689 306.014 574.122 308.006 574.295 308.591C574.701 310.446 574.558 312.379 573.884 314.155C573.331 315.997 572.961 317.89 572.78 319.805C572.584 321.604 572.716 323.423 573.169 325.174C573.792 326.748 574.606 328.238 575.594 329.612C575.832 329.742 576.157 329.526 576.027 329.353Z" fill="#263238"/>
<path d="M503.675 321.97C503.675 321.97 532.447 296.142 538.422 291.011C550.437 280.728 600.837 260.572 607.83 259.879C614.823 259.187 617.269 273.562 583.063 288.24C565.029 295.969 561.738 306.231 562.041 311.946C562.345 317.662 567.714 328.313 577.326 328.14C586.938 327.967 593.238 313.981 602.071 312.487C610.904 310.994 604.951 327.123 598.672 336.41C592.073 345.385 583.065 352.306 572.693 356.371C564.358 359.423 538.595 370.313 538.595 370.313L503.675 321.97Z" fill="#FFC3BA"/>
<path d="M589.32 321.472C585.683 324.243 581.569 327.837 576.806 327.967C572.043 328.097 568.709 324.893 566.458 320.866C563.971 316.919 563.109 312.163 564.055 307.595C565.178 303.451 567.488 299.726 570.701 296.878C574.59 293.379 578.965 290.462 583.691 288.219C583.907 288.219 583.691 287.829 583.496 287.915C579.166 289.864 565.31 295.384 562.474 307.4C561.557 312.081 562.48 316.935 565.051 320.952C567.216 324.784 570.203 328.486 574.858 328.898C580.53 329.396 585.444 324.828 589.536 321.407C589.731 321.45 589.471 321.32 589.32 321.472Z" fill="#263238"/>
<path d="M397.332 317.64C401.239 335.102 407.511 351.949 415.973 367.715C417.748 370.855 418.83 372.457 418.83 372.457L458.535 338.034L463.991 333.293C463.991 333.293 463.19 332.167 460.506 329.093C456.717 324.763 449.118 316.558 434.743 302.377C426.213 293.934 419.004 288.565 413.201 285.816C396.77 278.087 391.119 291.315 397.332 317.64Z" fill="#FFC727"/>
<path d="M411.794 371.418L422.121 386.053L466.437 346.91L476.374 338.121C475.162 337.082 463.385 326.582 463.385 326.582L460.549 329.05L454.963 333.899L415.994 367.672L411.794 371.418Z" fill="#FFC727"/>
<path opacity="0.1" d="M411.794 371.418L422.121 386.053L466.437 346.91L476.374 338.121C475.162 337.082 463.385 326.582 463.385 326.582L460.549 329.05L454.963 333.899L415.994 367.672L411.794 371.418Z" fill="black"/>
<path d="M397.332 317.64C401.239 335.102 407.51 351.949 415.973 367.715L411.794 371.417L422.121 386.052L466.437 346.91L458.644 337.99L455.028 333.899C438.921 315.453 422.9 297.095 413.31 285.772C396.769 278.086 391.119 291.314 397.332 317.64Z" fill="#263238"/>
<path d="M451.889 451.174C451.889 451.174 398.696 459.531 300.343 443.38C300.343 443.38 353.947 323.031 387.655 292.115C403.005 278.065 417.488 283.239 428.486 293.891C431.214 296.554 457.799 343.468 459.64 359.77C461.285 374.188 448.512 389.062 448.512 389.062L451.889 451.174Z" fill="#FFC727"/>
<path d="M405.299 286.4C405.299 289.149 422.316 312.509 434.266 315.085C436.15 315.475 431.041 302.42 431.041 302.42C432.989 297.116 434.44 291.596 434.44 291.596L435.197 290.145L445.784 269.665L424.589 246.478L421.472 243.339C421.472 243.339 418.917 249.12 415.821 256.329L415.388 257.346C415.215 257.758 415.02 258.147 414.868 258.515C414.392 259.598 413.916 260.68 413.461 261.806C413.007 262.932 412.768 263.473 412.422 264.361C412.076 265.248 411.729 266.114 411.361 267.002C408.91 273.325 406.885 279.806 405.299 286.4Z" fill="#FFC3BA"/>
<path d="M415.821 256.329C416.401 263.018 418.428 269.502 421.762 275.33C425.097 281.158 429.659 286.191 435.132 290.08L445.784 269.665L424.589 246.478L421.472 243.339C421.472 243.339 418.917 249.076 415.821 256.329Z" fill="#263238"/>
<path d="M482.285 241.521C478.994 281.854 454.444 284.43 445.762 283.715C437.86 283.066 411.123 279.818 410.17 239.356C409.218 198.893 429.07 187.678 447.213 188.22C465.355 188.761 485.576 201.058 482.285 241.521Z" fill="#FFC3BA"/>
<path d="M412.898 242.625C417.228 242.625 429.309 230.977 430.629 209.761C430.629 209.761 428.14 228.747 426.559 231.41C424.979 234.073 433.27 224.915 434.569 207.791C439.79 211.898 445.571 215.237 451.737 217.706C459.704 220.326 464.727 220.477 465.268 219.871C465.81 219.265 454.141 215.043 451.088 211.211C451.088 211.211 472.153 222.188 482.025 223.4C483.173 223.552 483.865 203.136 469.035 192.441C454.206 181.746 431.149 188.328 424.329 194.325C424.329 194.325 419.61 196.187 410.777 207.141C401.944 218.096 408.157 242.69 412.898 242.625Z" fill="#263238"/>
<path opacity="0.4" d="M453.058 239.031C447.148 237.277 444.074 249.185 449.529 250.83C454.985 252.475 457.994 240.503 453.058 239.031Z" fill="#263238"/>
<path opacity="0.4" d="M473.127 240.2C467.931 239.789 467.325 252.086 472.153 252.475C476.981 252.865 477.5 240.568 473.127 240.2Z" fill="#263238"/>
<path d="M476.981 233.77C476.175 233.311 475.344 232.899 474.491 232.536C473.674 231.989 472.701 231.723 471.72 231.778C471.417 231.863 471.149 232.044 470.958 232.294C470.767 232.544 470.662 232.849 470.659 233.164C470.745 233.778 470.99 234.359 471.37 234.849C471.749 235.339 472.251 235.721 472.824 235.957C473.947 236.592 475.265 236.792 476.526 236.52C476.814 236.449 477.076 236.295 477.277 236.078C477.479 235.86 477.612 235.588 477.661 235.295C477.709 235.002 477.671 234.701 477.55 234.43C477.429 234.159 477.231 233.93 476.981 233.77Z" fill="#263238"/>
<path d="M448.923 231.151C449.768 230.779 450.636 230.461 451.521 230.198C452.391 229.741 453.385 229.574 454.357 229.722C454.65 229.838 454.898 230.047 455.062 230.316C455.226 230.586 455.298 230.902 455.266 231.216C455.11 231.823 454.796 232.377 454.354 232.823C453.913 233.268 453.361 233.587 452.755 233.749C451.571 234.268 450.236 234.33 449.01 233.922C448.737 233.811 448.503 233.624 448.335 233.384C448.167 233.143 448.073 232.858 448.064 232.564C448.054 232.271 448.131 231.981 448.283 231.73C448.436 231.479 448.658 231.278 448.923 231.151Z" fill="#263238"/>
<path d="M454.638 242.148C454.638 242.148 454.422 242.257 454.4 242.365C454.292 245.093 453.708 248.21 451.196 248.86V249.011C454.227 248.881 454.963 244.746 454.638 242.148Z" fill="#263238"/>
<path d="M452.409 239.117C448.079 238.49 447.083 247.236 451.11 247.777C455.136 248.318 456.067 239.659 452.409 239.117Z" fill="#263238"/>
<path d="M450.633 239.356C449.832 239.767 448.966 240.546 448.035 240.546C447.105 240.546 446.26 239.529 445.654 238.576C445.654 238.576 445.524 238.576 445.502 238.576C445.286 240.265 445.741 242.062 447.516 242.495C449.291 242.928 450.482 241.564 451.088 239.918C451.196 239.724 450.98 239.226 450.633 239.356Z" fill="#263238"/>
<path d="M469.75 243.123C469.75 243.123 469.945 243.274 469.945 243.383C469.533 246.089 469.512 249.25 471.85 250.44C471.85 250.44 471.85 250.613 471.85 250.592C468.884 249.812 468.949 245.612 469.75 243.123Z" fill="#263238"/>
<path d="M472.521 240.59C476.851 240.785 476.201 249.553 472.131 249.38C468.061 249.206 468.819 240.438 472.521 240.59Z" fill="#263238"/>
<path d="M474.296 241.304C474.946 241.824 475.574 242.733 476.461 242.841C477.349 242.949 478.215 242.105 478.886 241.239H479.016C479.016 242.906 478.236 244.616 476.591 244.811C474.946 245.006 474.145 243.469 473.885 241.759C473.755 241.52 474.036 241.109 474.296 241.304Z" fill="#263238"/>
<path d="M450.244 264.794C450.785 265.53 451.283 266.504 452.257 266.742C453.266 266.868 454.29 266.787 455.266 266.504C455.266 266.504 455.418 266.504 455.266 266.677C454.793 267.141 454.204 267.469 453.561 267.629C452.917 267.789 452.243 267.774 451.608 267.587C451.081 267.361 450.634 266.983 450.325 266.5C450.016 266.018 449.86 265.453 449.876 264.881C449.941 264.707 450.157 264.686 450.244 264.794Z" fill="#263238"/>
<path d="M464.511 254.9C464.511 254.9 464.662 259.013 464.511 260.94C460.775 260.582 457.007 260.749 453.318 261.438C452.452 261.633 452.517 260.94 453.513 260.464C456.481 259.069 459.798 258.594 463.039 259.1C463.233 258.58 462.692 252.778 463.039 252.778C464.54 253.057 465.996 253.537 467.368 254.207C467.368 245.547 465.831 237.147 465.875 228.596C465.875 228.527 465.902 228.461 465.951 228.412C465.999 228.364 466.066 228.336 466.134 228.336C466.203 228.336 466.269 228.364 466.318 228.412C466.367 228.461 466.394 228.527 466.394 228.596C468.229 237.646 469.157 246.857 469.165 256.091C469.035 257.13 465.247 255.311 464.511 254.9Z" fill="#263238"/>
<path d="M459.813 260.724C459.813 260.724 457.518 265.054 454.595 265.27C451.239 265.422 450.568 261.308 454.4 260.009C456.236 259.749 458.108 259.996 459.813 260.724Z" fill="#263238"/>
<path d="M458.146 263.17C457.293 264.33 456.017 265.108 454.595 265.335C454.257 265.394 453.91 265.38 453.578 265.293C453.246 265.205 452.937 265.047 452.671 264.829C452.406 264.611 452.191 264.339 452.041 264.03C451.891 263.721 451.81 263.383 451.802 263.04C451.802 263.04 451.802 263.04 451.802 262.932C455.396 261.395 457.258 262.109 458.146 263.17Z" fill="#FF99BA"/>
<path d="M411.599 252.475C413.418 258.342 398.35 231.389 398.198 227.102C398.047 222.815 404.996 201.361 422.338 191.38C436.864 183.024 455.613 187.05 458.882 187.83C462.545 188.656 465.991 190.25 468.992 192.506C468.992 192.506 444.42 187.094 424.286 194.39C414.587 197.918 404.78 230.479 411.599 252.475Z" fill="#FFC727"/>
<path d="M414.544 189.952C414.544 189.952 418.462 176.962 429.439 172.632C429.439 172.632 431.971 183.976 428.962 188.739C427.468 191.099 418.809 194.217 417.38 193.069C416.331 192.129 415.381 191.085 414.544 189.952Z" fill="#FFC727"/>
<path opacity="0.1" d="M414.544 189.93C415.391 191.061 416.34 192.112 417.38 193.069C418.073 193.632 420.649 193.307 423.203 192.463C422.495 190.805 421.633 189.218 420.627 187.722C419.307 185.925 415.475 185.254 413.721 185.016C414.111 187.787 414.544 189.93 414.544 189.93Z" fill="#050400"/>
<path d="M412.184 192.225C412.184 192.225 395.795 193.957 389.106 199.391C389.106 199.391 395.427 206.513 403.849 206.449C407.638 206.449 416.276 197.248 415.215 195.624C414.37 194.354 413.349 193.209 412.184 192.225Z" fill="#FFC727"/>
<path opacity="0.1" d="M410.149 197.854C411.197 198.993 412.504 199.862 413.959 200.387C415.042 198.222 415.626 196.165 415.258 195.559C414.4 194.325 413.381 193.211 412.227 192.247C412.227 192.247 410.668 192.008 408.438 191.792C408.395 193.937 408.99 196.047 410.149 197.854Z" fill="#050400"/>
<path d="M411.491 196.23C412.205 197.008 413.134 197.557 414.16 197.808C415.186 198.059 416.264 198 417.256 197.639C418.249 197.279 419.113 196.632 419.738 195.781C420.364 194.93 420.724 193.913 420.772 192.858C420.82 191.803 420.555 190.757 420.01 189.852C419.464 188.948 418.663 188.225 417.707 187.775C416.752 187.325 415.684 187.169 414.64 187.325C413.595 187.481 412.62 187.943 411.838 188.653C410.788 189.612 410.162 190.949 410.097 192.37C410.032 193.79 410.534 195.179 411.491 196.23Z" fill="#FFC727"/>
<path d="M408.872 254.121C409.431 254.449 410.026 254.711 410.647 254.9C411.251 255.126 411.886 255.258 412.53 255.29C413.356 255.353 414.185 255.227 414.955 254.922C415.559 254.702 416.128 254.396 416.644 254.012C417.391 253.475 418.037 252.807 418.549 252.042L418.138 241.001C418.138 241.001 411.534 227.059 405.364 229.224C399.194 231.389 402.658 250.527 408.872 254.121Z" fill="#FFC3BA"/>
<path d="M406.49 234.679V234.852C410.82 237.515 412.552 242.257 413.505 247.019C413.315 246.507 413.017 246.043 412.63 245.657C412.243 245.272 411.777 244.976 411.265 244.788C410.752 244.601 410.205 244.527 409.661 244.572C409.117 244.617 408.589 244.78 408.114 245.049C407.962 245.049 408.114 245.331 408.114 245.331C408.969 245.219 409.838 245.366 410.61 245.752C411.381 246.137 412.02 246.745 412.444 247.496C413.116 248.789 413.639 250.155 414.003 251.566C414.154 252.02 414.933 251.934 414.869 251.414C414.855 251.379 414.855 251.341 414.869 251.306C415.973 245.439 412.769 236.346 406.49 234.679Z" fill="#263238"/>
<path d="M409.629 252.54C409.612 252.803 409.649 253.067 409.74 253.314C409.831 253.561 409.972 253.787 410.156 253.976C410.339 254.165 410.56 254.314 410.804 254.413C411.048 254.511 411.311 254.557 411.574 254.548C411.837 254.539 412.096 254.475 412.333 254.36C412.569 254.244 412.78 254.081 412.949 253.879C413.119 253.678 413.244 253.443 413.318 253.19C413.391 252.937 413.41 252.671 413.375 252.41C413.311 251.948 413.079 251.526 412.722 251.225C412.365 250.925 411.91 250.767 411.443 250.784C410.977 250.8 410.533 250.988 410.198 251.313C409.863 251.637 409.66 252.075 409.629 252.54Z" fill="white"/>
<path d="M406.404 249.098C406.409 249.271 406.449 249.442 406.52 249.6C406.592 249.758 406.694 249.901 406.821 250.019C406.947 250.138 407.096 250.23 407.259 250.291C407.421 250.352 407.594 250.381 407.767 250.375C408.118 250.375 408.454 250.236 408.701 249.988C408.949 249.741 409.088 249.405 409.088 249.055C409.088 248.704 408.949 248.368 408.701 248.121C408.454 247.873 408.118 247.734 407.767 247.734C407.587 247.728 407.407 247.759 407.239 247.825C407.07 247.892 406.918 247.992 406.79 248.12C406.662 248.248 406.562 248.401 406.495 248.569C406.429 248.737 406.398 248.917 406.404 249.098Z" fill="white"/>
<path d="M384.473 320.736C395.297 364.749 454.119 449.593 479.059 455.677C507.939 462.713 585.704 430.325 603.89 414.846C611.142 408.676 569.857 361.826 560.591 366.026C521.752 383.606 489.905 389.451 484.515 386.334C476.245 381.549 441.216 341.454 418.116 314.371C389.214 280.338 379.602 300.992 384.473 320.736Z" fill="#FFC3BA"/>
<path d="M601.963 416.123C605.968 414.348 632.878 391.681 640.542 381.484C648.886 370.807 655.424 358.835 659.897 346.044C666.89 325.824 669.812 311.167 667.323 304.91C664.422 297.614 663.664 296.445 646.409 330.435C636.624 349.66 626.189 352.517 616.988 352.994C594.476 354.169 572.52 360.408 552.754 371.244C552.754 371.244 586.505 422.943 601.963 416.123Z" fill="#FFC3BA"/>
<path d="M634.264 274.666L594.949 335.392C594.656 335.715 594.455 336.11 594.366 336.536C594.277 336.962 594.303 337.404 594.442 337.817C594.581 338.23 594.828 338.598 595.157 338.883C595.485 339.169 595.884 339.361 596.312 339.441L630.605 347.3C631.669 347.459 632.756 347.314 633.741 346.881C634.726 346.448 635.568 345.745 636.169 344.853L675.506 284.235C675.799 283.911 676 283.514 676.087 283.087C676.175 282.659 676.147 282.216 676.006 281.803C675.864 281.389 675.615 281.022 675.283 280.738C674.952 280.453 674.55 280.263 674.121 280.186L639.849 272.328C638.793 272.15 637.707 272.275 636.719 272.689C635.73 273.103 634.879 273.788 634.264 274.666Z" fill="#263238"/>
<path d="M631.19 274.103L591.853 334.852C591.559 335.172 591.357 335.565 591.267 335.99C591.177 336.415 591.203 336.857 591.343 337.269C591.482 337.68 591.73 338.047 592.059 338.33C592.389 338.613 592.789 338.803 593.217 338.878L627.509 346.737C628.571 346.901 629.658 346.761 630.643 346.332C631.628 345.902 632.471 345.202 633.073 344.312L672.41 283.564C672.704 283.244 672.907 282.85 672.996 282.425C673.086 282 673.06 281.558 672.92 281.147C672.781 280.735 672.533 280.369 672.204 280.086C671.874 279.802 671.474 279.613 671.047 279.537L636.754 271.657C635.69 271.495 634.602 271.639 633.616 272.072C632.631 272.505 631.79 273.21 631.19 274.103Z" fill="#37474F"/>
<path d="M631.385 277.654L595.317 333.336C594.213 335.046 594.711 336.735 596.421 337.125L627.098 344.182C628.087 344.306 629.092 344.148 629.995 343.727C630.899 343.305 631.666 342.638 632.207 341.801L668.275 286.119C670.44 282.633 669.617 281.55 667.907 281.161L661.759 279.754C661.515 279.746 661.275 279.807 661.064 279.929C660.853 280.052 660.682 280.231 660.568 280.446L660.438 280.641C659.745 281.724 659.096 281.572 658.273 281.399L644.071 278.13C643.27 277.935 642.642 277.805 643.335 276.723L643.465 276.506C643.768 276.052 643.703 275.619 643.465 275.532L637.317 274.125C635.52 273.735 633.441 274.471 631.385 277.654Z" fill="white"/>
<path d="M650.133 277.957L654.008 278.844C654.081 278.861 654.157 278.856 654.227 278.829C654.296 278.802 654.356 278.754 654.398 278.693C654.447 278.675 654.487 278.639 654.509 278.593C654.531 278.546 654.534 278.492 654.517 278.444C654.5 278.395 654.464 278.355 654.417 278.333C654.371 278.31 654.317 278.307 654.268 278.325L650.393 277.437C650.318 277.427 650.242 277.439 650.174 277.469C650.105 277.5 650.046 277.548 650.003 277.61C649.957 277.627 649.92 277.662 649.9 277.707C649.879 277.751 649.878 277.802 649.895 277.848C649.912 277.894 649.947 277.931 649.992 277.952C650.036 277.972 650.087 277.974 650.133 277.957Z" fill="white"/>
<path d="M615.559 311.686L641.603 317.683L657.082 293.804L631.017 287.807L615.559 311.686Z" fill="#FFC727"/>
<path d="M623.851 318.116L639.07 321.602L639.979 320.195L624.782 316.709L623.851 318.116Z" fill="#A6A6A6"/>
<path d="M619.564 319.783L637.576 323.897L638.031 323.204L620.019 319.069L619.564 319.783Z" fill="#A6A6A6"/>
<path d="M618.741 321.061L636.754 325.196L637.208 324.481L619.196 320.346L618.741 321.061Z" fill="#A6A6A6"/>
<path d="M617.897 322.338L635.909 326.473L636.364 325.78L618.352 321.645L617.897 322.338Z" fill="#A6A6A6"/>
<path d="M658.533 285.772L661.781 286.53L662.149 285.945L658.901 285.209L658.533 285.772Z" fill="#A6A6A6"/>
<path d="M657.84 286.833L661.088 287.591L661.477 287.006L658.23 286.27L657.84 286.833Z" fill="#A6A6A6"/>
<path d="M657.169 287.894L660.416 288.651L660.785 288.067L657.537 287.331L657.169 287.894Z" fill="#A6A6A6"/>
<path d="M613.567 315.302C613.606 315.63 613.742 315.939 613.957 316.19C614.419 316.089 614.864 315.921 615.277 315.692C616.1 315.237 616.533 314.458 615.905 314.306C615.277 314.154 614.844 314.804 614.844 314.804C614.844 314.804 615.169 314.133 614.671 314.025C614.173 313.916 613.459 314.631 613.567 315.302Z" fill="#FFC727"/>
<path d="M604.842 332.686L625.864 337.514L629.436 331.994L608.415 327.166L604.842 332.686Z" fill="#FFC727"/>
<path d="M621.577 352.409C612.095 353.232 641.538 331.756 641.214 320.931C640.889 310.106 630.627 314.263 622.768 320.931C595.512 344.182 573.711 344.745 560.591 366.005C547.471 387.265 621.577 352.409 621.577 352.409Z" fill="#FFC3BA"/>
<path d="M469.057 372.153C471.633 374.318 474.101 376.7 476.591 378.995C478.807 381.256 481.228 383.307 483.822 385.122C486.964 386.779 490.584 387.291 494.062 386.572C497.18 386.204 500.276 385.619 503.35 384.948C515.931 382.02 528.293 378.222 540.349 373.582C547.149 371.326 553.813 368.681 560.31 365.659L559.552 366.438C561.24 363.56 563.236 360.874 565.505 358.428C568.159 355.537 571.121 352.945 574.338 350.699C577.75 348.303 581.316 346.133 585.012 344.204C586.938 343.186 588.865 342.191 590.835 341.26L593.78 339.852C594.646 339.42 596.659 338.813 597.222 338.077C597.005 338.38 596.594 337.926 596.875 337.731H597.027C597.067 337.691 597.122 337.669 597.179 337.669C597.235 337.669 597.29 337.691 597.33 337.731L597.482 337.882C597.503 337.914 597.514 337.952 597.514 337.991C597.514 338.029 597.503 338.067 597.482 338.099C597.157 338.597 596.486 338.813 595.966 339.116L593.217 340.848C591.528 341.909 589.839 343.013 588.129 344.009C584.275 346.347 580.4 348.729 576.72 351.327C573.573 353.542 570.572 355.958 567.735 358.558C566.306 359.878 564.986 361.329 563.6 362.714C562.331 364.101 561.173 365.585 560.136 367.152C560.028 367.282 548.272 372.673 542.146 375.249C536.019 377.826 529.719 380.077 523.354 382.069C516.989 384.061 510.581 385.836 504.086 387.33C500.792 388.11 497.451 388.674 494.084 389.018C491.042 389.612 487.893 389.319 485.013 388.174C482.214 386.289 479.711 383.998 477.587 381.376C474.621 378.432 471.612 375.509 468.754 372.457C468.714 372.416 468.691 372.362 468.691 372.305C468.691 372.248 468.714 372.194 468.754 372.153C468.794 372.113 468.849 372.091 468.905 372.091C468.962 372.091 469.017 372.113 469.057 372.153Z" fill="#263238"/>
<path d="M469.728 370.53L423.03 407.81C423.03 407.81 389.647 359.294 382.676 323.377C375.705 287.461 394.258 284.062 424.026 318.658C453.123 352.387 469.728 370.53 469.728 370.53Z" fill="#FFC727"/>
<path d="M438.466 334.938C443.684 340.329 448.685 346.044 453.621 351.694C456.024 354.444 458.405 357.215 460.722 360.03L464.446 364.489C465.718 366.198 467.13 367.798 468.667 369.274C468.949 369.512 468.516 369.902 468.321 369.62C465.992 366.663 463.437 363.89 460.679 361.328C458.016 358.492 455.418 355.656 452.842 352.669C447.841 346.975 442.84 341.13 438.271 335.046C438.142 334.981 438.336 334.83 438.466 334.938Z" fill="#263238"/>
<path d="M391.422 356.696C392.715 358.534 394.164 360.258 395.752 361.848C396.38 362.476 396.964 363.126 397.549 363.775C395.016 358.688 392.591 353.557 390.448 348.339C390.448 348.231 390.556 348.188 390.599 348.339C396.272 358.363 401.424 368.69 407.096 378.648C412.769 388.607 417.921 399.453 424.221 409.369C424.238 409.396 424.25 409.426 424.255 409.457C424.261 409.489 424.26 409.521 424.253 409.552C424.246 409.584 424.233 409.613 424.214 409.639C424.196 409.665 424.172 409.687 424.145 409.704C424.118 409.722 424.088 409.733 424.057 409.739C424.025 409.744 423.993 409.743 423.962 409.736C423.931 409.729 423.901 409.716 423.875 409.698C423.849 409.679 423.827 409.656 423.81 409.629C417.834 399.605 411.296 389.971 405.797 379.644C403.632 375.531 401.467 371.374 399.303 367.196C398.574 366.53 397.901 365.806 397.289 365.031C396.52 364.191 395.797 363.309 395.124 362.39C393.804 360.528 392.44 358.709 391.032 356.912C390.838 356.761 391.227 356.436 391.422 356.696Z" fill="#263238"/>
<path d="M481.787 375.899L469.338 363.818L415.951 406.533L425.672 421.579L481.787 375.899Z" fill="#FFC727"/>
<path opacity="0.1" d="M481.787 375.899L469.338 363.818L415.951 406.533L425.672 421.579L481.787 375.899Z" fill="black"/>
<path d="M422.467 400.86C429.114 395.058 436.215 389.754 443.143 384.277C450.07 378.8 457.366 373.799 464.099 368.083C464.359 367.888 464.662 368.278 464.424 368.473C457.583 374.08 451.218 380.185 444.247 385.662C437.276 391.14 430.261 396.487 422.814 401.272C422.619 401.445 422.229 401.077 422.467 400.86Z" fill="#263238"/>
<path d="M434.916 414.067C431.56 416.232 428.421 418.613 425.217 421.016L426.278 421.189C423.139 416.102 419.783 411.122 416.297 406.295V406.857C417.575 405.71 418.83 404.541 420.043 403.307C418.592 404.238 417.163 405.212 415.713 406.186L415.431 406.403L415.626 406.771C418.549 411.988 421.753 417.033 425.109 421.925L425.563 422.597L426.169 422.099C429.114 419.544 432.101 416.881 434.916 414.067Z" fill="#263238"/>
</svg>
