<svg width="160" height="160" viewBox="0 0 160 160" fill="none" xmlns="http://www.w3.org/2000/svg">
<rect x="13.3333" y="13.3333" width="133.333" height="133.333" rx="66.6667" fill="#FF583C"/>
<path d="M72.6666 96.2014L72.6665 96.2013C72.3451 95.9682 72.075 95.6786 71.875 95.3468C71.6748 95.0146 71.5495 94.6477 71.5094 94.2669C71.4692 93.8861 71.5156 93.5029 71.6444 93.1403C71.7731 92.778 71.9807 92.446 72.2513 92.1618L72.2518 92.1612L83.8748 79.9934L72.6736 67.8101C72.6733 67.8098 72.673 67.8095 72.6727 67.8092C72.4059 67.5215 72.2031 67.1865 72.0797 66.8222C71.9561 66.4573 71.9158 66.0727 71.9621 65.6918C72.0084 65.3111 72.1399 64.9453 72.3458 64.6155C72.5497 64.289 72.8218 64.005 73.1437 63.7771C73.4706 63.5273 73.8489 63.3413 74.2543 63.2278C74.6633 63.1134 75.0936 63.0744 75.5189 63.1126C75.9442 63.1509 76.3582 63.2657 76.7351 63.4521C77.1093 63.6371 77.4409 63.8897 77.7069 64.1974L90.5778 78.1876C90.5784 78.1882 90.579 78.1889 90.5796 78.1895C91.0521 78.6934 91.32 79.3367 91.32 80.0116C91.32 80.6874 91.0514 81.3315 90.5778 81.8356L90.5755 81.8381L77.243 95.8371L72.6666 96.2014ZM72.6666 96.2014C73.2329 96.612 73.9357 96.8317 74.654 96.8333C75.136 96.8568 75.619 96.7817 76.0656 96.6123L75.8921 96.1552M72.6666 96.2014L75.8921 96.1552M75.8921 96.1552L76.0656 96.6123M75.8921 96.1552L76.0656 96.6123M76.0656 96.6123C76.5159 96.4413 76.92 96.1778 77.2421 95.8381L76.0656 96.6123Z" fill="white" stroke="white"/>
</svg>
