<svg width="300" height="300" viewBox="0 0 300 300" fill="none" xmlns="http://www.w3.org/2000/svg">
<rect width="300" height="300" fill="#D3D3D3"/>
<path d="M55.8333 300C55.8333 300 37 300 37 281.25C37 262.5 55.8333 206.25 150 206.25C244.167 206.25 263 262.5 263 281.25C263 300 244.167 300 244.167 300H55.8333ZM150 187.5C164.985 187.5 179.356 181.574 189.952 171.025C200.547 160.476 206.5 146.168 206.5 131.25C206.5 116.332 200.547 102.024 189.952 91.4752C179.356 80.9263 164.985 75 150 75C135.015 75 120.644 80.9263 110.048 91.4752C99.4527 102.024 93.5 116.332 93.5 131.25C93.5 146.168 99.4527 160.476 110.048 171.025C120.644 181.574 135.015 187.5 150 187.5V187.5Z" fill="#A59E7E"/>
</svg>
